<svg width="188" height="145" viewBox="0 0 188 145" fill="none" xmlns="http://www.w3.org/2000/svg">
<g id="Group" style="mix-blend-mode:overlay">
<g id="Group_2">
<path id="Vector" d="M183.33 2.51978C183.33 3.74978 184.33 4.74979 185.56 4.74979C186.79 4.74979 187.79 3.74978 187.79 2.51978C187.79 1.28978 186.79 0.289795 185.56 0.289795C184.33 0.289795 183.33 1.28978 183.33 2.51978Z" fill="white"/>
<path id="Vector_2" d="M160.48 2.51978C160.48 3.74978 161.48 4.74979 162.71 4.74979C163.94 4.74979 164.94 3.74978 164.94 2.51978C164.94 1.28978 163.94 0.289795 162.71 0.289795C161.48 0.289795 160.48 1.28978 160.48 2.51978Z" fill="white"/>
<path id="Vector_3" d="M137.63 2.51978C137.63 3.74978 138.63 4.74979 139.86 4.74979C141.09 4.74979 142.09 3.74978 142.09 2.51978C142.09 1.28978 141.09 0.289795 139.86 0.289795C138.63 0.289795 137.63 1.28978 137.63 2.51978Z" fill="white"/>
<path id="Vector_4" d="M114.78 2.51978C114.78 3.74978 115.78 4.74979 117.01 4.74979C118.24 4.74979 119.24 3.74978 119.24 2.51978C119.24 1.28978 118.24 0.289795 117.01 0.289795C115.78 0.289795 114.78 1.28978 114.78 2.51978Z" fill="white"/>
<path id="Vector_5" d="M91.93 2.51978C91.93 3.74978 92.93 4.74979 94.16 4.74979C95.39 4.74979 96.39 3.74978 96.39 2.51978C96.39 1.28978 95.39 0.289795 94.16 0.289795C92.93 0.289795 91.93 1.28978 91.93 2.51978Z" fill="white"/>
<path id="Vector_6" d="M69.08 2.51978C69.08 3.74978 70.08 4.74979 71.31 4.74979C72.54 4.74979 73.54 3.74978 73.54 2.51978C73.54 1.28978 72.54 0.289795 71.31 0.289795C70.08 0.289795 69.08 1.28978 69.08 2.51978Z" fill="white"/>
<path id="Vector_7" d="M46.23 2.51978C46.23 3.74978 47.23 4.74979 48.46 4.74979C49.69 4.74979 50.69 3.74978 50.69 2.51978C50.69 1.28978 49.69 0.289795 48.46 0.289795C47.23 0.289795 46.23 1.28978 46.23 2.51978Z" fill="white"/>
<path id="Vector_8" d="M23.38 2.51978C23.38 3.74978 24.38 4.74979 25.61 4.74979C26.84 4.74979 27.84 3.74978 27.84 2.51978C27.84 1.28978 26.84 0.289795 25.61 0.289795C24.38 0.289795 23.38 1.28978 23.38 2.51978Z" fill="white"/>
<path id="Vector_9" d="M0.529999 2.51978C0.529999 3.74978 1.53001 4.74979 2.76001 4.74979C3.99001 4.74979 4.98999 3.74978 4.98999 2.51978C4.98999 1.28978 3.99001 0.289795 2.76001 0.289795C1.53001 0.289795 0.529999 1.28978 0.529999 2.51978Z" fill="white"/>
</g>
<g id="Group_3">
<path id="Vector_10" d="M183.33 20.0398C183.33 21.2698 184.33 22.2698 185.56 22.2698C186.79 22.2698 187.79 21.2698 187.79 20.0398C187.79 18.8098 186.79 17.8098 185.56 17.8098C184.33 17.8098 183.33 18.8098 183.33 20.0398Z" fill="white"/>
<path id="Vector_11" d="M160.48 20.0398C160.48 21.2698 161.48 22.2698 162.71 22.2698C163.94 22.2698 164.94 21.2698 164.94 20.0398C164.94 18.8098 163.94 17.8098 162.71 17.8098C161.48 17.8098 160.48 18.8098 160.48 20.0398Z" fill="white"/>
<path id="Vector_12" d="M137.63 20.0398C137.63 21.2698 138.63 22.2698 139.86 22.2698C141.09 22.2698 142.09 21.2698 142.09 20.0398C142.09 18.8098 141.09 17.8098 139.86 17.8098C138.63 17.8098 137.63 18.8098 137.63 20.0398Z" fill="white"/>
<path id="Vector_13" d="M114.78 20.0398C114.78 21.2698 115.78 22.2698 117.01 22.2698C118.24 22.2698 119.24 21.2698 119.24 20.0398C119.24 18.8098 118.24 17.8098 117.01 17.8098C115.78 17.8098 114.78 18.8098 114.78 20.0398Z" fill="white"/>
<path id="Vector_14" d="M91.93 20.0398C91.93 21.2698 92.93 22.2698 94.16 22.2698C95.39 22.2698 96.39 21.2698 96.39 20.0398C96.39 18.8098 95.39 17.8098 94.16 17.8098C92.93 17.8098 91.93 18.8098 91.93 20.0398Z" fill="white"/>
<path id="Vector_15" d="M69.08 20.0398C69.08 21.2698 70.08 22.2698 71.31 22.2698C72.54 22.2698 73.54 21.2698 73.54 20.0398C73.54 18.8098 72.54 17.8098 71.31 17.8098C70.08 17.8098 69.08 18.8098 69.08 20.0398Z" fill="white"/>
<path id="Vector_16" d="M46.23 20.0398C46.23 21.2698 47.23 22.2698 48.46 22.2698C49.69 22.2698 50.69 21.2698 50.69 20.0398C50.69 18.8098 49.69 17.8098 48.46 17.8098C47.23 17.8098 46.23 18.8098 46.23 20.0398Z" fill="white"/>
<path id="Vector_17" d="M23.38 20.0398C23.38 21.2698 24.38 22.2698 25.61 22.2698C26.84 22.2698 27.84 21.2698 27.84 20.0398C27.84 18.8098 26.84 17.8098 25.61 17.8098C24.38 17.8098 23.38 18.8098 23.38 20.0398Z" fill="white"/>
<path id="Vector_18" d="M0.529999 20.0398C0.529999 21.2698 1.53001 22.2698 2.76001 22.2698C3.99001 22.2698 4.98999 21.2698 4.98999 20.0398C4.98999 18.8098 3.99001 17.8098 2.76001 17.8098C1.53001 17.8098 0.529999 18.8098 0.529999 20.0398Z" fill="white"/>
</g>
<g id="Group_4">
<path id="Vector_19" d="M183.33 37.5498C183.33 38.7798 184.33 39.7798 185.56 39.7798C186.79 39.7798 187.79 38.7798 187.79 37.5498C187.79 36.3198 186.79 35.3198 185.56 35.3198C184.33 35.3198 183.33 36.3198 183.33 37.5498Z" fill="white"/>
<path id="Vector_20" d="M160.48 37.5498C160.48 38.7798 161.48 39.7798 162.71 39.7798C163.94 39.7798 164.94 38.7798 164.94 37.5498C164.94 36.3198 163.94 35.3198 162.71 35.3198C161.48 35.3198 160.48 36.3198 160.48 37.5498Z" fill="white"/>
<path id="Vector_21" d="M137.63 37.5498C137.63 38.7798 138.63 39.7798 139.86 39.7798C141.09 39.7798 142.09 38.7798 142.09 37.5498C142.09 36.3198 141.09 35.3198 139.86 35.3198C138.63 35.3198 137.63 36.3198 137.63 37.5498Z" fill="white"/>
<path id="Vector_22" d="M114.78 37.5498C114.78 38.7798 115.78 39.7798 117.01 39.7798C118.24 39.7798 119.24 38.7798 119.24 37.5498C119.24 36.3198 118.24 35.3198 117.01 35.3198C115.78 35.3198 114.78 36.3198 114.78 37.5498Z" fill="white"/>
<path id="Vector_23" d="M91.93 37.5498C91.93 38.7798 92.93 39.7798 94.16 39.7798C95.39 39.7798 96.39 38.7798 96.39 37.5498C96.39 36.3198 95.39 35.3198 94.16 35.3198C92.93 35.3198 91.93 36.3198 91.93 37.5498Z" fill="white"/>
<path id="Vector_24" d="M69.08 37.5498C69.08 38.7798 70.08 39.7798 71.31 39.7798C72.54 39.7798 73.54 38.7798 73.54 37.5498C73.54 36.3198 72.54 35.3198 71.31 35.3198C70.08 35.3198 69.08 36.3198 69.08 37.5498Z" fill="white"/>
<path id="Vector_25" d="M46.23 37.5498C46.23 38.7798 47.23 39.7798 48.46 39.7798C49.69 39.7798 50.69 38.7798 50.69 37.5498C50.69 36.3198 49.69 35.3198 48.46 35.3198C47.23 35.3198 46.23 36.3198 46.23 37.5498Z" fill="white"/>
<path id="Vector_26" d="M23.38 37.5498C23.38 38.7798 24.38 39.7798 25.61 39.7798C26.84 39.7798 27.84 38.7798 27.84 37.5498C27.84 36.3198 26.84 35.3198 25.61 35.3198C24.38 35.3198 23.38 36.3198 23.38 37.5498Z" fill="white"/>
<path id="Vector_27" d="M0.529999 37.5498C0.529999 38.7798 1.53001 39.7798 2.76001 39.7798C3.99001 39.7798 4.98999 38.7798 4.98999 37.5498C4.98999 36.3198 3.99001 35.3198 2.76001 35.3198C1.53001 35.3198 0.529999 36.3198 0.529999 37.5498Z" fill="white"/>
</g>
<g id="Group_5">
<path id="Vector_28" d="M183.33 55.0598C183.33 56.2898 184.33 57.2899 185.56 57.2899C186.79 57.2899 187.79 56.2898 187.79 55.0598C187.79 53.8298 186.79 52.8298 185.56 52.8298C184.33 52.8298 183.33 53.8298 183.33 55.0598Z" fill="white"/>
<path id="Vector_29" d="M160.48 55.0598C160.48 56.2898 161.48 57.2899 162.71 57.2899C163.94 57.2899 164.94 56.2898 164.94 55.0598C164.94 53.8298 163.94 52.8298 162.71 52.8298C161.48 52.8298 160.48 53.8298 160.48 55.0598Z" fill="white"/>
<path id="Vector_30" d="M137.63 55.0598C137.63 56.2898 138.63 57.2899 139.86 57.2899C141.09 57.2899 142.09 56.2898 142.09 55.0598C142.09 53.8298 141.09 52.8298 139.86 52.8298C138.63 52.8298 137.63 53.8298 137.63 55.0598Z" fill="white"/>
<path id="Vector_31" d="M114.78 55.0598C114.78 56.2898 115.78 57.2899 117.01 57.2899C118.24 57.2899 119.24 56.2898 119.24 55.0598C119.24 53.8298 118.24 52.8298 117.01 52.8298C115.78 52.8298 114.78 53.8298 114.78 55.0598Z" fill="white"/>
<path id="Vector_32" d="M91.93 55.0598C91.93 56.2898 92.93 57.2899 94.16 57.2899C95.39 57.2899 96.39 56.2898 96.39 55.0598C96.39 53.8298 95.39 52.8298 94.16 52.8298C92.93 52.8298 91.93 53.8298 91.93 55.0598Z" fill="white"/>
<path id="Vector_33" d="M69.08 55.0598C69.08 56.2898 70.08 57.2899 71.31 57.2899C72.54 57.2899 73.54 56.2898 73.54 55.0598C73.54 53.8298 72.54 52.8298 71.31 52.8298C70.08 52.8298 69.08 53.8298 69.08 55.0598Z" fill="white"/>
<path id="Vector_34" d="M46.23 55.0598C46.23 56.2898 47.23 57.2899 48.46 57.2899C49.69 57.2899 50.69 56.2898 50.69 55.0598C50.69 53.8298 49.69 52.8298 48.46 52.8298C47.23 52.8298 46.23 53.8298 46.23 55.0598Z" fill="white"/>
<path id="Vector_35" d="M23.38 55.0598C23.38 56.2898 24.38 57.2899 25.61 57.2899C26.84 57.2899 27.84 56.2898 27.84 55.0598C27.84 53.8298 26.84 52.8298 25.61 52.8298C24.38 52.8298 23.38 53.8298 23.38 55.0598Z" fill="white"/>
<path id="Vector_36" d="M0.529999 55.0598C0.529999 56.2898 1.53001 57.2899 2.76001 57.2899C3.99001 57.2899 4.98999 56.2898 4.98999 55.0598C4.98999 53.8298 3.99001 52.8298 2.76001 52.8298C1.53001 52.8298 0.529999 53.8298 0.529999 55.0598Z" fill="white"/>
</g>
<g id="Group_6">
<path id="Vector_37" d="M185.55 74.7998C186.782 74.7998 187.78 73.8014 187.78 72.5699C187.78 71.3383 186.782 70.3398 185.55 70.3398C184.318 70.3398 183.32 71.3383 183.32 72.5699C183.32 73.8014 184.318 74.7998 185.55 74.7998Z" fill="white"/>
<path id="Vector_38" d="M162.71 74.7998C163.942 74.7998 164.94 73.8014 164.94 72.5699C164.94 71.3383 163.942 70.3398 162.71 70.3398C161.478 70.3398 160.48 71.3383 160.48 72.5699C160.48 73.8014 161.478 74.7998 162.71 74.7998Z" fill="white"/>
<path id="Vector_39" d="M137.63 72.5699C137.63 73.7999 138.63 74.7998 139.86 74.7998C141.09 74.7998 142.09 73.7999 142.09 72.5699C142.09 71.3399 141.09 70.3398 139.86 70.3398C138.63 70.3398 137.63 71.3399 137.63 72.5699Z" fill="white"/>
<path id="Vector_40" d="M117.01 74.7998C118.242 74.7998 119.24 73.8014 119.24 72.5699C119.24 71.3383 118.242 70.3398 117.01 70.3398C115.778 70.3398 114.78 71.3383 114.78 72.5699C114.78 73.8014 115.778 74.7998 117.01 74.7998Z" fill="white"/>
<path id="Vector_41" d="M94.16 74.7998C95.3916 74.7998 96.39 73.8014 96.39 72.5699C96.39 71.3383 95.3916 70.3398 94.16 70.3398C92.9284 70.3398 91.93 71.3383 91.93 72.5699C91.93 73.8014 92.9284 74.7998 94.16 74.7998Z" fill="white"/>
<path id="Vector_42" d="M71.31 74.7998C72.5416 74.7998 73.54 73.8014 73.54 72.5699C73.54 71.3383 72.5416 70.3398 71.31 70.3398C70.0784 70.3398 69.08 71.3383 69.08 72.5699C69.08 73.8014 70.0784 74.7998 71.31 74.7998Z" fill="white"/>
<path id="Vector_43" d="M48.46 74.7998C49.6916 74.7998 50.69 73.8014 50.69 72.5699C50.69 71.3383 49.6916 70.3398 48.46 70.3398C47.2284 70.3398 46.23 71.3383 46.23 72.5699C46.23 73.8014 47.2284 74.7998 48.46 74.7998Z" fill="white"/>
<path id="Vector_44" d="M25.61 74.7998C26.8416 74.7998 27.84 73.8014 27.84 72.5699C27.84 71.3383 26.8416 70.3398 25.61 70.3398C24.3784 70.3398 23.38 71.3383 23.38 72.5699C23.38 73.8014 24.3784 74.7998 25.61 74.7998Z" fill="white"/>
<path id="Vector_45" d="M2.76001 74.7998C3.9916 74.7998 4.98999 73.8014 4.98999 72.5699C4.98999 71.3383 3.9916 70.3398 2.76001 70.3398C1.52841 70.3398 0.529999 71.3383 0.529999 72.5699C0.529999 73.8014 1.52841 74.7998 2.76001 74.7998Z" fill="white"/>
</g>
<g id="Group_7">
<path id="Vector_46" d="M185.55 92.3199C186.782 92.3199 187.78 91.3215 187.78 90.0899C187.78 88.8583 186.782 87.8599 185.55 87.8599C184.318 87.8599 183.32 88.8583 183.32 90.0899C183.32 91.3215 184.318 92.3199 185.55 92.3199Z" fill="white"/>
<path id="Vector_47" d="M162.71 92.3199C163.942 92.3199 164.94 91.3215 164.94 90.0899C164.94 88.8583 163.942 87.8599 162.71 87.8599C161.478 87.8599 160.48 88.8583 160.48 90.0899C160.48 91.3215 161.478 92.3199 162.71 92.3199Z" fill="white"/>
<path id="Vector_48" d="M137.63 90.0899C137.63 91.3199 138.63 92.3199 139.86 92.3199C141.09 92.3199 142.09 91.3199 142.09 90.0899C142.09 88.8599 141.09 87.8599 139.86 87.8599C138.63 87.8599 137.63 88.8599 137.63 90.0899Z" fill="white"/>
<path id="Vector_49" d="M117.01 92.3199C118.242 92.3199 119.24 91.3215 119.24 90.0899C119.24 88.8583 118.242 87.8599 117.01 87.8599C115.778 87.8599 114.78 88.8583 114.78 90.0899C114.78 91.3215 115.778 92.3199 117.01 92.3199Z" fill="white"/>
<path id="Vector_50" d="M94.16 92.3199C95.3916 92.3199 96.39 91.3215 96.39 90.0899C96.39 88.8583 95.3916 87.8599 94.16 87.8599C92.9284 87.8599 91.93 88.8583 91.93 90.0899C91.93 91.3215 92.9284 92.3199 94.16 92.3199Z" fill="white"/>
<path id="Vector_51" d="M71.31 92.3199C72.5416 92.3199 73.54 91.3215 73.54 90.0899C73.54 88.8583 72.5416 87.8599 71.31 87.8599C70.0784 87.8599 69.08 88.8583 69.08 90.0899C69.08 91.3215 70.0784 92.3199 71.31 92.3199Z" fill="white"/>
<path id="Vector_52" d="M48.46 92.3199C49.6916 92.3199 50.69 91.3215 50.69 90.0899C50.69 88.8583 49.6916 87.8599 48.46 87.8599C47.2284 87.8599 46.23 88.8583 46.23 90.0899C46.23 91.3215 47.2284 92.3199 48.46 92.3199Z" fill="white"/>
<path id="Vector_53" d="M25.61 92.3199C26.8416 92.3199 27.84 91.3215 27.84 90.0899C27.84 88.8583 26.8416 87.8599 25.61 87.8599C24.3784 87.8599 23.38 88.8583 23.38 90.0899C23.38 91.3215 24.3784 92.3199 25.61 92.3199Z" fill="white"/>
<path id="Vector_54" d="M2.76001 92.3199C3.9916 92.3199 4.98999 91.3215 4.98999 90.0899C4.98999 88.8583 3.9916 87.8599 2.76001 87.8599C1.52841 87.8599 0.529999 88.8583 0.529999 90.0899C0.529999 91.3215 1.52841 92.3199 2.76001 92.3199Z" fill="white"/>
</g>
<g id="Group_8">
<path id="Vector_55" d="M185.55 109.83C186.782 109.83 187.78 108.831 187.78 107.6C187.78 106.368 186.782 105.37 185.55 105.37C184.318 105.37 183.32 106.368 183.32 107.6C183.32 108.831 184.318 109.83 185.55 109.83Z" fill="white"/>
<path id="Vector_56" d="M162.71 109.83C163.942 109.83 164.94 108.831 164.94 107.6C164.94 106.368 163.942 105.37 162.71 105.37C161.478 105.37 160.48 106.368 160.48 107.6C160.48 108.831 161.478 109.83 162.71 109.83Z" fill="white"/>
<path id="Vector_57" d="M137.63 107.6C137.63 108.83 138.63 109.83 139.86 109.83C141.09 109.83 142.09 108.83 142.09 107.6C142.09 106.37 141.09 105.37 139.86 105.37C138.63 105.37 137.63 106.37 137.63 107.6Z" fill="white"/>
<path id="Vector_58" d="M117.01 109.83C118.242 109.83 119.24 108.831 119.24 107.6C119.24 106.368 118.242 105.37 117.01 105.37C115.778 105.37 114.78 106.368 114.78 107.6C114.78 108.831 115.778 109.83 117.01 109.83Z" fill="white"/>
<path id="Vector_59" d="M94.16 109.83C95.3916 109.83 96.39 108.831 96.39 107.6C96.39 106.368 95.3916 105.37 94.16 105.37C92.9284 105.37 91.93 106.368 91.93 107.6C91.93 108.831 92.9284 109.83 94.16 109.83Z" fill="white"/>
<path id="Vector_60" d="M71.31 109.83C72.5416 109.83 73.54 108.831 73.54 107.6C73.54 106.368 72.5416 105.37 71.31 105.37C70.0784 105.37 69.08 106.368 69.08 107.6C69.08 108.831 70.0784 109.83 71.31 109.83Z" fill="white"/>
<path id="Vector_61" d="M48.46 109.83C49.6916 109.83 50.69 108.831 50.69 107.6C50.69 106.368 49.6916 105.37 48.46 105.37C47.2284 105.37 46.23 106.368 46.23 107.6C46.23 108.831 47.2284 109.83 48.46 109.83Z" fill="white"/>
<path id="Vector_62" d="M25.61 109.83C26.8416 109.83 27.84 108.831 27.84 107.6C27.84 106.368 26.8416 105.37 25.61 105.37C24.3784 105.37 23.38 106.368 23.38 107.6C23.38 108.831 24.3784 109.83 25.61 109.83Z" fill="white"/>
<path id="Vector_63" d="M2.76001 109.83C3.9916 109.83 4.98999 108.831 4.98999 107.6C4.98999 106.368 3.9916 105.37 2.76001 105.37C1.52841 105.37 0.529999 106.368 0.529999 107.6C0.529999 108.831 1.52841 109.83 2.76001 109.83Z" fill="white"/>
</g>
<g id="Group_9">
<path id="Vector_64" d="M185.55 127.34C186.782 127.34 187.78 126.341 187.78 125.11C187.78 123.878 186.782 122.88 185.55 122.88C184.318 122.88 183.32 123.878 183.32 125.11C183.32 126.341 184.318 127.34 185.55 127.34Z" fill="white"/>
<path id="Vector_65" d="M162.71 127.34C163.942 127.34 164.94 126.341 164.94 125.11C164.94 123.878 163.942 122.88 162.71 122.88C161.478 122.88 160.48 123.878 160.48 125.11C160.48 126.341 161.478 127.34 162.71 127.34Z" fill="white"/>
<path id="Vector_66" d="M137.63 125.11C137.63 126.34 138.63 127.34 139.86 127.34C141.09 127.34 142.09 126.34 142.09 125.11C142.09 123.88 141.09 122.88 139.86 122.88C138.63 122.88 137.63 123.88 137.63 125.11Z" fill="white"/>
<path id="Vector_67" d="M117.01 127.34C118.242 127.34 119.24 126.341 119.24 125.11C119.24 123.878 118.242 122.88 117.01 122.88C115.778 122.88 114.78 123.878 114.78 125.11C114.78 126.341 115.778 127.34 117.01 127.34Z" fill="white"/>
<path id="Vector_68" d="M94.16 127.34C95.3916 127.34 96.39 126.341 96.39 125.11C96.39 123.878 95.3916 122.88 94.16 122.88C92.9284 122.88 91.93 123.878 91.93 125.11C91.93 126.341 92.9284 127.34 94.16 127.34Z" fill="white"/>
<path id="Vector_69" d="M71.31 127.34C72.5416 127.34 73.54 126.341 73.54 125.11C73.54 123.878 72.5416 122.88 71.31 122.88C70.0784 122.88 69.08 123.878 69.08 125.11C69.08 126.341 70.0784 127.34 71.31 127.34Z" fill="white"/>
<path id="Vector_70" d="M48.46 127.34C49.6916 127.34 50.69 126.341 50.69 125.11C50.69 123.878 49.6916 122.88 48.46 122.88C47.2284 122.88 46.23 123.878 46.23 125.11C46.23 126.341 47.2284 127.34 48.46 127.34Z" fill="white"/>
<path id="Vector_71" d="M25.61 127.34C26.8416 127.34 27.84 126.341 27.84 125.11C27.84 123.878 26.8416 122.88 25.61 122.88C24.3784 122.88 23.38 123.878 23.38 125.11C23.38 126.341 24.3784 127.34 25.61 127.34Z" fill="white"/>
<path id="Vector_72" d="M2.76001 127.34C3.9916 127.34 4.98999 126.341 4.98999 125.11C4.98999 123.878 3.9916 122.88 2.76001 122.88C1.52841 122.88 0.529999 123.878 0.529999 125.11C0.529999 126.341 1.52841 127.34 2.76001 127.34Z" fill="white"/>
</g>
<g id="Group_10">
<path id="Vector_73" d="M185.55 144.86C186.782 144.86 187.78 143.862 187.78 142.63C187.78 141.398 186.782 140.4 185.55 140.4C184.318 140.4 183.32 141.398 183.32 142.63C183.32 143.862 184.318 144.86 185.55 144.86Z" fill="white"/>
<path id="Vector_74" d="M162.71 144.86C163.942 144.86 164.94 143.862 164.94 142.63C164.94 141.398 163.942 140.4 162.71 140.4C161.478 140.4 160.48 141.398 160.48 142.63C160.48 143.862 161.478 144.86 162.71 144.86Z" fill="white"/>
<path id="Vector_75" d="M137.63 142.63C137.63 143.86 138.63 144.86 139.86 144.86C141.09 144.86 142.09 143.86 142.09 142.63C142.09 141.4 141.09 140.4 139.86 140.4C138.63 140.4 137.63 141.4 137.63 142.63Z" fill="white"/>
<path id="Vector_76" d="M117.01 144.86C118.242 144.86 119.24 143.862 119.24 142.63C119.24 141.398 118.242 140.4 117.01 140.4C115.778 140.4 114.78 141.398 114.78 142.63C114.78 143.862 115.778 144.86 117.01 144.86Z" fill="white"/>
<path id="Vector_77" d="M94.16 144.86C95.3916 144.86 96.39 143.862 96.39 142.63C96.39 141.398 95.3916 140.4 94.16 140.4C92.9284 140.4 91.93 141.398 91.93 142.63C91.93 143.862 92.9284 144.86 94.16 144.86Z" fill="white"/>
<path id="Vector_78" d="M71.31 144.86C72.5416 144.86 73.54 143.862 73.54 142.63C73.54 141.398 72.5416 140.4 71.31 140.4C70.0784 140.4 69.08 141.398 69.08 142.63C69.08 143.862 70.0784 144.86 71.31 144.86Z" fill="white"/>
<path id="Vector_79" d="M48.46 144.86C49.6916 144.86 50.69 143.862 50.69 142.63C50.69 141.398 49.6916 140.4 48.46 140.4C47.2284 140.4 46.23 141.398 46.23 142.63C46.23 143.862 47.2284 144.86 48.46 144.86Z" fill="white"/>
<path id="Vector_80" d="M25.61 144.86C26.8416 144.86 27.84 143.862 27.84 142.63C27.84 141.398 26.8416 140.4 25.61 140.4C24.3784 140.4 23.38 141.398 23.38 142.63C23.38 143.862 24.3784 144.86 25.61 144.86Z" fill="white"/>
<path id="Vector_81" d="M2.76001 144.86C3.9916 144.86 4.98999 143.862 4.98999 142.63C4.98999 141.398 3.9916 140.4 2.76001 140.4C1.52841 140.4 0.529999 141.398 0.529999 142.63C0.529999 143.862 1.52841 144.86 2.76001 144.86Z" fill="white"/>
</g>
</g>
</svg>
