<svg width="121" height="59" viewBox="0 0 121 59" fill="none" xmlns="http://www.w3.org/2000/svg">
<g id="AnyTire" clip-path="url(#clip0_506_6998)">
<g id="Group">
<path id="Vector" d="M13.01 26.4L17.86 19.72H24.38C25.93 19.72 27.76 19.72 29 19.8C28.3 18.87 27.21 17.28 26.36 16.03L21.7 9.16L9.51 26.4H0L16.66 2.91C17.75 1.4 19.34 0 21.86 0C24.38 0 25.86 1.28 26.99 2.91L43.22 26.4H13.01Z" fill="#121112"/>
<path id="Vector_2" d="M69.19 25.43L53.27 11.14V26.4H45.97V4.85C45.97 1.39 48.07 0 50.36 0C51.33 0 52.3 0.23 53.58 1.4L69.5 15.69V0.43H76.84V21.94C76.84 25.4 74.74 26.83 72.41 26.83C71.4 26.83 70.43 26.6 69.19 25.43Z" fill="#121112"/>
<path id="Vector_3" d="M118.78 0.430176L103.36 17.8302V26.4102H95.28V17.7902L79.45 0.430176H89.78L95.99 7.65018C96.81 8.58018 98.98 10.9502 99.52 11.7302C100.02 10.9902 100.92 9.87018 102.78 7.61018L108.68 0.430176H118.78Z" fill="#121112"/>
</g>
<g id="Group_2">
<path id="Vector_4" d="M34.71 33L29.51 39.76H20.23V58.98H12.19V39.76H0L5.2 33H34.71Z" fill="#121112"/>
<path id="Vector_5" d="M45.31 58.98H37.27V33H45.31V58.98Z" fill="#121112"/>
<path id="Vector_6" d="M87.17 58.98H76.41L70.62 52.11H58.27V58.98H50.23V45.7H72.83C75.32 45.7 77.26 44.57 77.26 42.79C77.26 40.77 75.59 39.76 72.83 39.76H50.23L55.47 33H72.17C78.07 33 85.53 34.86 85.53 42.28C85.53 46.32 83.01 49.66 78.73 50.51C79.62 51.17 80.59 52.1 82.38 53.93L87.16 58.98H87.17Z" fill="#121112"/>
<path id="Vector_7" d="M120.22 52.3L115.06 58.98H90.05V33H120.14L114.94 39.76H98.13V42.87H118.71L114.09 48.77H98.13V52.3H120.22Z" fill="#121112"/>
</g>
</g>
<defs>
<clipPath id="clip0_506_6998">
<rect width="120.22" height="58.98" fill="white"/>
</clipPath>
</defs>
</svg>
