<svg width="87" height="96" viewBox="0 0 87 96" fill="none" xmlns="http://www.w3.org/2000/svg">
<g filter="url(#filter0_d_506_1061)">
<path d="M69.69 4.88H9.14004C6.95004 4.88 5.17004 6.66001 5.17004 8.85001V31.57C5.17004 33.84 7.02004 35.69 9.29004 35.69H35.66C35.29 41.79 32.8 46.71 31.14 48.19C30.05 49.16 27.77 49.09 26.34 48.89C26.08 47.25 24.66 45.98 22.94 45.98H13.93C12.03 45.98 10.48 47.53 10.48 49.43V74.98C10.48 76.88 12.03 78.43 13.93 78.43H22.94C24.39 78.43 25.63 77.52 26.14 76.25C29.52 76.27 30.2 76.98 30.79 78.02C31.94 80.06 35.53 81.57 36.23 81.86C36.38 81.92 36.54 81.95 36.71 81.95H52.27C52.35 81.95 52.44 81.95 52.52 81.93C55.47 81.35 57.25 80.15 57.79 78.39C58.25 76.88 57.67 75.38 57.02 74.3C58.68 73.6 59.73 72.56 60.15 71.2C60.75 69.22 59.78 67.18 58.91 65.87C60.78 64.84 61.85 63.53 62.1 61.96C62.42 59.98 61.33 58.21 60.4 57.1C61.84 55.91 62.55 54.61 62.51 53.21C62.42 50.46 59.39 48.77 59.04 48.58C58.85 48.48 58.65 48.43 58.44 48.43H45.21C45.06 48.43 44.94 48.43 44.86 48.41C45 48.02 45.4 47.35 45.82 46.87C45.98 46.68 46.08 46.46 46.12 46.22C46.73 42.08 46.47 37.85 46.27 35.74H47.53C48.69 35.74 49.75 36.43 50.23 37.49L52.77 43.19C52.94 43.58 53.29 43.85 53.71 43.93C53.79 43.94 53.87 43.95 53.94 43.95C54.28 43.95 54.6 43.82 54.85 43.57L61.57 36.85C62.33 36.09 63.34 35.67 64.41 35.67H69.13C71.8 35.67 73.97 33.5 73.97 30.83V9.17C73.97 6.81 72.05 4.88 69.69 4.88ZM23.84 74.98C23.84 75.46 23.43 75.87 22.95 75.87H13.94C13.46 75.87 13.05 75.46 13.05 74.98V49.43C13.05 48.95 13.46 48.54 13.94 48.54H22.95C23.43 48.54 23.84 48.95 23.84 49.43V74.98ZM45.22 51H58.1C58.76 51.42 59.93 52.35 59.96 53.3C59.98 54.05 59.21 54.95 57.78 55.83C57.43 56.05 57.21 56.42 57.18 56.83C57.15 57.24 57.32 57.64 57.63 57.91C58.25 58.44 59.82 60.12 59.58 61.56C59.37 62.8 57.77 63.68 56.45 64.2C56.05 64.36 55.76 64.7 55.67 65.11C55.58 65.52 55.69 65.96 55.98 66.27C56.56 66.9 58.13 69.01 57.69 70.46C57.36 71.54 55.83 72.11 54.6 72.39C54.15 72.5 53.79 72.84 53.66 73.28C53.53 73.73 53.66 74.21 53.98 74.54C54.55 75.13 55.64 76.66 55.34 77.65C55.11 78.41 53.97 79.03 52.15 79.4H36.98C35.57 78.8 33.54 77.66 33.04 76.78C31.82 74.61 30.07 73.76 26.41 73.7V51.5C28.2 51.71 31.05 51.73 32.86 50.12C35.39 47.87 38.12 41.55 38.28 34.87C38.28 34.81 38.28 34.76 38.28 34.7C38.28 34.64 38.28 34.55 38.28 34.43C38.29 33.99 38.39 33.21 38.82 32.73C39.15 32.37 39.65 32.19 40.36 32.19C42.74 32.19 43.43 34.19 43.58 34.73C43.58 34.74 43.58 34.75 43.58 34.76C43.58 34.78 43.58 34.8 43.59 34.81C43.66 35.35 44.3 40.54 43.64 45.51C42.97 46.35 41.79 48.15 42.46 49.61C42.75 50.25 43.47 51.01 45.23 51.01L45.22 51ZM71.41 30.85C71.41 32.11 70.39 33.13 69.13 33.13H64.41C62.6501 33.13 61 33.82 59.75 35.06L54.35 40.46L52.57 36.46C51.68 34.47 49.71 33.19 47.53 33.19H45.73C45.02 31.57 43.38 29.61 40.34 29.61C38.52 29.61 37.46 30.36 36.89 31C36.29 31.66 35.99 32.44 35.84 33.13H9.29004C8.43004 33.13 7.73004 32.43 7.73004 31.57V8.85001C7.73004 8.07001 8.36004 7.44 9.14004 7.44H69.69C70.64 7.44 71.41 8.21 71.41 9.16V30.84V30.85Z" fill="#EAAD48"/>
<path d="M27.66 16.58L22.57 15.84L20.29 11.22C20.07 10.78 19.63 10.51 19.14 10.51C18.65 10.51 18.21 10.79 17.99 11.22L15.71 15.84L10.62 16.58C10.14 16.65 9.73999 16.99 9.57999 17.45C9.42999 17.91 9.54999 18.42 9.89999 18.76L13.59 22.35L12.72 27.42C12.64 27.9 12.84 28.39 13.23 28.67C13.63 28.96 14.15 29 14.58 28.77L19.14 26.37L23.7 28.77C23.89 28.87 24.09 28.92 24.3 28.92C24.57 28.92 24.83 28.84 25.05 28.67C25.44 28.38 25.64 27.9 25.56 27.42L24.69 22.35L28.38 18.76C28.73 18.42 28.86 17.91 28.7 17.45C28.55 16.99 28.15 16.65 27.66 16.58ZM22.41 20.99C22.11 21.29 21.97 21.71 22.04 22.13L22.58 25.31L19.73 23.81C19.54 23.71 19.34 23.66 19.13 23.66C18.92 23.66 18.72 23.71 18.53 23.81L15.68 25.31L16.22 22.13C16.29 21.71 16.15 21.29 15.85 20.99L13.54 18.74L16.73 18.28C17.15 18.22 17.51 17.96 17.7 17.58L19.13 14.69L20.56 17.58C20.75 17.96 21.11 18.22 21.53 18.28L24.72 18.74L22.41 20.99Z" fill="#EAAD48"/>
<path d="M48.41 16.58L43.32 15.84L41.04 11.22C40.82 10.78 40.38 10.5 39.89 10.5C39.4 10.5 38.96 10.78 38.74 11.21L36.46 15.83L31.37 16.57C30.89 16.64 30.49 16.98 30.33 17.44C30.18 17.9 30.3 18.41 30.65 18.75L34.34 22.34L33.47 27.41C33.39 27.89 33.59 28.38 33.98 28.66C34.2 28.82 34.47 28.91 34.73 28.91C34.93 28.91 35.14 28.86 35.33 28.76L39.89 26.36L44.45 28.76C44.88 28.99 45.41 28.95 45.8 28.66C46.19 28.37 46.39 27.89 46.31 27.41L45.44 22.34L49.13 18.75C49.48 18.41 49.61 17.9 49.46 17.44C49.31 16.98 48.91 16.64 48.42 16.57L48.41 16.58ZM43.16 20.99C42.86 21.29 42.72 21.71 42.79 22.13L43.33 25.31L40.48 23.81C40.11 23.61 39.66 23.61 39.29 23.81L36.44 25.31L36.98 22.13C37.05 21.71 36.91 21.29 36.61 20.99L34.3 18.74L37.49 18.28C37.91 18.22 38.27 17.96 38.46 17.58L39.89 14.69L41.32 17.58C41.51 17.96 41.87 18.22 42.29 18.28L45.48 18.74L43.17 20.99H43.16Z" fill="#EAAD48"/>
<path d="M69.16 16.58L64.07 15.84L61.79 11.22C61.57 10.78 61.13 10.5 60.64 10.5C60.15 10.5 59.71 10.78 59.49 11.21L57.21 15.83L52.12 16.57C51.64 16.64 51.23 16.98 51.08 17.44C50.93 17.9 51.05 18.41 51.41 18.75L55.1 22.34L54.23 27.41C54.15 27.89 54.35 28.38 54.74 28.66C54.96 28.82 55.23 28.91 55.49 28.91C55.69 28.91 55.9 28.86 56.09 28.76L60.65 26.36L65.21 28.76C65.64 28.99 66.17 28.95 66.56 28.66C66.96 28.37 67.15 27.89 67.07 27.41L66.2 22.34L69.89 18.75C70.24 18.41 70.37 17.9 70.22 17.44C70.07 16.98 69.67 16.64 69.18 16.57L69.16 16.58ZM63.91 20.99C63.61 21.29 63.47 21.71 63.54 22.13L64.08 25.31L61.23 23.81C60.86 23.61 60.41 23.61 60.04 23.81L57.19 25.31L57.73 22.13C57.8 21.71 57.66 21.29 57.36 20.99L55.05 18.74L58.24 18.28C58.66 18.22 59.02 17.96 59.21 17.58L60.64 14.69L62.07 17.58C62.26 17.96 62.62 18.22 63.04 18.28L66.23 18.74L63.92 20.99H63.91Z" fill="#EAAD48"/>
</g>
<defs>
<filter id="filter0_d_506_1061" x="3.17004" y="3.88" width="80.8" height="89.07" filterUnits="userSpaceOnUse" color-interpolation-filters="sRGB">
<feFlood flood-opacity="0" result="BackgroundImageFix"/>
<feColorMatrix in="SourceAlpha" type="matrix" values="0 0 0 0 0 0 0 0 0 0 0 0 0 0 0 0 0 0 127 0" result="hardAlpha"/>
<feOffset dx="4" dy="5"/>
<feGaussianBlur stdDeviation="3"/>
<feColorMatrix type="matrix" values="0 0 0 0 0 0 0 0 0 0 0 0 0 0 0 0 0 0 0.6 0"/>
<feBlend mode="normal" in2="BackgroundImageFix" result="effect1_dropShadow_506_1061"/>
<feBlend mode="normal" in="SourceGraphic" in2="effect1_dropShadow_506_1061" result="shape"/>
</filter>
</defs>
</svg>
