<svg width="140" height="79" viewBox="0 0 140 79" fill="none" xmlns="http://www.w3.org/2000/svg">
<g filter="url(#filter0_d_506_1039)">
<path d="M115.59 17.5C114.16 15.4 111.79 14.14 109.25 14.14H92.12V13.5C92.09 10.49 90.21 4.79999 83.33 4.79999H39.99C39.79 4.83999 35.11 5.47999 32.94 9.90999C32.59 10.63 32.88 11.5 33.6 11.85C34.32 12.2 35.19 11.91 35.54 11.19C36.91 8.39999 39.77 7.78999 40.28 7.69999H83.32C88.93 7.69999 89.2 12.94 89.21 13.51V55.14H65.8C65.82 54.88 65.84 54.61 65.84 54.35C65.84 49.01 61.49 44.66 56.15 44.66C50.81 44.66 46.46 49.01 46.46 54.35C46.46 54.62 46.48 54.88 46.5 55.14H39.23L36.16 52.46C35.56 51.93 34.64 52 34.11 52.6C33.58 53.2 33.65 54.12 34.25 54.65L38.15 58.05H47.2C48.66 61.56 52.12 64.04 56.15 64.04C60.18 64.04 63.65 61.56 65.1 58.05H99.8C101.26 61.56 104.72 64.04 108.75 64.04C112.78 64.04 116.25 61.56 117.7 58.05H121.76L126.22 54.06V33.17L115.58 17.5H115.59ZM56.15 61.14C52.41 61.14 49.36 58.1 49.36 54.35C49.36 50.6 52.4 47.56 56.15 47.56C59.9 47.56 62.94 50.6 62.94 54.35C62.94 58.1 59.9 61.14 56.15 61.14ZM108.76 61.14C105.02 61.14 101.97 58.1 101.97 54.35C101.97 50.6 105.01 47.56 108.76 47.56C112.51 47.56 115.55 50.6 115.55 54.35C115.55 58.1 112.51 61.14 108.76 61.14ZM120.66 55.15H118.41C118.43 54.89 118.45 54.62 118.45 54.36C118.45 49.02 114.1 44.67 108.76 44.67C103.42 44.67 99.07 49.02 99.07 54.36C99.07 54.63 99.09 54.89 99.11 55.15H92.12V17.05H109.25C110.83 17.05 112.3 17.83 113.19 19.13L123.33 34.06V36.31H106.63V22.14C106.63 21.34 105.98 20.69 105.18 20.69C104.38 20.69 103.73 21.34 103.73 22.14V39.21H123.33V52.75L120.67 55.13L120.66 55.15Z" fill="#EAAD48"/>
<path d="M26.61 18.31C27.41 18.31 28.06 17.66 28.06 16.86C28.06 16.06 27.41 15.41 26.61 15.41H18.45C17.65 15.41 17 16.06 17 16.86C17 17.66 17.65 18.31 18.45 18.31H26.61Z" fill="#EAAD48"/>
<path d="M30.31 18.31H49.59C50.39 18.31 51.04 17.66 51.04 16.86C51.04 16.06 50.39 15.41 49.59 15.41H30.31C29.51 15.41 28.86 16.06 28.86 16.86C28.86 17.66 29.51 18.31 30.31 18.31Z" fill="#EAAD48"/>
<path d="M22.53 25.64C21.73 25.64 21.08 26.29 21.08 27.09C21.08 27.89 21.73 28.54 22.53 28.54H41.81C42.61 28.54 43.26 27.89 43.26 27.09C43.26 26.29 42.61 25.64 41.81 25.64H22.53Z" fill="#EAAD48"/>
<path d="M13.41 35.65H6.73999C5.93999 35.65 5.28999 36.3 5.28999 37.1C5.28999 37.9 5.93999 38.55 6.73999 38.55H13.41C14.21 38.55 14.86 37.9 14.86 37.1C14.86 36.3 14.21 35.65 13.41 35.65Z" fill="#EAAD48"/>
<path d="M50.45 37.1C50.45 36.3 49.8 35.65 49 35.65H18.9C18.1 35.65 17.45 36.3 17.45 37.1C17.45 37.9 18.1 38.55 18.9 38.55H49C49.8 38.55 50.45 37.9 50.45 37.1Z" fill="#EAAD48"/>
<path d="M43.48 47.33C43.48 46.53 42.83 45.88 42.03 45.88H22.53C21.73 45.88 21.08 46.53 21.08 47.33C21.08 48.13 21.73 48.78 22.53 48.78H42.03C42.83 48.78 43.48 48.13 43.48 47.33Z" fill="#EAAD48"/>
</g>
<defs>
<filter id="filter0_d_506_1039" x="3.28999" y="3.79999" width="132.93" height="71.24" filterUnits="userSpaceOnUse" color-interpolation-filters="sRGB">
<feFlood flood-opacity="0" result="BackgroundImageFix"/>
<feColorMatrix in="SourceAlpha" type="matrix" values="0 0 0 0 0 0 0 0 0 0 0 0 0 0 0 0 0 0 127 0" result="hardAlpha"/>
<feOffset dx="4" dy="5"/>
<feGaussianBlur stdDeviation="3"/>
<feColorMatrix type="matrix" values="0 0 0 0 0 0 0 0 0 0 0 0 0 0 0 0 0 0 0.6 0"/>
<feBlend mode="normal" in2="BackgroundImageFix" result="effect1_dropShadow_506_1039"/>
<feBlend mode="normal" in="SourceGraphic" in2="effect1_dropShadow_506_1039" result="shape"/>
</filter>
</defs>
</svg>
