<svg width="91" height="97" viewBox="0 0 91 97" fill="none" xmlns="http://www.w3.org/2000/svg">
<g filter="url(#filter0_d_506_1049)">
<path d="M29.32 71.89H8.59001C5.41001 71.89 2.82001 69.3 2.82001 66.12V7.50999C2.82001 4.32999 5.41001 1.73999 8.59001 1.73999H59.52C62.7 1.73999 65.29 4.32999 65.29 7.50999V33.14C65.29 34 64.59 34.7 63.73 34.7C62.87 34.7 62.17 34 62.17 33.14V7.50999C62.17 6.04999 60.98 4.86999 59.53 4.86999H8.59001C7.13001 4.86999 5.95001 6.05999 5.95001 7.50999V66.11C5.95001 67.57 7.14001 68.75 8.59001 68.75H29.31C30.17 68.75 30.87 69.45 30.87 70.31C30.87 71.17 30.17 71.87 29.31 71.87L29.32 71.89Z" fill="#EAAD48"/>
<path d="M58 80.15C47.65 80.15 39.23 71.73 39.23 61.38C39.23 51.03 47.65 42.61 58 42.61C68.35 42.61 76.77 51.03 76.77 61.38C76.77 71.73 68.35 80.15 58 80.15ZM58 45.73C49.37 45.73 42.36 52.75 42.36 61.37C42.36 69.99 49.38 77.01 58 77.01C66.62 77.01 73.64 69.99 73.64 61.37C73.64 52.75 66.62 45.73 58 45.73Z" fill="#EAAD48"/>
<path d="M79.19 85.1C78.75 85.1 78.3 84.91 77.99 84.55L69.27 74.25C68.71 73.59 68.79 72.6 69.45 72.04C70.11 71.48 71.1 71.56 71.66 72.22L80.38 82.52C80.94 83.18 80.86 84.17 80.2 84.73C79.91 84.98 79.55 85.1 79.19 85.1Z" fill="#EAAD48"/>
<path d="M56.64 68.05L49.53 61.79C48.49 60.88 48.39 59.29 49.31 58.26C50.22 57.22 51.81 57.12 52.84 58.04L56.44 61.21L63.17 54.54C64.15 53.57 65.74 53.57 66.71 54.56C67.68 55.55 67.68 57.13 66.69 58.1L56.64 68.06V68.05Z" fill="#EAAD48"/>
<path d="M17.41 23.5L13.37 18.54C12.82 17.87 12.93 16.88 13.6 16.34C14.27 15.79 15.26 15.9 15.8 16.57L17.36 18.48L21.19 13.56C21.72 12.88 22.7 12.75 23.39 13.29C24.07 13.82 24.2 14.8 23.66 15.49L17.42 23.52L17.41 23.5Z" fill="#EAAD48"/>
<path d="M21.54 38.78C21.13 38.78 20.73 38.62 20.42 38.31L14.03 31.76C13.43 31.14 13.44 30.15 14.06 29.55C14.68 28.95 15.67 28.96 16.27 29.58L22.66 36.13C23.26 36.75 23.25 37.74 22.63 38.34C22.33 38.64 21.93 38.78 21.54 38.78Z" fill="#EAAD48"/>
<path d="M15.15 38.78C14.76 38.78 14.36 38.63 14.06 38.34C13.44 37.74 13.43 36.75 14.03 36.13L20.42 29.58C21.02 28.96 22.02 28.95 22.63 29.55C23.25 30.15 23.26 31.14 22.66 31.76L16.27 38.31C15.96 38.62 15.56 38.78 15.15 38.78Z" fill="#EAAD48"/>
<path d="M48.47 35.57H29.05C27.84 35.57 26.86 34.59 26.86 33.38C26.86 32.17 27.84 31.19 29.05 31.19H48.47C49.68 31.19 50.66 32.17 50.66 33.38C50.66 34.59 49.68 35.57 48.47 35.57Z" fill="#EAAD48"/>
<path d="M48.47 20.57H29.05C27.84 20.57 26.86 19.59 26.86 18.38C26.86 17.17 27.84 16.19 29.05 16.19H48.47C49.68 16.19 50.66 17.17 50.66 18.38C50.66 19.59 49.68 20.57 48.47 20.57Z" fill="#EAAD48"/>
<path d="M34.65 50.78H29.06C27.85 50.78 26.87 49.8 26.87 48.59C26.87 47.38 27.85 46.4 29.06 46.4H34.65C35.86 46.4 36.84 47.38 36.84 48.59C36.84 49.8 35.86 50.78 34.65 50.78Z" fill="#EAAD48"/>
<path d="M18.34 52.16C20.1791 52.16 21.67 50.6691 21.67 48.83C21.67 46.9909 20.1791 45.5 18.34 45.5C16.5009 45.5 15.01 46.9909 15.01 48.83C15.01 50.6691 16.5009 52.16 18.34 52.16Z" fill="#EAAD48"/>
</g>
<defs>
<filter id="filter0_d_506_1049" x="0.820007" y="0.73999" width="89.9327" height="95.36" filterUnits="userSpaceOnUse" color-interpolation-filters="sRGB">
<feFlood flood-opacity="0" result="BackgroundImageFix"/>
<feColorMatrix in="SourceAlpha" type="matrix" values="0 0 0 0 0 0 0 0 0 0 0 0 0 0 0 0 0 0 127 0" result="hardAlpha"/>
<feOffset dx="4" dy="5"/>
<feGaussianBlur stdDeviation="3"/>
<feColorMatrix type="matrix" values="0 0 0 0 0 0 0 0 0 0 0 0 0 0 0 0 0 0 0.6 0"/>
<feBlend mode="normal" in2="BackgroundImageFix" result="effect1_dropShadow_506_1049"/>
<feBlend mode="normal" in="SourceGraphic" in2="effect1_dropShadow_506_1049" result="shape"/>
</filter>
</defs>
</svg>
