<svg width="454" height="190" viewBox="0 0 454 190" fill="none" xmlns="http://www.w3.org/2000/svg">
<g clip-path="url(#clip0_506_829)">
<path d="M451.04 2.54999H174.72V186.58H451.04V2.54999Z" fill="white"/>
<path d="M177.24 0H0V189.12H177.24V0Z" fill="#121112"/>
<path d="M172.18 0V5.09H177.27H180.53H448.5V184.03H180.53H177.27H172.18V189.12H453.59V0H172.18Z" fill="#121112"/>
<path d="M172.15 184.03H162.04H5.09V5.09H162.04H172.15H177.24V0H0V189.12H177.24V184.03H172.15Z" fill="#EAAD48"/>
<path d="M130.35 58.76C115.23 41.14 94.76 31.68 75.88 31.68C64.18 31.68 53.1 35.31 44.28 42.88C21.24 62.65 22.41 101.82 46.9 130.36C62.02 147.98 82.49 157.44 101.37 157.44C113.07 157.44 124.15 153.81 132.97 146.24C156.01 126.47 154.84 87.3 130.35 58.76ZM43.43 47.27C43.08 56.95 48.94 66.82 48.94 66.82C54.25 29.13 94.13 37.53 96.42 38.05C102.49 40.24 108.39 43.34 113.92 47.27C113.89 47.26 113.85 47.24 113.82 47.23C110.82 46.29 106.95 46.55 106.95 46.55C112.71 48.04 117.66 50.71 121.71 53.61C124.03 55.75 126.26 58.02 128.35 60.46C139.81 73.81 146.38 89.94 146.85 105.86C146.93 108.54 146.82 111.16 146.56 113.7C146.28 105.49 144.28 100.16 144.28 100.16C145.6 161.56 79.53 150.09 77.3 149.69C76.15 149.2 75.01 148.68 73.88 148.13C85.91 147.54 99.06 139.25 99.06 139.25C26.08 122.3 34.17 68.88 37.91 54.15C39.51 51.67 41.35 49.37 43.43 47.27Z" fill="#EAAD48"/>
<path d="M122.62 66.23C112.34 54.25 98.59 47.74 86.23 47.74C79.11 47.74 72.45 49.9 67.19 54.42C52.78 66.78 54.24 92.12 70.44 111C80.72 122.98 94.47 129.49 106.83 129.49C113.95 129.49 120.61 127.33 125.87 122.81C140.28 110.45 138.82 85.11 122.62 66.23ZM86.23 50.36C95.4 50.36 105.02 54.15 113.25 60.78C116.96 64.67 124.68 73.59 125.21 81.05C125.21 81.05 125.88 77.56 125.25 74.14C129.04 80.03 131.49 86.3 132.56 92.39C132.66 99.97 130.62 115.03 112.85 115.12C112.85 115.12 119.6 120.65 123.99 120.9C121.16 122.06 84.96 135.75 71.14 84.23C71.14 84.23 66.3 93.63 65.86 99.69C65.72 96.94 55.63 50.28 93.14 53.62C93.14 53.62 90.22 51.47 86.12 50.37C86.16 50.37 86.2 50.37 86.25 50.37L86.23 50.36Z" fill="white"/>
<path d="M212.51 88.23L222.85 74H236.75C240.06 74 243.95 74 246.6 74.17C245.11 72.18 242.79 68.79 240.97 66.14L231.04 51.49L205.06 88.23H184.79L220.29 38.17C222.61 34.94 226 31.96 231.38 31.96C236.76 31.96 239.9 34.69 242.3 38.17L276.89 88.23H212.51Z" fill="#EAAD48"/>
<path d="M332.25 86.16L298.32 55.71V88.23H282.76V42.3C282.76 34.94 287.23 31.96 292.11 31.96C294.18 31.96 296.25 32.46 298.98 34.94L332.91 65.39V32.87H348.55V78.71C348.55 86.07 344.08 89.14 339.12 89.14C336.97 89.14 334.9 88.64 332.25 86.16Z" fill="#EAAD48"/>
<path d="M437.92 32.87L405.07 69.94V88.23H387.86V69.86L354.1 32.87H376.11L389.35 48.26C391.09 50.25 395.72 55.29 396.88 56.95C397.96 55.38 399.86 52.98 403.83 48.18L416.41 32.87H437.92Z" fill="#EAAD48"/>
<path d="M258.76 102.29L247.67 116.69H227.89V157.65H210.76V116.69H184.78L195.87 102.29H258.76Z" fill="#121112"/>
<path d="M281.36 157.65H264.23V102.29H281.36V157.65Z" fill="#121112"/>
<path d="M370.56 157.65H347.64L335.31 143H309V157.65H291.87V129.35H340.03C345.33 129.35 349.46 126.95 349.46 123.14C349.46 118.84 345.9 116.69 340.03 116.69H291.87L303.04 102.29H338.62C351.2 102.29 367.09 106.26 367.09 122.07C367.09 130.68 361.71 137.79 352.61 139.61C354.51 141.02 356.58 143 360.39 146.89L370.57 157.65H370.56Z" fill="#121112"/>
<path d="M440.98 143.42L429.97 157.65H376.68V102.29H440.81L429.72 116.69H393.89V123.31H437.75L427.9 135.89H393.89V143.42H440.97H440.98Z" fill="#121112"/>
</g>
<defs>
<clipPath id="clip0_506_829">
<rect width="453.59" height="189.12" fill="white"/>
</clipPath>
</defs>
</svg>
