<svg width="205" height="195" viewBox="0 0 205 195" fill="none" xmlns="http://www.w3.org/2000/svg">
<path d="M36.13 194.88C34.99 194.88 31.74 194.64 29.33 192.05C27.26 189.83 26.5 186.61 27.05 182.5C28.33 173.08 30.52 160.25 30.78 158.73C30.8 158.05 30.72 153.12 25.5 147.62C19.11 140.89 6.10001 125.14 5.32001 124.19C4.44001 123.17 -3.04999 113.54 3.45001 89.25L14.57 46.17C14.66 45.91 16.9 39.72 22.24 37.92C25.36 36.86 28.73 37.5 32.25 39.81L35.93 42.27V82.47C36 82.47 36.08 82.47 36.15 82.47C44.86 82.47 47.16 87.56 47.16 90.25C47.23 94.15 47.99 100.5 49.47 102.26C52 105.26 64.15 118.66 65.47 120.11C66.87 121.31 75.94 129.63 75.94 144.38L76.79 184.19L76.76 184.39C76.24 188.02 73.42 194.88 66.46 194.88H36.39C36.32 194.88 36.23 194.88 36.12 194.88H36.13ZM36.34 189.87H66.47C70.47 189.87 71.6 184.88 71.79 183.84L70.95 144.42C70.95 131.08 62.26 123.91 62.18 123.84L61.9 123.58C61.35 122.97 48.39 108.7 45.67 105.47C42.53 101.74 42.22 92.17 42.19 90.28C42.17 90.03 41.82 87.46 36.18 87.46C34.04 87.46 32.47 87.94 31.52 88.9C30.42 90.01 30.42 91.52 30.42 91.54V91.66V91.82L29.66 100.16C28.87 107.24 29.84 110.65 30.12 111.44L43.28 128.53L39.32 131.58L25.81 114.03L25.7 113.81C25.48 113.38 23.62 109.3 24.69 99.65L25.44 91.48C25.44 90.65 25.64 87.81 27.9 85.46C28.76 84.57 29.78 83.88 30.98 83.38V44.92L29.54 43.96C27.38 42.55 25.48 42.1 23.88 42.64C21.42 43.47 19.79 46.57 19.36 47.73L8.33001 90.51C2.38001 112.74 9.07001 120.82 9.14001 120.9C9.34001 121.14 22.84 137.49 29.17 144.16C36.33 151.69 35.83 158.89 35.81 159.19L35.78 159.41C35.76 159.55 33.39 173.27 32.05 183.15C31.81 184.89 31.79 187.25 33.01 188.59C34.21 189.91 36.23 189.84 36.25 189.84H36.38L36.34 189.87Z" fill="#EAAD48"/>
<path d="M169.51 194.88C169.4 194.88 169.3 194.88 169.24 194.88H139.17C132.21 194.88 129.39 188.02 128.87 184.39L128.84 184.19V183.99L129.7 144.33C129.7 129.62 138.76 121.31 140.16 120.11C141.47 118.66 153.62 105.27 156.15 102.26C157.62 100.52 158.39 94.0399 158.46 90.2099C158.46 87.5599 160.76 82.4699 169.47 82.4699C169.55 82.4699 169.62 82.4699 169.69 82.4699V42.2699L173.36 39.8299C176.9 37.5099 180.26 36.8799 183.39 37.9299C188.73 39.7299 190.97 45.9199 191.06 46.1799L191.12 46.3899L202.18 89.2799C208.67 113.54 201.18 123.18 200.31 124.2C199.53 125.15 186.52 140.9 180.13 147.63C174.94 153.09 174.84 158.08 174.85 158.74C175.11 160.27 177.31 173.1 178.58 182.51C179.14 186.62 178.37 189.84 176.3 192.06C173.9 194.64 170.64 194.89 169.51 194.89V194.88ZM169.45 189.88C169.45 189.88 171.47 189.94 172.67 188.62C173.89 187.28 173.86 184.92 173.63 183.17C172.29 173.29 169.92 159.57 169.9 159.43L169.87 159.21C169.85 158.91 169.35 151.71 176.51 144.18C182.84 137.51 196.34 121.16 196.48 120.99L196.57 120.89C196.57 120.89 203.3 112.75 197.36 90.5499L186.32 47.7599C185.86 46.5399 184.24 43.4799 181.78 42.6599C180.19 42.1299 178.29 42.5799 176.12 43.9999L174.7 44.9499V83.4099C175.89 83.9099 176.92 84.5999 177.78 85.4899C180.04 87.8399 180.23 90.6799 180.24 91.5099L180.99 99.7299C182.06 109.33 180.19 113.41 179.98 113.84L179.72 114.25L166.35 131.61L162.39 128.56L175.56 111.46C175.81 110.74 176.81 107.34 176.02 100.23L175.24 91.6799V91.5199C175.24 91.5199 175.23 90.0199 174.14 88.9199C173.19 87.9599 171.62 87.4799 169.48 87.4799C163.84 87.4799 163.49 90.0399 163.47 90.3399C163.44 92.1799 163.13 101.76 159.99 105.49C157.27 108.72 144.31 123 143.76 123.6L143.48 123.86C143.13 124.15 134.71 131.2 134.71 144.38L133.86 183.86C134.05 184.88 135.18 189.89 139.18 189.89H169.39H169.47L169.45 189.88Z" fill="#EAAD48"/>
<path d="M35.95 23.4399H30.95V43.6099H35.95V23.4399Z" fill="#EAAD48"/>
<path d="M174.69 23.4399H169.69V43.6099H174.69V23.4399Z" fill="#EAAD48"/>
<path d="M154.57 105.34H51.07V110.34H154.57V105.34Z" fill="#EAAD48"/>
<path d="M119.91 53.6399H85.74C79.75 53.6399 74.88 48.7699 74.88 42.7799C74.88 36.7899 79.75 31.9199 85.74 31.9199H119.91C125.9 31.9199 130.77 36.7899 130.77 42.7799C130.77 48.7699 125.9 53.6399 119.91 53.6399ZM85.74 36.9199C82.51 36.9199 79.88 39.5499 79.88 42.7799C79.88 46.0099 82.51 48.6399 85.74 48.6399H119.91C123.14 48.6399 125.77 46.0099 125.77 42.7799C125.77 39.5499 123.14 36.9199 119.91 36.9199H85.74Z" fill="#EAAD48"/>
<path d="M44.17 173.87C30.73 173.87 30.17 173.31 29.55 172.69L33.09 169.16C32.62 168.69 32.13 168.58 32.11 168.58C34.36 169.05 55.36 168.85 73.97 168.43L74.09 173.43C60.15 173.75 50.67 173.88 44.18 173.88L44.17 173.87Z" fill="#EAAD48"/>
<path d="M146.07 173.87C132.63 173.87 132.07 173.31 131.45 172.69L134.99 169.16C134.52 168.69 134.03 168.58 134.01 168.58C136.26 169.05 157.26 168.85 175.87 168.43L175.99 173.43C162.05 173.75 152.57 173.88 146.08 173.88L146.07 173.87Z" fill="#EAAD48"/>
<path d="M54.7 98.2399C56.7048 98.2399 58.33 95.3074 58.33 91.6899C58.33 88.0724 56.7048 85.1399 54.7 85.1399C52.6952 85.1399 51.07 88.0724 51.07 91.6899C51.07 95.3074 52.6952 98.2399 54.7 98.2399Z" fill="#EAAD48"/>
<path d="M70.68 98.2399C72.6848 98.2399 74.31 95.3074 74.31 91.6899C74.31 88.0724 72.6848 85.1399 70.68 85.1399C68.6752 85.1399 67.05 88.0724 67.05 91.6899C67.05 95.3074 68.6752 98.2399 70.68 98.2399Z" fill="#EAAD48"/>
<path d="M86.65 98.2399C88.6548 98.2399 90.28 95.3074 90.28 91.6899C90.28 88.0724 88.6548 85.1399 86.65 85.1399C84.6452 85.1399 83.02 88.0724 83.02 91.6899C83.02 95.3074 84.6452 98.2399 86.65 98.2399Z" fill="#EAAD48"/>
<path d="M102.63 98.2399C104.635 98.2399 106.26 95.3074 106.26 91.6899C106.26 88.0724 104.635 85.1399 102.63 85.1399C100.625 85.1399 99 88.0724 99 91.6899C99 95.3074 100.625 98.2399 102.63 98.2399Z" fill="#EAAD48"/>
<path d="M118.6 98.2399C120.605 98.2399 122.23 95.3074 122.23 91.6899C122.23 88.0724 120.605 85.1399 118.6 85.1399C116.595 85.1399 114.97 88.0724 114.97 91.6899C114.97 95.3074 116.595 98.2399 118.6 98.2399Z" fill="#EAAD48"/>
<path d="M134.58 98.2399C136.585 98.2399 138.21 95.3074 138.21 91.6899C138.21 88.0724 136.585 85.1399 134.58 85.1399C132.575 85.1399 130.95 88.0724 130.95 91.6899C130.95 95.3074 132.575 98.2399 134.58 98.2399Z" fill="#EAAD48"/>
<path d="M150.55 98.2399C152.555 98.2399 154.18 95.3074 154.18 91.6899C154.18 88.0724 152.555 85.1399 150.55 85.1399C148.545 85.1399 146.92 88.0724 146.92 91.6899C146.92 95.3074 148.545 98.2399 150.55 98.2399Z" fill="#EAAD48"/>
<path d="M173.04 0H32.61C27.92 0 24.11 3.81 24.11 8.5V17.44C24.11 22.13 27.92 25.94 32.61 25.94H110.3C111.68 25.94 112.8 24.82 112.8 23.44C112.8 22.06 111.68 20.94 110.3 20.94H32.61C30.68 20.94 29.11 19.37 29.11 17.44V8.5C29.11 6.57 30.68 5 32.61 5H173.03C174.96 5 176.53 6.57 176.53 8.5V17.44C176.53 19.37 174.96 20.94 173.03 20.94H162.02C160.64 20.94 159.52 22.06 159.52 23.44C159.52 24.82 160.64 25.94 162.02 25.94H173.03C177.72 25.94 181.53 22.13 181.53 17.44V8.5C181.53 3.81 177.72 0 173.03 0L173.04 0Z" fill="#EAAD48"/>
<path d="M149.58 20.9399H123.56C122.179 20.9399 121.06 22.0592 121.06 23.4399C121.06 24.8207 122.179 25.9399 123.56 25.9399H149.58C150.961 25.9399 152.08 24.8207 152.08 23.4399C152.08 22.0592 150.961 20.9399 149.58 20.9399Z" fill="#EAAD48"/>
</svg>
