<svg width="208" height="208" viewBox="0 0 208 208" fill="none" xmlns="http://www.w3.org/2000/svg">
<path d="M122.26 97.2395C120.92 97.2395 119.62 96.5295 118.93 95.2695C117.92 93.4295 118.59 91.1195 120.43 90.1095L201.32 45.6295C203.16 44.6195 205.47 45.2895 206.48 47.1295C207.49 48.9695 206.82 51.2795 204.98 52.2895L124.09 96.7695C123.51 97.0895 122.88 97.2395 122.26 97.2395Z" fill="#EAAD48"/>
<path d="M122.25 186.1C121.63 186.1 121 185.95 120.41 185.62L99.41 173.99C97.57 172.97 96.91 170.66 97.93 168.82C98.95 166.98 101.26 166.32 103.1 167.34L124.1 178.97C125.94 179.99 126.6 182.3 125.58 184.14C124.89 185.39 123.59 186.1 122.25 186.1Z" fill="#EAAD48"/>
<path d="M155.11 106.61C154.43 106.61 153.76 106.43 153.16 106.07C152.05 105.41 151.36 104.23 151.31 102.94L150.49 78.1198L73.55 34.5098C71.72 33.4798 71.08 31.1598 72.12 29.3298C73.15 27.4998 75.47 26.8598 77.3 27.8998L156.09 72.5698C157.24 73.2198 157.97 74.4298 158.01 75.7498L158.71 96.7999L170.26 91.0898V67.1998L92.16 24.1398C90.32 23.1298 89.65 20.8198 90.67 18.9798C91.68 17.1398 93.99 16.4698 95.83 17.4898L175.9 61.6298C177.11 62.2998 177.87 63.5698 177.87 64.9598V93.4498C177.87 94.8998 177.05 96.2198 175.75 96.8598L156.79 106.23C156.26 106.49 155.68 106.62 155.11 106.62V106.61Z" fill="#EAAD48"/>
<path d="M53.86 207.86C24.16 207.86 0 183.7 0 154C0 124.3 24.16 100.14 53.86 100.14C83.56 100.14 107.72 124.3 107.72 154C107.72 183.7 83.56 207.86 53.86 207.86ZM53.86 109.63C29.4 109.63 9.5 129.53 9.5 153.99C9.5 178.45 29.4 198.35 53.86 198.35C78.32 198.35 98.22 178.45 98.22 153.99C98.22 129.53 78.32 109.63 53.86 109.63Z" fill="#EAAD48"/>
<path d="M199.34 113.78V135.66C199.34 135.66 199.34 135.69 199.32 135.69L126.11 175.85C126.11 175.85 126.05 175.85 126.05 175.82V93.4396C126.05 92.0396 125.28 90.7497 124.04 90.0897L49.35 50.2097C49.35 50.2097 49.32 50.1597 49.35 50.1397L123 8.93964C123 8.93964 123.03 8.93964 123.04 8.93964L199.33 51.1896C199.33 51.1896 199.35 51.2097 199.35 51.2197V81.8897C199.35 81.8897 199.35 81.8997 199.35 81.9097C199.5 82.0797 203.4 86.4897 206.94 81.9097C206.94 81.9097 206.94 81.8897 206.94 81.8797V48.9496C206.94 47.5696 206.19 46.2997 204.98 45.6297L124.84 1.24969C123.69 0.609695 122.29 0.619695 121.14 1.24969L39.54 46.8897C38.91 47.2297 38.37 47.7497 38.01 48.4197C37.7 48.9997 37.57 49.6297 37.58 50.2497V102.11C37.58 104.11 39.04 105.92 41.04 106.09C43.29 106.29 45.18 104.52 45.18 102.3V56.5696C45.18 56.5696 45.21 56.5197 45.24 56.5397L118.45 95.6297C118.45 95.6297 118.47 95.6497 118.47 95.6597V182.14C118.47 182.9 118.65 183.68 119.08 184.31C119.86 185.45 121.06 186.02 122.27 186.02C122.9 186.02 123.53 185.86 124.1 185.55L204.99 141.17C206.21 140.5 206.96 139.23 206.96 137.84V113.69C206.96 113.69 206.96 113.68 206.96 113.67C206.83 113.5 203.44 109.08 199.37 113.67C199.37 113.67 199.36 113.69 199.36 113.7L199.34 113.78Z" fill="#EAAD48"/>
<path d="M203.2 101.09C205.326 101.09 207.05 99.3659 207.05 97.2396C207.05 95.1133 205.326 93.3896 203.2 93.3896C201.074 93.3896 199.35 95.1133 199.35 97.2396C199.35 99.3659 201.074 101.09 203.2 101.09Z" fill="#EAAD48"/>
<path d="M37.41 147.37C38.78 148.83 39.67 149.72 40.49 150.67C42.23 152.7 42.22 155.38 40.51 157.18C38.76 159.02 36.05 159.22 34.05 157.33C30.21 153.68 26.45 149.94 22.79 146.11C20.61 143.83 20.65 141.46 22.83 139.19C26.36 135.51 29.98 131.91 33.65 128.37C35.8 126.3 38.49 126.27 40.36 128.06C42.32 129.93 42.3 132.76 40.19 135C39.44 135.79 38.44 136.34 37.56 136.99C37.71 137.32 37.86 137.65 38.01 137.97C39.03 137.97 40.05 137.97 41.07 137.97C49.07 137.99 57.07 137.92 65.07 138.04C76.81 138.22 86.27 147.42 86.54 158.78C86.82 170.6 78.18 180.25 66.3 180.99C60.52 181.35 54.7 181.18 48.9 181.1C45.77 181.06 43.84 179.05 43.9 176.29C43.96 173.55 45.9 171.83 49.16 171.8C54.06 171.75 58.96 171.82 63.86 171.78C71.62 171.71 77.08 166.67 77.09 159.65C77.09 152.35 71.72 147.38 63.76 147.36C55.26 147.34 46.76 147.36 37.41 147.36V147.37Z" fill="#EAAD48"/>
</svg>
