<svg width="205" height="247" viewBox="0 0 205 247" fill="none" xmlns="http://www.w3.org/2000/svg">
<path d="M77.84 75.8298C61.07 75.8298 44.3 75.8298 27.52 75.8298C26.88 75.8298 26.24 75.8598 25.6 75.8098C23.54 75.6598 22.09 74.2198 22.04 72.3198C21.99 70.4198 23.36 68.8498 25.44 68.6898C27.27 68.5498 29.11 68.6198 30.95 68.6198C63.46 68.6198 95.96 68.6298 128.47 68.6398C128.95 68.6398 129.43 68.6098 129.91 68.6598C132 68.8498 133.44 70.2798 133.47 72.1598C133.51 74.1698 132.04 75.7398 129.82 75.7898C125.99 75.8698 122.15 75.8198 118.32 75.8198C104.82 75.8198 91.33 75.8198 77.83 75.8198L77.84 75.8298Z" fill="#EAAD48"/>
<path d="M64.41 221.73C51.96 221.73 39.5 221.73 27.05 221.73C26.49 221.73 25.93 221.71 25.38 221.64C23.34 221.4 22.2 220.21 22.06 218.19C21.93 216.34 23.42 214.67 25.47 214.58C28.82 214.44 32.17 214.5 35.53 214.51C57.64 214.51 79.76 214.53 101.87 214.55C102.51 214.55 103.15 214.55 103.78 214.65C105.71 214.94 106.79 216.11 106.82 218.04C106.85 219.96 105.81 221.24 103.92 221.58C102.76 221.79 101.54 221.75 100.34 221.75C88.36 221.76 76.39 221.75 64.41 221.75C64.41 221.75 64.41 221.74 64.41 221.73Z" fill="#EAAD48"/>
<path d="M64.43 200.85C51.81 200.85 39.19 200.85 26.58 200.85C23.74 200.85 22.09 199.55 22.05 197.37C22.01 195.1 23.74 193.67 26.64 193.67C51.88 193.67 77.11 193.67 102.35 193.69C105.23 193.69 106.82 194.95 106.86 197.18C106.9 199.51 105.24 200.87 102.3 200.87C89.68 200.87 77.06 200.87 64.45 200.87V200.85H64.43Z" fill="#EAAD48"/>
<path d="M60.59 89.5299C71.76 89.5299 82.94 89.5299 94.11 89.5299C94.83 89.5299 95.55 89.5198 96.26 89.6098C98.21 89.8498 99.3 91.0599 99.39 92.9499C99.48 94.8499 98.47 96.1598 96.56 96.5398C95.63 96.7298 94.66 96.7198 93.7 96.7198C71.51 96.7198 49.32 96.7099 27.13 96.6999C26.65 96.6999 26.17 96.7198 25.69 96.6798C23.47 96.4698 22 94.9799 22.05 93.0099C22.1 91.0199 23.57 89.5999 25.86 89.5799C31.85 89.5199 37.83 89.5399 43.82 89.5299C49.41 89.5299 54.99 89.5299 60.58 89.5299H60.59Z" fill="#EAAD48"/>
<path d="M61.08 172.88C72.33 172.88 83.59 172.9 94.84 172.86C96.94 172.86 98.69 173.27 99.28 175.57C99.88 177.9 98.31 179.89 95.59 179.98C91.52 180.11 87.45 180.05 83.38 180.05C64.7 180.05 46.03 180.03 27.35 180.02C26.79 180.02 26.23 180.04 25.67 179.99C23.4 179.77 21.97 178.32 22.05 176.33C22.12 174.36 23.61 172.9 25.88 172.88C33.7 172.83 41.52 172.86 49.35 172.86C53.26 172.86 57.17 172.86 61.08 172.86C61.08 172.86 61.08 172.86 61.08 172.87V172.88Z" fill="#EAAD48"/>
<path d="M53.62 159.17C44.53 159.17 35.44 159.18 26.34 159.17C23.6 159.17 21.95 157.7 22.05 155.47C22.14 153.35 23.75 152 26.37 151.99C35.38 151.96 44.39 151.97 53.41 151.97C62.5 151.97 71.59 151.99 80.69 151.95C82.7 151.95 84.38 152.43 85.14 154.43C86.08 156.88 84.14 159.16 81.14 159.17C71.97 159.2 62.8 159.17 53.63 159.17V159.15L53.62 159.17Z" fill="#EAAD48"/>
<path d="M53.66 117.5C44.57 117.5 35.48 117.48 26.38 117.51C24.42 117.51 22.92 116.93 22.24 114.99C21.38 112.51 23.25 110.34 26.34 110.32C35.35 110.28 44.37 110.29 53.38 110.29C62.47 110.29 71.56 110.31 80.66 110.28C82.54 110.28 84.18 110.63 85.03 112.51C86.16 115.03 84.29 117.49 81.17 117.5C73.03 117.53 64.9 117.5 56.76 117.5C55.72 117.5 54.69 117.5 53.65 117.5H53.66Z" fill="#EAAD48"/>
<path d="M53.62 131.18C62.55 131.18 71.48 131.13 80.41 131.24C81.74 131.26 83.36 131.64 84.28 132.48C85.01 133.14 85.46 135.06 85.01 135.86C84.38 136.98 82.89 138.11 81.63 138.29C78.97 138.66 76.22 138.43 73.51 138.43C58.12 138.43 42.73 138.41 27.34 138.4C26.78 138.4 26.22 138.42 25.67 138.36C23.41 138.12 21.99 136.67 22.05 134.69C22.1 132.73 23.59 131.28 25.86 131.25C31.44 131.18 37.02 131.2 42.6 131.19C46.27 131.19 49.94 131.19 53.6 131.19L53.62 131.18Z" fill="#EAAD48"/>
<path d="M182.84 130.17C182.25 147.25 170.1 160.23 154.3 161.5C138.8 162.75 124.58 152.01 121.46 136.67C120.34 131.14 120.77 125.72 122.6 120.4C123.54 117.66 125.21 116.53 127.32 117.19C129.54 117.89 130.3 119.86 129.42 122.67C125.57 135.02 130.71 146.97 142.14 152.28C150.59 156.2 161.05 154.47 167.99 148.02C175.04 141.47 177.48 131.22 174.11 122.34C170.69 113.3 162.32 107.25 152.97 106.88C148.2 106.69 143.81 107.8 139.69 110.14C137.23 111.54 135.17 111.23 134.04 109.37C132.85 107.41 133.58 105.33 136.17 103.89C146.56 98.1099 157.14 97.9099 167.39 103.88C177.64 109.85 182.61 119.2 182.85 130.17H182.84Z" fill="#EAAD48"/>
<path d="M198.33 111.99C199.02 105.9 196.23 101.63 190.65 99.3299C187.03 97.8399 184.59 95.4299 183.11 91.8199C180.71 85.9899 176.17 83.0199 170.03 84.1599C164.15 85.2499 160.43 81.5199 156.03 79.2199C155.55 78.9699 155.43 77.6899 155.43 76.8899C155.4 65.9499 155.45 55.0099 155.41 44.0699C155.39 38.2499 152.16 34.0799 146.86 32.8999C145.86 32.6799 144.8 32.6599 143.77 32.6499C135.7 32.6299 127.64 32.6299 119.57 32.6199C118.79 32.6199 118.01 32.6199 116.92 32.6199C116.92 30.5899 116.96 28.9099 116.92 27.2399C116.8 23.3199 114.14 20.7099 110.18 20.6699C105.48 20.6299 100.78 20.6599 95.84 20.6599C95.64 10.9899 91.36 4.37989 81.67 1.35989C77.21 -0.00011307 73.56 1.1499 73.01 1.3399C64.27 4.5599 59.9 10.9399 59.79 20.6699C55.28 20.6699 50.84 20.6699 46.39 20.6699C41.04 20.6699 38.71 23.0199 38.67 28.4099C38.67 29.7399 38.67 31.0799 38.67 32.6299C32.3 32.6299 26.25 32.6299 20.2 32.6299C17.33 32.6299 14.45 32.6199 11.58 32.6299C4.69 32.6699 0.159999 37.0999 0.119999 44.0199C0.0499989 56.4699 0.0799989 68.9299 0.0799989 81.3799C0.0799989 123.21 0.0799989 165.04 0.0799989 206.87C0.0799989 215.89 0.0799989 224.91 0.0799989 233.93C0.0799989 238.28 0.979999 241.05 3.59 243.33C5.89 245.34 8.89 246.35 11.94 246.35L37.71 246.28C38.19 246.28 38.87 246 39.22 245.66C40.47 244.45 41.1 243.08 40.34 241.36C39.59 239.67 38.18 239.16 36.45 239.16C28.39 239.16 20.32 239.16 12.26 239.15C8.44 239.15 7.3 238.01 7.3 234.11C7.3 188.04 7.3 141.96 7.3 95.8899C7.3 78.9599 7.3 62.0299 7.3 45.1099C7.3 40.8699 8.36 39.8299 12.5 39.8299C21.11 39.8299 29.73 39.8299 38.65 39.8299C38.65 41.6799 38.62 43.1799 38.65 44.6899C38.76 49.2699 41.26 51.7799 45.85 51.7899C60.54 51.8199 75.24 51.7899 89.93 51.7899C96.4 51.7899 102.87 51.8099 109.33 51.7899C114.48 51.7699 116.91 49.2899 116.94 44.1099C116.94 42.7699 116.94 41.4299 116.94 39.8299H123.75C130.3 39.8299 136.85 39.8299 143.39 39.8299C147.01 39.8299 148.18 40.9299 148.19 44.4899C148.22 55.4299 148.19 66.3699 148.25 77.3099C148.25 78.5999 147.95 79.4299 146.66 79.8299C146.11 79.9999 145.61 80.2899 145.17 80.6599C141.47 83.7999 137.27 84.6199 132.47 84.0799C127.3 83.4899 123.21 85.8699 121.18 90.7199C119.41 94.9399 115.94 98.1999 111.75 100.03C107.25 102 105.09 105.78 105.32 110.79C105.36 111.75 105.27 112.72 105.4 113.66C105.85 116.85 105.01 119.63 103.04 122.15C98.58 127.85 98.73 133.58 103.15 139.22C105.03 141.62 105.76 144.26 105.43 147.27C105.3 148.46 105.37 149.66 105.33 150.86C105.18 155.19 107.13 158.36 110.72 160.61C111.53 161.12 112.36 161.63 113.24 161.97C116.71 163.31 119 165.72 120.46 169.16C121.85 172.45 123.93 175.22 127.51 176.6C128.08 176.82 128.55 178.08 128.56 178.86C128.62 190.2 128.59 201.54 128.59 212.88C128.59 213.25 128.57 213.61 128.55 213.98C128.16 221.01 134.2 223.48 139.18 220.24C141.88 218.48 144.94 217.27 148.23 215.62C148.23 221.18 148.25 226.34 148.23 231.51C148.2 239.12 148.19 239.17 140.66 239.17C112.23 239.19 83.81 239.19 55.38 239.17C53.49 239.17 51.6 239.11 50.59 241.08C50.08 242.07 50.03 242.98 50.34 243.84C50.87 245.35 52.39 246.29 53.99 246.29H143.98C146.33 246.29 148.63 245.63 150.62 244.38C151.56 243.79 152.43 243.08 153.14 242.21C154.77 240.2 155.47 237.75 155.45 234.97C155.42 228.67 155.45 222.37 155.45 215.77C156.24 216.07 156.8 216.24 157.32 216.5C160.03 217.86 162.71 219.28 165.43 220.61C170.69 223.18 175.01 220.57 175.03 214.75C175.07 202.93 175.08 191.11 175.03 179.29C175.03 177.7 175.25 176.73 177.02 176.11C179.98 175.07 181.79 172.56 182.9 169.8C184.5 165.84 187.19 163.3 191.07 161.62C196.33 159.35 198.98 155.23 198.35 149.43C197.87 145.01 198.8 141.21 201.52 137.57C204.89 133.07 204.94 128.11 201.52 123.58C198.86 120.05 197.85 116.34 198.34 111.97L198.33 111.99ZM109.61 44.4799H46V27.8599C48.05 27.8599 50.16 27.8599 52.28 27.8599C55.79 27.8599 59.3 27.8899 62.82 27.8599C65.71 27.8299 67.02 26.4999 67.07 23.5899C67.1 22.1499 67.05 20.7199 67.07 19.2799C67.15 13.1799 71.63 8.37989 77.39 8.20989C83.31 8.02989 88.11 12.5499 88.5 18.7399C88.6 20.4099 88.48 22.0899 88.53 23.7699C88.6 26.5499 89.89 27.8399 92.68 27.8599C98.26 27.8899 103.83 27.8699 109.62 27.8699V44.4899L109.61 44.4799ZM167.69 213.59C166.76 213.16 166.01 212.84 165.28 212.47C162.01 210.82 158.72 209.21 155.49 207.48C153.18 206.24 150.41 206.24 148.11 207.49C144.23 209.6 140.27 211.53 136.02 213.7V176.44C138.06 177.11 140.21 177.27 141.61 178.38C148.5 183.86 155.13 183.87 162.02 178.38C163.39 177.29 165.46 177.08 167.69 176.3V213.58V213.59ZM195.2 134.17C191.58 138.58 190.38 143.63 191.16 149.19C191.59 152.24 190.4 154.23 187.59 155.35C182.55 157.36 178.53 161.34 176.57 166.41C175.5 169.18 173.47 170.35 170.57 169.91C164.88 169.04 159.82 170.42 155.34 174.02C153.04 175.87 150.69 175.92 148.38 174.05C143.83 170.38 138.67 169.04 132.92 169.92C129.92 170.38 128.11 168.95 126.99 166.27C125.16 161.87 122.54 158.1 117.89 156.3C113.71 154.69 111.21 152.23 112.17 149.37C113.25 142.75 111.67 138.8 109.06 135.05C106.1 130.79 106.07 130.29 109.06 126.14C111.98 122.1 113.26 117.72 112.51 112.84C111.93 109.05 113.41 106.8 116.76 105.42C121.17 103.59 124.64 100.04 126.65 95.6999C128.79 91.0799 129.36 90.8399 134.37 91.3399C138.94 91.7999 143.18 91.0599 146.76 88.1199C150.18 85.3099 153.33 85.2099 156.81 88.0599C160.45 91.0399 164.73 91.8599 169.42 91.3199C174.18 90.7699 174.88 91.1299 176.86 95.4699C179.03 100.22 182.3 103.68 187.16 105.57C190.27 106.78 191.7 108.88 191.17 112.24C190.31 117.76 191.75 122.68 195.22 127.01C197.16 129.43 197.12 131.84 195.2 134.18V134.17Z" fill="#EAAD48"/>
</svg>
