<svg width="205" height="229" viewBox="0 0 205 229" fill="none" xmlns="http://www.w3.org/2000/svg">
<path d="M81.24 42.98C83.34 42.98 85.2 42.9201 87.04 42.9901C89.98 43.1001 91.81 44.92 91.76 47.54C91.71 50.21 89.91 51.8701 86.9 51.9001C83.03 51.9501 79.15 51.9001 75.28 51.9301C72.29 51.9501 70.57 53.43 70.61 55.85C70.64 58.27 72.34 59.6801 75.35 59.7401C76.84 59.7701 78.33 59.69 79.82 59.8C85.84 60.23 90.81 64.72 91.66 70.44C92.66 77.11 89.45 82.94 83.4 85.1C81.86 85.65 81.16 86.2401 81.19 88.0201C81.24 91.1401 79.38 93.06 76.73 93.08C74.06 93.1 72.42 91.2501 72.26 88.0401C72.23 87.4601 72.18 86.8701 72.12 85.9301C70.23 85.9301 68.4 85.9601 66.58 85.9301C63.54 85.8701 61.72 84.24 61.67 81.6C61.61 78.88 63.51 77.0601 66.59 77.0101C70.54 76.9501 74.49 77.01 78.44 76.97C81.36 76.94 82.86 75.4701 82.84 72.8101C82.82 70.2501 81.38 68.8601 78.57 68.7401C76.86 68.6701 75.14 68.73 73.43 68.59C67.43 68.09 62.54 63.5401 61.74 57.7701C60.88 51.5301 64.33 45.7501 70.35 43.7801C71.98 43.2501 72.33 42.5001 72.31 40.9501C72.27 37.8401 74.09 35.8401 76.69 35.8301C79.28 35.8301 81.11 37.8301 81.25 40.8701C81.28 41.4601 81.25 42.05 81.25 42.97L81.24 42.98Z" fill="#EAAD48"/>
<path d="M103.68 139.1C91.46 139.1 79.24 139.1 67.02 139.1C64.09 139.1 62.24 137.88 61.73 135.63C61.03 132.6 63.25 130.14 66.77 130.14C76.16 130.12 85.55 130.14 94.94 130.14C109.84 130.14 124.74 130.14 139.65 130.14C140.1 130.14 140.54 130.14 140.99 130.14C143.89 130.23 145.81 132 145.81 134.6C145.81 137.21 143.9 139.07 141.02 139.09C134.76 139.13 128.5 139.1 122.24 139.1C116.06 139.1 109.87 139.1 103.69 139.1H103.68Z" fill="#EAAD48"/>
<path d="M103.48 115.44C91.19 115.44 78.9 115.43 66.61 115.45C64.67 115.45 62.83 114.941 62.23 113.061C61.8 111.731 61.87 109.941 62.42 108.651C63.23 106.741 65.24 106.48 67.2 106.48C78.15 106.49 89.1 106.48 100.05 106.48C113.46 106.48 126.87 106.48 140.28 106.5C143.53 106.5 145.39 107.821 145.75 110.291C146.18 113.201 144.22 115.401 141.04 115.421C132.4 115.461 123.76 115.45 115.12 115.45C111.25 115.45 107.37 115.45 103.5 115.45C103.5 115.45 103.5 115.441 103.5 115.431L103.48 115.44Z" fill="#EAAD48"/>
<path d="M126.05 35.7301C130.88 35.7301 135.72 35.7101 140.55 35.7301C143.84 35.7501 145.79 37.4401 145.79 40.1901C145.79 42.9301 143.79 44.6901 140.55 44.6901C130.73 44.7101 120.91 44.7201 111.09 44.6901C108.26 44.6901 106.32 43.0401 106.04 40.6401C105.8 38.6001 107.26 36.4301 109.33 35.9201C110.11 35.7301 110.95 35.7401 111.77 35.7401C116.53 35.7201 121.29 35.7401 126.05 35.7401V35.7301Z" fill="#EAAD48"/>
<path d="M126.01 59.3802C131.14 59.3802 136.28 59.2702 141.4 59.4202C145.08 59.5202 147.18 63.5002 144.97 66.2402C144.12 67.3002 142.37 68.1802 141.02 68.2002C130.91 68.3602 120.79 68.3202 110.68 68.2702C107.94 68.2502 106.06 66.3202 106.04 63.8402C106.02 61.2902 107.96 59.4102 110.85 59.3802C115.91 59.3302 120.96 59.3602 126.02 59.3602C126.02 59.3602 126.02 59.3802 126.02 59.3902L126.01 59.3802Z" fill="#EAAD48"/>
<path d="M126.07 91.8705C121.16 91.8705 116.25 91.9005 111.35 91.8705C108.09 91.8405 106.03 90.0906 106.02 87.4306C106.01 84.8006 108.09 82.9205 111.31 82.9105C121.13 82.8605 130.94 82.8605 140.76 82.9105C143.86 82.9305 145.8 84.7605 145.81 87.3905C145.81 90.1305 143.86 91.8405 140.58 91.8705C135.75 91.9005 130.91 91.8705 126.08 91.8705H126.07Z" fill="#EAAD48"/>
<path d="M172.68 96.1102C175.13 96.1702 177.04 98.1002 177.03 100.52C177.03 103 174.92 105.07 172.47 105C170.11 104.93 168.1 102.88 168.1 100.54C168.1 98.0403 170.15 96.0502 172.67 96.1102H172.68Z" fill="#EAAD48"/>
<path d="M182.43 177.18C180.69 177.76 178.98 178.42 177.06 179.12C177.06 178.39 177.06 177.95 177.06 177.51C177.06 165.29 177.06 153.07 177.06 140.85C177.06 134.14 177.1 127.44 177.05 120.73C177.03 117.99 175.16 116.14 172.62 116.13C170.06 116.12 168.24 117.94 168.11 120.67C168.08 121.19 168.11 121.71 168.11 122.23C168.11 141.68 168.09 161.13 168.15 180.57C168.15 182.1 167.7 182.8 166.27 183.3C162.41 184.65 158.63 186.25 154.76 187.57C149.63 189.32 144.52 191.25 139.26 192.43C136.08 193.14 132.6 192.56 129.07 192.56C129.35 192.06 129.44 191.86 129.58 191.69C137.51 181.42 132.31 166.43 119.47 163.49C110.05 161.33 100.78 158.53 91.4 156.18C86.88 155.05 82.29 153.73 77.69 153.5C69.07 153.07 60.41 153.38 51.77 153.37C51.13 153.37 50.49 153.28 49.92 153.23C49.82 152.9 49.75 152.76 49.75 152.62C49.73 150.31 49.71 148 49.7 145.69C49.67 142.17 48 140.49 44.5 140.47C41.75 140.46 39.01 140.47 36.11 140.47V37.1702C37 37.1702 37.73 37.1702 38.46 37.1702C45.02 37.1702 51.57 37.1802 58.13 37.1702C63.11 37.1502 64.38 35.8702 64.38 30.9802C64.38 24.5002 64.38 18.0103 64.38 11.5303V9.15027H168.11C168.11 10.0603 168.11 10.8002 168.11 11.5402C168.11 34.1902 168.11 56.8402 168.11 79.4902C168.11 82.9802 169.7 84.9803 172.52 85.0303C175.37 85.0703 177.06 83.0502 177.06 79.6202C177.06 55.3302 177.05 31.0402 177.09 6.75024C177.09 4.15024 176.94 1.75027 174.03 0.0302734H57.39C52.65 4.95027 47.73 10.1302 42.73 15.2202C38.24 19.7902 33.69 24.3103 29.09 28.7603C27.58 30.2303 26.96 31.8802 26.96 33.9302C26.98 57.0302 26.98 80.1302 26.98 103.23C26.98 115 26.98 126.78 26.96 138.55C26.96 139.07 26.9 139.59 26.86 140.37C26.05 140.41 25.27 140.47 24.48 140.48C18.44 140.48 12.41 140.47 6.37 140.49C2.49 140.51 0.849999 142.08 0.849999 145.87C0.839999 170.91 0.839999 195.94 0.849999 220.98C0.849999 224.22 2.56 225.91 5.85 225.92C18.67 225.94 31.48 225.94 44.3 225.92C48.21 225.92 49.62 224.44 49.67 220.47C49.7 218.24 49.67 216.01 49.67 213.52C50.49 213.47 51.2 213.44 51.91 213.4C61.21 212.84 70.23 214.22 79.25 216.58C95.15 220.73 111.19 224.37 127.18 228.21C127.76 228.35 128.36 228.44 128.96 228.6C128.96 228.6 134.24 229.42 141.89 228.6C141.89 228.6 141.89 228.6 141.9 228.6C144.48 228.02 146.86 227.6 149.07 226.73C164.43 220.68 179.82 214.68 195.02 208.25C203.48 204.67 206.92 195.06 203.45 186.66C200.05 178.4 191 174.32 182.41 177.2L182.43 177.18ZM55.24 15.5303V28.0703H43.08C47.05 23.9803 51.02 19.8803 55.24 15.5303ZM40.61 216.85H9.97V149.56H40.61V216.85ZM190.83 200.33C180.59 204.55 170.31 208.68 160.04 212.83C156.11 214.42 152.2 216.06 148.24 217.57C141.08 220.29 133.77 220.67 126.31 218.85C107.38 214.23 88.47 209.55 69.48 205.19C65.49 204.27 61.21 204.6 57.06 204.44C54.7 204.35 52.32 204.42 49.8 204.42V162.45C50.64 162.41 51.37 162.35 52.09 162.35C56.19 162.34 60.29 162.51 64.38 162.3C74.59 161.76 84.49 163.07 94.27 166.15C102.2 168.65 110.37 170.39 118.4 172.61C122.82 173.83 125.19 178.1 124.21 182.54C123.23 186.94 118.97 190.02 114.56 189.31C111.92 188.89 109.33 188.17 106.72 187.56C100.49 186.12 94.27 184.61 88.03 183.23C85.47 182.67 83.25 184.15 82.72 186.47C82.18 188.85 83.5 191.03 85.96 191.83C86.52 192.01 87.11 192.14 87.69 192.27C96.59 194.38 105.48 196.53 114.4 198.57C119.32 199.7 124.25 200.95 129.24 201.6C137.88 202.73 146.06 200.6 154.07 197.46C163.97 193.58 173.94 189.87 183.91 186.19C185.47 185.61 187.25 185.2 188.88 185.33C192.49 185.63 195.28 188.52 195.75 191.94C196.25 195.53 194.41 198.85 190.81 200.33H190.83Z" fill="#EAAD48"/>
</svg>
