<svg width="200" height="228" viewBox="0 0 200 228" fill="none" xmlns="http://www.w3.org/2000/svg">
<path d="M6.80999 117.38C6.80999 139.25 6.80999 161.12 6.80999 182.99C6.80999 192.57 12.79 198.54 22.39 198.58C28.14 198.6 33.89 198.58 39.64 198.58C42.49 198.58 43.95 199.69 43.98 201.82C44.01 203.98 42.51 205.25 39.76 205.22C32.62 205.16 25.41 205.61 18.35 204.8C7.46999 203.56 0.209994 194.78 0.169994 183.82C0.109994 168.43 0.149993 153.04 0.149993 137.65C0.149993 108.78 0.149994 79.92 0.159994 51.05C0.159994 50.53 0.139994 50.0199 0.169994 49.4999C0.319994 47.4299 1.61999 46.1199 3.50999 46.1299C5.39999 46.1299 6.72999 47.44 6.75999 49.54C6.81999 53.96 6.79999 58.38 6.79999 62.79C6.79999 80.98 6.79999 99.1699 6.79999 117.36L6.80999 117.38Z" fill="#EAAD48"/>
<path d="M77.52 96.7296C61.61 96.7296 45.7 96.7296 29.79 96.7296C26.21 96.7296 24.64 95.6796 24.68 93.3396C24.71 91.1196 26.27 90.1196 29.73 90.1196C61.77 90.1196 93.81 90.1096 125.86 90.0996C128.98 90.0996 130.79 91.8396 130.09 94.2496C129.53 96.1896 128.02 96.7096 126.14 96.7096C115.16 96.6896 104.19 96.7096 93.21 96.7096C87.98 96.7096 82.75 96.7096 77.52 96.7096V96.7296Z" fill="#EAAD48"/>
<path d="M66.44 123.24C54.21 123.24 41.98 123.24 29.75 123.24C26.29 123.24 24.74 122.25 24.68 120.03C24.61 117.7 26.25 116.58 29.77 116.58C54.09 116.58 78.4 116.58 102.72 116.58C103.6 116.58 104.5 116.57 105.36 116.73C107.21 117.08 108.21 118.26 108.08 120.16C107.96 121.93 106.91 122.96 105.13 123.18C104.62 123.24 104.1 123.24 103.59 123.24C91.21 123.24 78.83 123.24 66.46 123.24H66.44Z" fill="#EAAD48"/>
<path d="M56.09 70.24C47.4 70.24 38.7 70.24 30.01 70.24C29.79 70.24 29.57 70.24 29.35 70.24C26.93 70.12 25.54 68.86 25.59 66.84C25.64 64.89 26.96 63.68 29.31 63.64C34.1 63.58 38.89 63.59 43.67 63.59C56.34 63.59 69.01 63.59 81.68 63.59C85.16 63.59 86.86 64.74 86.79 67.03C86.72 69.25 85.15 70.27 81.71 70.27C73.16 70.27 64.62 70.27 56.07 70.27V70.24H56.09Z" fill="#EAAD48"/>
<path d="M56.27 149.76C47.72 149.76 39.18 149.76 30.63 149.76C29.82 149.76 29 149.78 28.21 149.63C26.65 149.34 25.74 148.34 25.6 146.77C25.45 145.11 26.23 143.93 27.82 143.37C28.3 143.2 28.83 143.11 29.33 143.11C47.23 143.11 65.14 143.09 83.04 143.14C86.03 143.14 87.67 145.7 86.36 148.03C85.51 149.54 84.13 149.75 82.58 149.75C73.81 149.73 65.04 149.75 56.28 149.75C56.28 149.75 56.28 149.77 56.28 149.78L56.27 149.76Z" fill="#EAAD48"/>
<path d="M158.45 55.5898C143.24 40.3798 128.07 25.1399 112.88 9.90991C109.14 6.15991 105.76 1.87992 100.11 0.669922H21.31C19.39 0.669922 17.48 0.939839 15.63 1.45984C15.63 1.45984 15.62 1.45984 15.61 1.45984C6.76 3.90984 0.529997 11.6598 0.209997 20.8198C0.0599975 25.0098 0.129997 29.2099 0.159997 33.4099C0.179997 35.7399 1.59 37.2799 3.54 37.2499C5.52 37.2199 6.79 35.7298 6.8 33.3398C6.82 29.4398 6.74 25.5299 6.8 21.6299C6.94 13.5999 13.18 7.32994 21.19 7.30994C46.24 7.25994 71.3 7.30989 96.35 7.25989C97.8 7.25989 98.98 8.43989 98.97 9.88989C98.89 22.8499 98.92 35.8199 98.97 48.7799C98.97 50.4599 99.04 52.1898 99.44 53.8198C101.18 60.9598 107.2 65.4398 115.15 65.4698C128.19 65.5298 141.24 65.4899 154.28 65.4899C155.07 65.4899 155.85 65.4899 156.81 65.4899C156.89 67.0099 157 68.2499 157.01 69.4899C157.03 74.7899 156.99 80.0899 157.04 85.3899C157.06 87.5399 158.31 88.8999 160.13 88.9999C162.03 89.1099 163.43 87.7199 163.64 85.5199C163.65 85.3699 163.65 85.2298 163.65 85.0798C163.65 79.1898 163.71 73.2999 163.61 67.4099C163.54 62.7899 161.75 58.8798 158.46 55.5798L158.45 55.5898ZM149.75 58.8198C138.27 58.8198 126.79 58.8498 115.31 58.8198C109.96 58.7998 105.63 54.4699 105.61 49.1099C105.57 37.8499 105.58 26.5998 105.57 15.3398C105.57 14.4798 105.57 13.6098 105.57 12.8398C120.98 28.1298 136.3 43.3199 151.79 58.6799C151.01 58.7399 150.38 58.8198 149.75 58.8198Z" fill="#EAAD48"/>
<path d="M55.06 204.86C55.59 205.34 56.74 205.23 57.61 205.23C74.41 205.24 91.22 205.44 108.02 205.11C113.4 205 117.82 205.79 120.98 210.43C121.3 210.91 121.8 211.28 122.24 211.67C124.29 213.44 126.66 214.25 129.37 214.07C136.96 213.55 142.55 205.87 140.72 198.52C140.59 198.01 140.49 197.23 140.76 196.94C142.59 194.98 144.52 193.11 146.51 191.11C153.44 199.89 160.17 208.36 166.84 216.88C170.07 221 173.37 224.99 178.54 226.91C178.54 226.91 182.13 227.46 184.07 226.91C185.97 226.04 187.55 225.47 188.98 224.63C190.43 223.78 191.82 222.77 193.08 221.65C199.98 215.51 201.01 206.77 195.58 200.22C194.56 198.98 193.34 197.87 192.08 196.87C185.63 191.72 179.14 186.63 172.67 181.52C169.63 179.12 166.61 176.71 163.32 174.09C165.26 172.25 166.9 170.54 168.72 169.06C169.37 168.53 170.54 168.19 171.34 168.37C176.47 169.53 182.03 167.03 184.84 162.15C187.63 157.3 186.99 152.59 182.94 148.52C177.02 142.56 171.11 136.6 165.13 130.7C164.04 129.62 163.63 128.53 163.64 127.02C163.7 118.85 163.67 110.67 163.66 102.5C163.66 102.06 163.68 101.61 163.64 101.18C163.42 99.1202 162.05 97.8101 160.2 97.8701C158.34 97.9201 157.03 99.2602 157.02 101.38C156.97 107.71 157 114.05 156.99 120.38C156.99 120.9 156.89 121.42 156.8 122.32C154.58 120.09 152.81 117.98 150.7 116.29C149.15 115.04 147.26 113.8 145.37 113.48C137.09 112.05 129.6 120.59 131.68 128.75C131.86 129.48 131.6 130.66 131.09 131.17C122.02 140.33 112.86 149.41 103.77 158.54C102.95 159.37 102.25 159.45 101.09 159.3C99.09 159.05 96.91 158.84 95.03 159.39C86.14 161.96 82.47 173.16 89.69 179.38C96.04 184.85 101.67 191.14 107.6 197.08C107.98 197.46 108.27 197.92 108.8 198.58C108.01 198.58 107.58 198.58 107.15 198.58C90.71 198.58 74.28 198.58 57.84 198.58C57.1 198.58 56.35 198.53 55.63 198.65C53.98 198.95 52.76 200.08 52.96 201.64C53.11 202.8 54.13 204 55.07 204.85L55.06 204.86ZM172.85 190.13C177.94 194.14 183.03 198.15 188.12 202.17C191.97 205.21 193.18 208.28 191.97 211.88C190.55 216.08 185.52 220.15 181.64 220.13C178.94 220.12 176.83 218.75 175.22 216.72C167.26 206.69 159.34 196.61 151.5 186.67C154.06 184.08 156.42 181.68 158.9 179.16C163.49 182.77 168.18 186.45 172.85 190.14V190.13ZM136.88 135.11C139.02 137.37 141.07 139.77 143.4 141.87C144.3 142.68 145.94 143.3 147.07 143.09C149.7 142.6 150.25 139.52 148.17 137.37C145.36 134.45 142.44 131.65 139.59 128.77C137.39 126.55 137.46 124.17 139.73 121.87C142.17 119.39 144.37 119.31 146.75 121.69C157.37 132.31 167.97 142.95 178.57 153.59C180.43 155.45 180.2 158 178.03 160.17C175.77 162.43 173.46 162.66 171.49 160.71C168.08 157.35 164.72 153.94 161.34 150.56C160.82 150.04 160.31 149.51 159.77 149.01C158.03 147.42 156.02 147.32 154.69 148.74C153.38 150.13 153.46 152.02 155.05 153.66C157.66 156.36 160.34 158.99 162.99 161.65C163.56 162.22 164.1 162.81 164.58 163.3C155 172.93 145.5 182.46 135.94 192.07C126.55 182.64 117.27 173.32 108.09 164.1C117.48 154.65 127 145.06 136.88 135.12V135.11ZM93.75 173.94C92.44 172.64 92 171.19 92.76 169.55C93.8 167.29 95.48 165.75 98.55 165.39C99.04 165.67 99.99 165.97 100.61 166.59C111.53 177.42 122.43 188.27 133.29 199.15C135.22 201.08 134.88 203.44 132.53 205.68C130.29 207.81 127.96 208.03 126.11 206.2C115.31 195.46 104.55 184.68 93.74 173.94H93.75Z" fill="#EAAD48"/>
</svg>
