<svg width="126" height="60" viewBox="0 0 126 60" fill="none" xmlns="http://www.w3.org/2000/svg">
<path d="M115.24 13.0101C113.81 10.9101 111.44 9.65006 108.9 9.65006H91.77V9.01006C91.74 6.00006 89.86 0.310059 82.98 0.310059H39.64C39.44 0.350059 34.76 0.990058 32.59 5.42006C32.24 6.14006 32.53 7.01006 33.25 7.36006C33.97 7.71006 34.84 7.42006 35.19 6.70006C36.56 3.91006 39.42 3.30006 39.93 3.21006H82.97C88.58 3.21006 88.85 8.45006 88.86 9.02006V50.6501H65.45C65.47 50.3901 65.49 50.1201 65.49 49.8601C65.49 44.5201 61.14 40.1701 55.8 40.1701C50.46 40.1701 46.11 44.5201 46.11 49.8601C46.11 50.1301 46.13 50.3901 46.15 50.6501H38.88L35.81 47.9701C35.21 47.4401 34.29 47.5101 33.76 48.1101C33.23 48.7101 33.3 49.6301 33.9 50.1601L37.8 53.5601H46.85C48.31 57.0701 51.77 59.5501 55.8 59.5501C59.83 59.5501 63.3 57.0701 64.75 53.5601H99.45C100.91 57.0701 104.37 59.5501 108.4 59.5501C112.43 59.5501 115.9 57.0701 117.35 53.5601H121.41L125.87 49.5701V28.6801L115.23 13.0101H115.24ZM55.8 56.6501C52.06 56.6501 49.01 53.6101 49.01 49.8601C49.01 46.1101 52.05 43.0701 55.8 43.0701C59.55 43.0701 62.59 46.1101 62.59 49.8601C62.59 53.6101 59.55 56.6501 55.8 56.6501ZM108.41 56.6501C104.67 56.6501 101.62 53.6101 101.62 49.8601C101.62 46.1101 104.66 43.0701 108.41 43.0701C112.16 43.0701 115.2 46.1101 115.2 49.8601C115.2 53.6101 112.16 56.6501 108.41 56.6501ZM120.31 50.6601H118.06C118.08 50.4001 118.1 50.1301 118.1 49.8701C118.1 44.5301 113.75 40.1801 108.41 40.1801C103.07 40.1801 98.72 44.5301 98.72 49.8701C98.72 50.1401 98.74 50.4001 98.76 50.6601H91.77V12.5601H108.9C110.48 12.5601 111.95 13.3401 112.84 14.6401L122.98 29.5701V31.8201H106.28V17.6501C106.28 16.8501 105.63 16.2001 104.83 16.2001C104.03 16.2001 103.38 16.8501 103.38 17.6501V34.7201H122.98V48.2601L120.32 50.6401L120.31 50.6601Z" fill="#EAAD48"/>
<path d="M26.26 13.8202C27.06 13.8202 27.71 13.1702 27.71 12.3702C27.71 11.5702 27.06 10.9202 26.26 10.9202H18.1C17.3 10.9202 16.65 11.5702 16.65 12.3702C16.65 13.1702 17.3 13.8202 18.1 13.8202H26.26Z" fill="#EAAD48"/>
<path d="M1.45 21.1501C0.65 21.1501 0 21.8001 0 22.6001C0 23.4001 0.65 24.0501 1.45 24.0501H20.73C21.53 24.0501 22.18 23.4001 22.18 22.6001C22.18 21.8001 21.53 21.1501 20.73 21.1501H1.45Z" fill="#EAAD48"/>
<path d="M13.06 31.1602H6.39C5.59 31.1602 4.94 31.8102 4.94 32.6102C4.94 33.4102 5.59 34.0602 6.39 34.0602H13.06C13.86 34.0602 14.51 33.4102 14.51 32.6102C14.51 31.8102 13.86 31.1602 13.06 31.1602Z" fill="#EAAD48"/>
<path d="M50.1 32.6102C50.1 31.8102 49.45 31.1602 48.65 31.1602H18.55C17.75 31.1602 17.1 31.8102 17.1 32.6102C17.1 33.4102 17.75 34.0602 18.55 34.0602H48.65C49.45 34.0602 50.1 33.4102 50.1 32.6102Z" fill="#EAAD48"/>
<path d="M43.13 42.8401C43.13 42.0401 42.48 41.3901 41.68 41.3901H22.18C21.38 41.3901 20.73 42.0401 20.73 42.8401C20.73 43.6401 21.38 44.2901 22.18 44.2901H41.68C42.48 44.2901 43.13 43.6401 43.13 42.8401Z" fill="#EAAD48"/>
<path d="M32.53 11.48H41.25V14.75H35.76V17.31H40.89V20.6H35.76V25.69H32.53V11.48Z" fill="#EAAD48"/>
<path d="M43.49 22.2099C43.53 23.0699 43.98 23.7099 44.84 23.7099C45.55 23.7099 45.85 23.4499 46.05 23.0399H49.1C48.68 24.5099 47.65 25.9599 44.82 25.9599C41.43 25.9599 40.36 23.6199 40.36 21.3999C40.36 19.0199 41.72 16.8599 44.81 16.8599C47.9 16.8599 49.18 19.1999 49.18 21.4299C49.18 21.5799 49.18 21.9999 49.18 22.1999H43.51L43.49 22.2099ZM46.09 20.3499C46.06 19.7099 45.82 18.9899 44.83 18.9899C43.84 18.9899 43.55 19.5799 43.51 20.3499H46.09Z" fill="#EAAD48"/>
<path d="M57.93 13.5701V23.0801C57.93 23.9601 57.93 25.0301 57.95 25.7401H54.83C54.8 25.5001 54.78 25.1401 54.76 24.8601C54.27 25.5501 53.74 25.9801 52.39 25.9801C50.26 25.9801 48.85 24.1101 48.85 21.4701C48.85 18.5701 50.69 16.8901 52.61 16.8901C53.94 16.8901 54.52 17.3701 54.75 17.6801V13.5901H57.92L57.93 13.5701ZM52.09 21.4201C52.09 22.6301 52.57 23.5001 53.49 23.5001C54.41 23.5001 54.86 22.7201 54.86 21.4201C54.86 20.1201 54.5 19.3501 53.5 19.3501C52.5 19.3501 52.09 20.2901 52.09 21.4201Z" fill="#EAAD48"/>
<path d="M67.53 25.7701H57.9V13.5701H67.62V17.0601H62V17.7701H67.34V21.2601H62V22.2801H68.04L67.54 25.7601L67.53 25.7701ZM58.79 24.9001H66.76L67.01 23.1501H61.11V20.3901H66.45V18.6401H61.11V16.1901H66.73V14.4401H58.79V24.9001Z" fill="#EAAD48"/>
<path d="M78.52 25.77H73.95L73.16 24.3699C73.04 24.1599 72.94 23.98 72.84 23.81C72.59 24.28 72.26 24.8799 71.86 25.5499L71.73 25.77H67.31L70.44 21.11L67.27 16.45H71.91L72.04 16.66C72.41 17.27 72.74 17.86 72.99 18.33C73.27 17.78 73.58 17.19 73.89 16.67L74.02 16.45H78.44L75.35 20.9L78.52 25.7599V25.77ZM74.48 24.9H76.9L74.29 20.9L76.77 17.33H74.55C74.14 18.04 73.74 18.8199 73.44 19.4799L73.32 19.74H72.74L72.58 19.4799C72.4 19.0699 71.95 18.23 71.42 17.33H68.95L71.52 21.11L68.97 24.9H71.23C71.8 23.93 72.21 23.15 72.42 22.72L72.54 22.47H73.09L73.25 22.7C73.38 22.95 73.62 23.37 73.95 23.95L74.48 24.9Z" fill="#EAAD48"/>
</svg>
