<svg width="80" height="71" viewBox="0 0 80 71" fill="none" xmlns="http://www.w3.org/2000/svg">
<path d="M38.55 16.1401C33.84 16.1401 31.31 25.7801 31.31 34.8501C31.31 43.9201 33.85 53.5601 38.55 53.5601C43.25 53.5601 45.79 43.9201 45.79 34.8501C45.79 25.7801 43.25 16.1401 38.55 16.1401ZM38.55 51.5701C36.07 51.5701 33.31 44.4201 33.31 34.8601C33.31 25.3001 36.08 18.1501 38.55 18.1501C41.02 18.1501 43.79 25.3001 43.79 34.8601C43.79 44.4201 41.02 51.5701 38.55 51.5701Z" fill="#EAAD48"/>
<path d="M67.91 0.0800781C61.39 0.0800781 56.08 5.3901 56.08 11.9101C56.08 18.1001 60.85 23.1801 66.91 23.6901V40.0901C66.91 43.5401 62.39 44.8901 61.66 45.0901H53.56C53.98 41.9401 54.2 38.5901 54.2 35.1101C54.2 15.4701 47.1 0.0800781 38.04 0.0800781C37.98 0.0800781 37.93 0.0900879 37.88 0.0900879L16.26 0.0800781C7.24001 0.190078 0.190002 15.5301 0.190002 35.1101C0.190002 54.6901 7.24001 70.0201 16.26 70.1301H37.88C37.93 70.1201 37.99 70.1301 38.04 70.1301C45.15 70.1301 51.05 60.6501 53.26 47.0901H61.89L62 47.0601C62.28 47.0001 68.9 45.4201 68.9 40.0901V23.6901C74.96 23.1801 79.73 18.1001 79.73 11.9101C79.73 5.3901 74.42 0.0800781 67.9 0.0800781H67.91ZM26.71 2.8201C27.65 2.3301 28.63 2.08008 29.62 2.08008C30.41 2.08008 31.2 2.24008 31.97 2.55008C31.9 2.61008 31.84 2.68008 31.77 2.74008C31.51 2.97008 31.26 3.21009 31.01 3.47009C30.9 3.58009 30.79 3.69009 30.68 3.81009C30.34 4.19009 30 4.5801 29.67 5.0101C28.43 6.5901 27.29 8.58009 26.28 10.9001C23.43 17.4101 21.87 26.0001 21.87 35.0901C21.87 44.1801 23.44 52.7701 26.28 59.2801C27.28 61.5801 28.42 63.5601 29.67 65.1701C30 65.6001 30.35 66.0001 30.69 66.3801C30.79 66.4901 30.9 66.6001 31.01 66.7101C31.26 66.9701 31.52 67.2201 31.78 67.4501C31.85 67.5101 31.91 67.5801 31.98 67.6401C30.25 68.3501 28.43 68.2601 26.71 67.3701C25.68 66.8501 24.68 66.0601 23.73 65.0201C18.71 59.5301 15.46 47.7801 15.46 35.0901C15.46 22.4001 18.71 10.6501 23.73 5.1601C24.67 4.1201 25.67 3.33008 26.71 2.80008V2.8201ZM20.05 2.77008C20.97 2.32008 21.92 2.08008 22.87 2.08008C23.25 2.08008 23.63 2.12009 24 2.19009C24 2.19009 23.99 2.1901 23.98 2.2001C23.78 2.3601 23.58 2.54009 23.38 2.72009C23.29 2.80009 23.19 2.88008 23.1 2.96008C22.81 3.23008 22.53 3.52008 22.25 3.83008C16.83 9.76008 13.46 21.7401 13.46 35.1001C13.46 48.4601 16.83 60.4501 22.25 66.3701C22.53 66.6801 22.81 66.9701 23.1 67.2401C23.19 67.3201 23.28 67.4001 23.37 67.4801C23.57 67.6601 23.78 67.8401 23.98 68.0001C23.98 68.0001 23.98 68.0001 23.99 68.0101C22.67 68.2701 21.33 68.0701 20.04 67.4301C13.47 64.2101 8.70001 50.6101 8.70001 35.1001C8.70001 31.7101 8.92998 28.4001 9.34998 25.2801C10.87 14.1301 14.9 5.2801 20.04 2.7601L20.05 2.77008ZM2.19 35.1101C2.19 17.2101 8.66998 2.08008 16.35 2.08008C16.66 2.08008 16.98 2.1101 17.29 2.1601C17.28 2.1701 17.26 2.18009 17.25 2.19009C16.9 2.46009 16.56 2.77009 16.22 3.09009C16.17 3.14009 16.11 3.19008 16.06 3.24008C15.73 3.56008 15.41 3.91009 15.1 4.28009C15.05 4.34009 14.99 4.41009 14.94 4.47009C14.63 4.85009 14.32 5.2401 14.02 5.6601C13.97 5.7201 13.93 5.7901 13.89 5.8501C13.59 6.2901 13.29 6.74009 13 7.22009C12.98 7.26009 12.95 7.3001 12.93 7.3501C12.64 7.8401 12.36 8.34009 12.09 8.87009C12.07 8.90009 12.06 8.93009 12.04 8.97009C11.77 9.50009 11.51 10.0501 11.25 10.6201C11.21 10.7001 11.18 10.7801 11.14 10.8601C10.9 11.4101 10.67 11.9801 10.44 12.5701C10.4 12.6701 10.36 12.7801 10.32 12.8801C10.1 13.4701 9.89 14.0701 9.69 14.6801C9.65 14.7901 9.62002 14.9001 9.58002 15.0101C9.38002 15.6401 9.19001 16.2801 9.01001 16.9401C8.98001 17.0301 8.96 17.1301 8.94 17.2201C8.75 17.9101 8.57997 18.6101 8.40997 19.3301C8.40997 19.3701 8.39001 19.4101 8.39001 19.4401C8.23001 20.1601 8.08 20.8901 7.94 21.6301C7.93 21.7001 7.91002 21.7701 7.90002 21.8401C7.76002 22.5801 7.64003 23.3301 7.53003 24.0901C7.51003 24.2001 7.48998 24.3201 7.47998 24.4301C7.36998 25.1701 7.28 25.9301 7.19 26.6901C7.18 26.8201 7.16002 26.9601 7.15002 27.0901C7.07002 27.8501 7 28.6301 6.94 29.4101C6.94 29.5401 6.91997 29.6701 6.90997 29.7901C6.85997 30.5901 6.81003 31.4001 6.78003 32.2201C6.78003 32.3101 6.78003 32.4001 6.78003 32.4901C6.75003 33.3501 6.72998 34.2201 6.72998 35.1001C6.72998 35.9801 6.75003 36.8501 6.78003 37.7101C6.78003 37.8001 6.78003 37.8901 6.78003 37.9801C6.81003 38.8001 6.84997 39.6101 6.90997 40.4101C6.90997 40.5401 6.93 40.6601 6.94 40.7901C7 41.5701 7.07002 42.3501 7.15002 43.1201C7.16002 43.2501 7.18 43.3801 7.19 43.5101C7.28 44.2801 7.36998 45.0301 7.47998 45.7801C7.49998 45.8901 7.51003 46.0001 7.53003 46.1101C7.64003 46.8801 7.76997 47.6301 7.90997 48.3701C7.91997 48.4301 7.93 48.4901 7.94 48.5501C8.08 49.3101 8.24002 50.0601 8.40002 50.7901C8.40002 50.8101 8.40998 50.8401 8.41998 50.8601C8.58998 51.5901 8.77002 52.3001 8.96002 53.0001C8.98002 53.0801 9.00002 53.1601 9.02002 53.2401C9.20002 53.9101 9.39999 54.5701 9.60999 55.2101C9.63999 55.3101 9.67001 55.4001 9.70001 55.5001C9.91001 56.1301 10.12 56.7401 10.34 57.3401C10.37 57.4301 10.41 57.5201 10.44 57.6101C10.67 58.2101 10.91 58.8001 11.16 59.3601C11.19 59.4201 11.22 59.4901 11.25 59.5501C11.51 60.1301 11.78 60.7001 12.06 61.2501C12.06 61.2601 12.08 61.2801 12.08 61.2901C12.37 61.8501 12.66 62.3801 12.97 62.8901C12.98 62.9101 13 62.9401 13.01 62.9601C13.31 63.4501 13.61 63.9201 13.93 64.3701C13.97 64.4201 14 64.4801 14.04 64.5301C14.35 64.9601 14.66 65.3601 14.98 65.7501C15.03 65.8101 15.07 65.8601 15.12 65.9201C15.44 66.2901 15.77 66.6501 16.1 66.9701C16.15 67.0201 16.2 67.0601 16.24 67.1101C16.58 67.4401 16.93 67.7401 17.28 68.0201C17.29 68.0201 17.3 68.0401 17.32 68.0501C17.01 68.1001 16.69 68.1301 16.38 68.1301C8.7 68.1301 2.21997 53.0101 2.21997 35.1101H2.19ZM51.51 45.0901H48.87C48.32 45.0901 47.87 45.5401 47.87 46.0901C47.87 46.6401 48.32 47.0901 48.87 47.0901H51.2C49.09 59.2701 43.92 68.1301 38.05 68.1301C36.8 68.1301 35.57 67.7401 34.38 66.9601C33.3 66.2601 32.25 65.2601 31.26 63.9701C30.11 62.4901 29.06 60.6501 28.12 58.5001C25.38 52.2401 23.87 43.9301 23.87 35.1101C23.87 26.2901 25.38 17.9801 28.12 11.7201C29.07 9.55009 30.12 7.71009 31.26 6.25009C32.24 4.96009 33.28 3.96009 34.38 3.25009C35.56 2.48009 36.8 2.08008 38.04 2.08008C45.71 2.08008 52.2 17.2101 52.2 35.1101C52.2 38.5701 51.96 41.9201 51.51 45.0901ZM68.88 21.6901C68.81 21.2101 68.41 20.8301 67.91 20.8301C67.41 20.8301 67.01 21.2101 66.94 21.6901C61.98 21.2001 58.08 17.0001 58.08 11.9101C58.08 6.4901 62.49 2.08008 67.91 2.08008C73.33 2.08008 77.74 6.4901 77.74 11.9101C77.74 17.0001 73.85 21.2001 68.88 21.6901Z" fill="#EAAD48"/>
<path d="M68.29 19.1202L61.08 11.1102C60.18 10.1102 60.26 8.5702 61.26 7.6702C62.26 6.7702 63.8 6.85019 64.7 7.85019L67.93 11.4402L75.18 1.70019C75.98 0.620195 77.51 0.400195 78.59 1.20019C79.67 2.00019 79.89 3.53017 79.09 4.61017L68.29 19.1202Z" fill="#EAAD48"/>
</svg>
