<svg width="97" height="70" viewBox="0 0 97 70" fill="none" xmlns="http://www.w3.org/2000/svg">
<path d="M38.05 68.08C38.48 65.57 38.87 62.95 39.39 60.35C39.62 59.22 39.5 58.41 38.57 57.59C36.66 55.89 34.86 54.07 33.07 52.25C32.72 51.89 32.38 51.19 32.51 50.79C32.64 50.39 33.31 49.99 33.8 49.91C36.65 49.43 39.52 49.07 42.37 48.61C42.71 48.55 43.1 48.16 43.27 47.83C44.54 45.35 45.73 42.82 47.03 40.35C47.27 39.89 47.86 39.36 48.32 39.33C48.7 39.3 49.27 39.89 49.5 40.34C50.77 42.78 51.98 45.26 53.18 47.74C53.45 48.31 53.76 48.59 54.45 48.68C57.25 49.02 60.04 49.44 62.83 49.91C63.29 49.99 63.91 50.39 64.03 50.78C64.15 51.16 63.86 51.83 63.53 52.16C61.55 54.18 59.48 56.11 57.5 58.13C57.21 58.43 57.01 59.01 57.07 59.42C57.47 62.11 57.99 64.78 58.38 67.47C58.47 68.05 58.41 68.83 58.08 69.25C57.58 69.9 56.85 69.47 56.23 69.14C53.82 67.87 51.41 66.62 49.01 65.33C48.47 65.04 48.06 65.03 47.51 65.33C45.03 66.67 42.53 67.98 40.02 69.27C38.82 69.89 38 69.42 38.03 68.08H38.05ZM48.3 43.1C48.02 43.61 47.83 43.92 47.67 44.25C46.78 46.04 45.85 47.83 45.02 49.65C44.64 50.47 44.08 50.79 43.22 50.89C40.91 51.18 38.6 51.55 36.28 51.89C36.32 52.04 36.32 52.13 36.36 52.17C37.59 53.39 38.74 54.72 40.09 55.8C41.73 57.11 42.5 58.57 41.72 60.63C41.66 60.79 41.64 60.96 41.61 61.13C41.33 62.77 41.06 64.42 40.75 66.28C43.08 65.05 45.19 63.96 47.28 62.83C47.98 62.45 48.6 62.46 49.3 62.83C50.91 63.71 52.54 64.56 54.17 65.41C54.66 65.67 55.16 65.9 55.82 66.22C55.38 63.63 55.01 61.25 54.57 58.88C54.43 58.15 54.62 57.63 55.13 57.15C56.05 56.29 56.95 55.41 57.85 54.52C58.69 53.7 59.52 52.86 60.48 51.91C57.96 51.54 55.64 51.18 53.32 50.89C52.5 50.79 51.95 50.49 51.58 49.71C50.56 47.56 49.48 45.45 48.32 43.1H48.3Z" fill="#EAAD48"/>
<path d="M61.83 14.9501C61.87 22.3801 55.86 28.5401 48.53 28.5801C40.83 28.6201 34.74 22.6801 34.69 15.0601C34.64 7.6201 40.7 1.45011 48.1 1.41011C55.68 1.37011 61.78 7.3801 61.82 14.9501H61.83ZM48.27 3.77011C41.98 3.77011 37.01 8.8101 37.02 15.1801C37.02 21.1901 42.13 26.2301 48.22 26.2601C54.5 26.2801 59.53 21.2201 59.53 14.8801C59.53 8.80011 54.43 3.77011 48.27 3.77011Z" fill="#EAAD48"/>
<path d="M82.54 58.6901C82.37 58.6201 82.05 58.5201 81.75 58.3701C80.21 57.5701 78.66 56.8001 77.15 55.9301C76.47 55.5401 75.94 55.5901 75.28 55.9701C73.77 56.8301 72.24 57.6501 70.67 58.3801C70.21 58.5901 69.48 58.6601 69.09 58.4301C68.78 58.2501 68.65 57.4901 68.71 57.0201C68.95 55.1301 69.32 53.2601 69.57 51.3801C69.62 51.0301 69.44 50.5301 69.19 50.2701C67.89 48.9201 66.49 47.6701 65.21 46.3001C64.87 45.9401 64.6 45.2301 64.73 44.8001C64.83 44.4401 65.51 44.0901 65.99 44.0101C67.83 43.6701 69.69 43.4701 71.53 43.1401C71.91 43.0701 72.36 42.7201 72.55 42.3701C73.4 40.7801 74.12 39.1301 74.99 37.5501C75.25 37.0801 75.81 36.5401 76.27 36.5001C76.64 36.4701 77.22 37.0601 77.46 37.5101C78.34 39.1201 79.09 40.8001 79.95 42.4201C80.12 42.7401 80.54 43.0701 80.89 43.1301C82.69 43.4601 84.52 43.6501 86.32 44.0001C86.85 44.1001 87.59 44.4501 87.74 44.8701C87.88 45.2601 87.51 46.0101 87.14 46.4001C85.96 47.6701 84.71 48.8801 83.43 50.0501C82.89 50.5501 82.73 51.0201 82.87 51.7501C83.23 53.5501 83.53 55.3601 83.8 57.1801C83.95 58.1901 83.51 58.7201 82.5 58.7001L82.54 58.6901ZM71.32 55.4201C72.34 54.8901 73.22 54.5601 73.95 54.0201C75.53 52.8601 77 52.8901 78.58 54.0201C79.31 54.5501 80.2 54.8801 81.2 55.3901C81 54.2601 80.89 53.3801 80.68 52.5301C80.27 50.8801 80.23 49.4201 81.87 48.3101C82.72 47.7401 83.41 46.9301 84.37 46.0601C82.62 45.7901 81.26 45.5001 79.88 45.3801C79 45.3001 78.54 44.8901 78.19 44.1501C77.61 42.9001 76.97 41.6701 76.26 40.2401C75.51 41.7401 74.85 43.0301 74.23 44.3301C73.92 44.9801 73.48 45.2901 72.75 45.3701C71.32 45.5301 69.9 45.7801 68.38 46.0201C69.51 47.1601 70.51 48.2201 71.56 49.2301C72.08 49.7301 72.24 50.2601 72.1 50.9701C71.82 52.3601 71.61 53.7701 71.33 55.4101L71.32 55.4201Z" fill="#EAAD48"/>
<path d="M12.68 57.22C12.97 55.5 13.27 53.62 13.63 51.75C13.76 51.09 13.69 50.62 13.16 50.13C11.83 48.91 10.53 47.65 9.29997 46.33C8.95997 45.96 8.63 45.25 8.76 44.86C8.9 44.46 9.59001 44.1 10.09 44C11.92 43.65 13.79 43.45 15.63 43.12C15.98 43.06 16.4 42.73 16.57 42.41C17.44 40.76 18.21 39.05 19.1 37.4C19.33 36.98 19.89 36.45 20.26 36.47C20.7 36.5 21.25 37 21.49 37.44C22.37 39.05 23.11 40.73 23.98 42.35C24.17 42.7 24.62 43.05 25 43.12C26.77 43.45 28.57 43.64 30.33 43.98C30.87 44.08 31.55 44.37 31.82 44.8C32.21 45.42 31.69 45.99 31.2 46.46C29.87 47.73 28.54 49.01 27.26 50.33C27.03 50.56 26.9 51.04 26.95 51.37C27.22 53.29 27.59 55.19 27.84 57.11C27.9 57.54 27.74 58.25 27.45 58.43C27.08 58.65 26.39 58.62 25.97 58.43C24.28 57.63 22.66 56.68 20.98 55.88C20.6 55.7 19.99 55.71 19.61 55.88C17.93 56.69 16.29 57.61 14.63 58.46C13.49 59.04 12.65 58.56 12.69 57.23L12.68 57.22ZM12.35 46.04C13.41 47.08 14.29 48.05 15.28 48.9C16.07 49.59 16.3 50.31 16.06 51.33C15.76 52.6 15.61 53.91 15.37 55.39C16.6 54.76 17.71 54.31 18.68 53.65C19.83 52.88 20.82 52.94 21.95 53.67C22.93 54.3 24.02 54.77 25.22 55.4C24.96 53.84 24.78 52.46 24.48 51.12C24.29 50.28 24.5 49.7 25.11 49.13C26.14 48.17 27.11 47.14 28.21 46.04C26.7 45.8 25.34 45.52 23.97 45.4C23.05 45.33 22.57 44.91 22.21 44.13C21.64 42.89 21 41.68 20.29 40.25C19.55 41.74 18.9 43 18.3 44.28C17.98 44.96 17.53 45.31 16.75 45.39C15.35 45.53 13.95 45.8 12.35 46.05V46.04Z" fill="#EAAD48"/>
<path d="M8.21002 10.56C8.21002 5.13001 12.61 0.710005 18.07 0.650005C23.55 0.590005 28.06 5.11 28.05 10.65C28.04 16.14 23.57 20.57 18.08 20.54C12.58 20.51 8.21002 16.09 8.21002 10.56ZM18.08 18.19C22.29 18.19 25.7 14.85 25.75 10.65C25.8 6.51 22.34 3.02001 18.18 3.00001C13.96 2.98001 10.47 6.46 10.51 10.65C10.55 14.8 13.94 18.17 18.08 18.18V18.19Z" fill="#EAAD48"/>
<path d="M88.34 10.62C88.34 16.11 83.9 20.55 78.41 20.55C72.92 20.55 68.49 16.1 68.5 10.6C68.5 5.09998 72.97 0.629969 78.43 0.649969C83.9 0.669969 88.34 5.12997 88.34 10.62ZM78.39 18.19C82.6 18.19 86.01 14.83 86.03 10.63C86.05 6.45998 82.62 3.01997 78.44 3.00997C74.27 3.00997 70.82 6.41997 70.79 10.59C70.76 14.75 74.21 18.19 78.39 18.2V18.19Z" fill="#EAAD48"/>
<path d="M69.95 38.47C69.62 38.88 69.4001 39.43 69.09 39.48C68.6301 39.56 68.03 39.41 67.64 39.14C65.84 37.94 64.1 36.65 62.31 35.43C61.9 35.15 61.39 35.01 60.92 34.8C58.99 33.94 57.2201 33.69 55.0301 34.55C50.1301 36.47 45.1 36.19 40.23 34.12C39.44 33.78 38.74 33.71 37.9 33.99C34.52 35.08 31.4 36.57 28.89 39.17C28.37 39.71 27.76 39.86 27.18 39.33C26.56 38.76 26.67 38.12 27.22 37.54C29.7 34.94 32.77 33.31 36.11 32.12C36.27 32.06 36.43 32.01 36.59 31.95C38.18 31.35 39.62 31.28 41.34 32.02C46.27 34.14 51.28 33.92 56.16 31.64C56.9 31.29 57.53 31.25 58.3 31.47C62.32 32.6 66.03 34.27 69.04 37.26C69.36 37.58 69.6 37.99 69.96 38.46L69.95 38.47Z" fill="#EAAD48"/>
<path d="M94 35.2301C93.93 33.9801 94.02 32.68 93.76 31.47C93.08 28.37 90.82 26.6101 88.13 25.2901C87.76 25.1101 87.37 24.99 87 24.81C85.82 24.26 84.72 24.1901 83.41 24.7001C79.87 26.0601 76.29 25.87 72.75 24.52C72.21 24.31 71.45 24.2601 70.93 24.4801C69.32 25.1701 67.75 25.9701 66.21 26.8201C65.5 27.2101 64.87 27.45 64.32 26.74C63.74 26 64.16 25.4 64.8 24.93C66.88 23.38 69.2 22.3701 71.72 21.8201C72.1 21.7401 72.59 21.88 72.97 22.05C76.63 23.71 80.27 23.69 83.92 22.03C84.27 21.87 84.72 21.72 85.07 21.8C88.44 22.6 91.51 23.98 93.86 26.65C95.48 28.48 96.28 30.64 96.31 33.08C96.33 34.78 96.31 36.49 96.31 38.19C96.31 38.97 96.07 39.56 95.19 39.59C94.26 39.62 93.96 38.99 93.94 38.19C93.92 37.2 93.94 36.2101 93.94 35.2301C93.96 35.2301 93.98 35.2301 94 35.2301Z" fill="#EAAD48"/>
<path d="M2.59005 35.2401C2.59005 36.2301 2.61005 37.2201 2.59005 38.2001C2.57005 38.9901 2.3 39.6401 1.35 39.6001C0.470001 39.5601 0.210016 38.9601 0.240016 38.1901C0.330016 35.7101 0.160001 33.1801 0.600001 30.7701C1.24 27.2701 3.77001 25.1001 6.80001 23.4901C7.52001 23.1101 8.28 22.8101 9.04 22.5101C10.61 21.8901 12.06 21.6501 13.8 22.4301C16.92 23.8201 20.19 23.5601 23.3 22.1501C24.11 21.7801 24.81 21.7401 25.64 21.9901C27.81 22.6401 29.86 23.5201 31.67 24.8801C32.52 25.5201 32.74 26.1701 32.23 26.7501C31.59 27.4801 30.97 27.1601 30.25 26.7601C28.65 25.8801 27 25.0901 25.33 24.3501C24.96 24.1901 24.39 24.2901 23.98 24.4501C20.06 26.0001 16.16 26.0101 12.25 24.4301C11.95 24.3101 11.5701 24.1901 11.2801 24.2701C8.03006 25.2001 5.11003 26.6201 3.38003 29.7501C2.42003 31.4901 2.62005 33.3801 2.59005 35.2401Z" fill="#EAAD48"/>
</svg>
