<svg width="61" height="75" viewBox="0 0 61 75" fill="none" xmlns="http://www.w3.org/2000/svg">
<path d="M24.69 24.6001C21.87 24.6001 19.04 24.6001 16.22 24.6001C15.84 24.6001 15.45 24.6201 15.08 24.5601C14.53 24.4701 14.21 24.0801 14.18 23.5501C14.15 23.0001 14.49 22.6201 15.02 22.5001C15.38 22.4201 15.77 22.4301 16.15 22.4301C21.85 22.4301 27.55 22.4301 33.26 22.4301C33.64 22.4301 34.03 22.4101 34.39 22.5101C34.91 22.6401 35.23 23.0001 35.2 23.5801C35.17 24.1401 34.84 24.4901 34.3 24.5701C33.93 24.6301 33.54 24.6001 33.16 24.6001C30.34 24.6001 27.51 24.6001 24.69 24.6001Z" fill="#EAAD48"/>
<path d="M41.57 32.8401C42.35 32.8601 42.74 33.1801 42.76 33.8301C42.79 34.5301 42.31 34.9401 41.5 34.9301C40.71 34.9301 40.14 34.4601 40.18 33.8401C40.21 33.2301 40.8 32.8101 41.58 32.8401H41.57Z" fill="#EAAD48"/>
<path d="M60.67 37.5101C60.65 35.1201 60.69 32.7201 60.66 30.3301C60.64 28.9101 60.1 28.4001 58.65 28.3601C57.07 28.3201 55.5 28.3601 53.92 28.3401C53.51 28.3401 53.09 28.2501 52.56 28.1901C52.56 27.4901 52.56 26.9001 52.56 26.3101C52.56 22.4501 52.54 18.5901 52.56 14.7301C52.56 13.2101 52.13 11.8301 50.84 11.0801C49.5 10.3001 48.54 9.37006 47.76 8.00006C46.92 6.54006 45.3 6.21007 43.62 6.21007C35.52 6.24007 27.41 6.22007 19.31 6.21007C18.74 6.21007 18.16 6.17006 17.62 6.15006C17.16 2.29006 15.39 0.210066 12.48 0.0200662C11.19 -0.0599338 10.02 0.380061 8.98 1.14006C7.3 2.37006 6.88 4.19006 6.76 6.23006C6.06001 6.23006 5.47001 6.19006 4.88 6.23006C2.84 6.40006 0.900005 7.85007 0.790005 9.82007C0.570005 13.7201 0.680005 17.6401 0.680005 21.5601C0.680005 22.1001 1 22.4601 1.62 22.4701C2.31 22.4701 2.6 22.1001 2.64 21.4701C2.66 21.0901 2.66 20.7101 2.66 20.3301C2.66 17.3901 2.66 14.4601 2.66 11.5201C2.66 10.1901 2.98 9.00006 4.38 8.50006C4.88 8.32006 5.45 8.27007 5.98 8.27007C8.7 8.25007 11.42 8.28007 14.14 8.27007C14.51 8.27007 14.85 8.26006 15.36 8.26006C15.36 10.6001 15.39 13.0601 15.34 15.3401C15.32 16.3401 14.56 17.0201 13.69 17.0001C12.91 16.9901 12.19 16.3401 12.05 15.4601C11.99 15.0901 12.02 14.7001 12.02 14.3201C12.02 13.2901 12.02 12.2501 12.01 11.2201C12.01 10.6101 11.8 10.1601 11.09 10.1201C10.4 10.0801 10.05 10.4701 10.05 11.0901C10.05 12.8301 9.96 14.5801 10.17 16.3001C10.39 18.1201 12.54 19.4101 14.35 19.0201C16.28 18.6101 17.42 17.2601 17.49 15.2101C17.54 13.6901 17.51 12.1601 17.52 10.6401C17.52 9.90006 17.52 9.16006 17.52 8.26006H19.35C22.45 8.26006 25.55 8.26006 28.65 8.26006C33.54 8.26006 38.44 8.29006 43.33 8.25006C45.28 8.23006 46.64 9.09006 46.72 11.2601V11.3301C46.72 11.4001 46.72 11.4701 46.72 11.5401V28.2701H46.59C45.97 28.3001 45.44 28.3401 44.91 28.3501C42.9 28.3601 40.88 28.3301 38.87 28.3701C37.42 28.4001 36.94 28.9301 36.9 30.3601C36.88 31.1601 36.9 31.9601 36.9 32.9201H34.94C26.95 32.9201 18.95 32.9201 10.96 32.9201C10.42 32.9201 9.83 32.8601 9.35001 33.0401C9.04 33.1601 8.68 33.6701 8.69 34.0001C8.7 34.3101 9.12 34.7501 9.45 34.8701C9.89 35.0301 10.42 34.9401 10.9 34.9401C18.89 34.9401 26.89 34.9401 34.88 34.9401C35.51 34.9401 36.15 34.9801 36.82 35.0001C36.85 35.6101 36.9 36.0401 36.88 36.4701C36.84 37.6801 36.8 38.8601 38.01 39.6601C38.2 39.7801 38.11 40.3201 38.16 40.8101H36.24C27.81 40.8101 19.38 40.8101 10.95 40.8101C10.46 40.8101 9.97 40.7901 9.48 40.8501C8.93 40.9301 8.6 41.3201 8.62 41.8701C8.64001 42.4101 8.94 42.7801 9.54 42.8101C10.03 42.8301 10.52 42.8501 11.01 42.8501C18.95 42.8501 26.89 42.8501 34.83 42.8501C35.39 42.8501 35.96 42.9101 36.82 42.9601C35.46 44.6201 34.28 45.9601 33.23 47.4001C32.52 48.3701 31.73 48.7401 30.5 48.7201C24.03 48.6501 17.56 48.6901 11.08 48.6901C10.7 48.6901 10.32 48.6701 9.94 48.7001C9.02 48.7801 8.57 49.1601 8.64001 49.8201C8.72001 50.5501 9.21 50.8101 9.89001 50.8101C10.27 50.8101 10.65 50.8101 11.03 50.8101C17.12 50.8101 23.21 50.8101 29.3 50.8101C29.88 50.8101 30.45 50.8101 31.08 50.8101C31.26 52.8201 31.95 54.3101 33.88 54.7601C35.79 55.2001 36.91 53.8601 38.21 52.3401C38.21 53.3401 38.21 53.93 38.21 54.5201C38.21 57.4001 38.18 60.2801 38.22 63.1701C38.25 65.0701 39.55 66.4201 41.32 66.5101C43.15 66.6001 44.53 65.47 44.81 63.58C44.91 62.89 44.86 62.1701 44.88 61.4601C44.9 60.5601 44.92 59.6601 44.94 58.9001L46.74 58.5301C47.98 58.2701 49.26 58.3901 50.43 58.8801C50.46 58.8901 50.5 58.9101 50.53 58.9201C50.53 62.4301 50.57 65.9101 50.51 69.3801C50.48 70.9101 49.46 71.8501 47.92 72.0301C47.6 72.0701 47.27 72.05 46.94 72.05C34.65 72.05 22.36 72.05 10.07 72.05C9.43 72.05 8.75 71.9901 8.15 71.7901C7.51 71.5801 6.89 71.2001 6.9 70.2201H8.92C20.18 70.2201 31.44 70.2201 42.69 70.2201C43.18 70.2201 43.67 70.2201 44.16 70.2201C47.08 70.2601 48.76 67.8701 48.82 65.5601C48.85 64.5801 48.85 63.6001 48.82 62.6201C48.79 61.6901 48.3 61.0901 47.67 61.1401C47.09 61.1801 46.69 61.7201 46.66 62.5901C46.63 63.6201 46.68 64.6601 46.64 65.6901C46.58 67.0701 45.7 68.0301 44.34 68.2101C43.91 68.2701 43.47 68.2301 43.04 68.2301C30.8 68.2301 18.57 68.2301 6.33 68.2301C6 68.2301 5.68 68.2501 5.35 68.2301C3.88 68.1301 2.93 67.28 2.7 65.83C2.62 65.3 2.63 64.7501 2.63 64.2001C2.63 51.8001 2.63 39.4001 2.63 27.0001C2.63 26.5701 2.71 26.0901 2.56 25.7101C2.43 25.3701 2.07 25.0001 1.74 24.8901C1.2 24.7301 0.780005 25.0801 0.680005 25.6301C0.600005 26.1101 0.620005 26.6001 0.620005 27.0901C0.620005 39.6501 0.620005 52.2201 0.620005 64.7801C0.620005 67.9301 1.48 69.1701 4.41 70.3C5.47 73.0601 6.78 74.07 9.44 74.08C22.17 74.09 34.89 74.0501 47.62 74.1201C50.17 74.1301 52.73 72.1701 52.58 69.1001C52.43 65.9501 52.54 62.7901 52.55 59.6401C52.55 59.1301 52.63 58.6201 52.68 57.9801C53.09 58.1201 53.3 58.1601 53.47 58.2601C55.93 59.6801 58.71 57.9201 58.62 55.0301C58.59 54.0001 58.62 52.9601 58.62 51.9301C58.62 51.4901 58.63 51.0601 58.62 50.6201C58.58 49.6401 58.18 49.2001 57.59 49.1801C56.99 49.1601 56.53 49.6201 56.48 50.5401C56.45 51.0601 56.44 51.5801 56.45 52.1001C56.47 53.1201 56.43 53.7801 56.45 54.6601C56.46 55.5901 56.39 56.3801 55.53 56.6301C54.85 56.8301 54.47 56.3401 54.09 55.8401C53.33 54.8201 52.67 54.8201 51.91 55.7501C50.88 57.0201 50.54 57.0201 49.47 55.7201C48.76 54.8501 48.06 54.8501 47.35 55.7201C46.19 57.1301 45.59 57.0501 44.89 55.4201C44.83 55.2701 44.63 54.9801 44.53 54.8701C44.29 54.6101 44.05 54.5101 43.75 54.5301C43.45 54.5501 43.06 54.8501 42.91 55.1301C42.75 55.4401 42.79 55.8701 42.78 56.2401C42.77 58.2001 42.78 60.16 42.78 62.11C42.78 62.49 42.81 62.8801 42.75 63.2501C42.64 64.0201 42.1 64.5101 41.45 64.4301C40.76 64.3501 40.39 63.9301 40.36 63.2301C40.35 62.8501 40.34 62.4701 40.34 62.0901C40.34 58.2301 40.34 54.3701 40.34 50.5101C40.34 50.0801 40.37 49.6301 40.28 49.2101C40.07 48.2501 39.19 47.9701 38.43 48.6301C38.14 48.8801 37.94 49.2401 37.67 49.5301C36.95 50.3001 36.27 51.1101 35.67 51.9801C35.22 52.6401 34.65 52.9301 33.96 52.5601C33.34 52.2301 33.03 51.3901 33.33 50.7301C33.51 50.3401 33.78 49.9901 34.06 49.6601C35.64 47.7201 37.19 45.7501 38.83 43.8701C39.8 42.7601 40.55 41.6501 40.41 40.1001C40.41 40.0301 40.53 39.9401 40.59 39.8701H56.47C56.47 41.4901 56.47 43 56.47 44.5201C56.47 44.9501 56.45 45.3901 56.51 45.8201C56.59 46.3701 56.95 46.6901 57.52 46.7001C58.09 46.7001 58.46 46.41 58.56 45.86C58.63 45.49 58.61 45.1001 58.62 44.7201C58.62 43.1501 58.62 41.5801 58.62 39.8901C59.84 39.5501 60.68 38.8901 60.66 37.5201L60.67 37.5101ZM8.55 6.17006C8.43001 4.63006 8.99 3.47007 10.16 2.63007C11.16 1.91007 12.91 1.99006 13.93 2.70006C15.04 3.48006 15.41 4.66007 15.52 6.10007C12.24 6.14007 11.76 6.10006 8.55 6.17006ZM48.96 12.3801C50.28 13.0301 50.58 14.0501 50.57 15.2601C50.57 18.7401 50.57 22.2101 50.56 25.6901C50.56 26.5001 50.56 27.3001 50.56 28.2701H48.96V12.3801ZM58.48 37.4101C57.33 37.7101 41.14 37.8001 38.98 37.4801V30.6401C40.23 30.3001 56.38 30.2101 58.37 30.5001C58.72 31.6601 58.77 35.6601 58.47 37.4101H58.48Z" fill="#EAAD48"/>
</svg>
