<svg width="103" height="74" viewBox="0 0 103 74" fill="none" xmlns="http://www.w3.org/2000/svg">
<path d="M46.48 43.3099C46.48 43.5299 46.51 43.7499 46.51 43.9799C46.51 53.0999 39.09 60.5199 29.97 60.5199C20.85 60.5199 13.43 53.0999 13.43 43.9799C13.43 34.8599 20.85 27.4399 29.97 27.4399C30.16 27.4399 30.35 27.4599 30.54 27.4699C30.4 26.8699 30.29 26.2699 30.21 25.6599C30.13 25.6599 30.05 25.6499 29.98 25.6499C19.87 25.6499 11.64 33.8799 11.64 43.9899C11.64 54.0999 19.87 62.3299 29.98 62.3299C40.09 62.3299 48.32 54.0999 48.32 43.9899C48.32 43.8699 48.3 43.7599 48.3 43.6399C47.69 43.5599 47.08 43.4599 46.49 43.3199L46.48 43.3099Z" fill="#EAAD48"/>
<path d="M56.14 43.2199C56.14 43.4699 56.18 43.7199 56.18 43.9799C56.18 58.43 44.43 70.1799 29.98 70.1799C15.53 70.1799 3.78 58.43 3.78 43.9799C3.78 29.53 15.53 17.7799 29.98 17.7799C30.18 17.7799 30.37 17.8099 30.57 17.8099C30.86 16.5899 31.24 15.3999 31.73 14.2699C31.15 14.2399 30.58 14.1799 29.99 14.1799C13.56 14.1799 0.190002 27.5499 0.190002 43.9799C0.190002 60.41 13.56 73.78 29.99 73.78C46.42 73.78 59.79 60.41 59.79 43.9799C59.79 43.32 59.73 42.6799 59.69 42.0399C58.56 42.5399 57.38 42.93 56.15 43.2299L56.14 43.2199Z" fill="#EAAD48"/>
<path d="M22.2225 17.2112L21.9361 22.9441L23.7338 23.0339L24.0202 17.3011L22.2225 17.2112Z" fill="#EAAD48"/>
<path d="M15.7722 21.0782L14.0012 21.4004L14.9194 26.4475L16.6903 26.1254L15.7722 21.0782Z" fill="#EAAD48"/>
<path d="M9.93421 25.8474L8.3558 26.7126L10.8698 31.2988L12.4482 30.4336L9.93421 25.8474Z" fill="#EAAD48"/>
<path d="M5.22236 32.4347L3.88449 33.6389L7.32984 37.4667L8.66771 36.2625L5.22236 32.4347Z" fill="#EAAD48"/>
<path d="M3.58737 39.2763L2.44753 40.6694L6.13151 43.6837L7.27136 42.2906L3.58737 39.2763Z" fill="#EAAD48"/>
<path d="M3.44148 47.376L2.66061 48.9978L7.08451 51.1278L7.86538 49.506L3.44148 47.376Z" fill="#EAAD48"/>
<path d="M4.70213 54.4544L4.35281 56.2202L9.57168 57.2526L9.921 55.4869L4.70213 54.4544Z" fill="#EAAD48"/>
<path d="M13.36 60.5898H7.97V62.3898H13.36V60.5898Z" fill="#EAAD48"/>
<path d="M19.0609 64.502L13.2082 65.729L13.5775 67.4908L19.4303 66.2638L19.0609 64.502Z" fill="#EAAD48"/>
<path d="M25.3207 66.5504L20.8065 69.8811L21.8751 71.3295L26.3894 67.9989L25.3207 66.5504Z" fill="#EAAD48"/>
<path d="M32.03 67.1647L28.2431 70.7283L29.4766 72.0391L33.2635 68.4755L32.03 67.1647Z" fill="#EAAD48"/>
<path d="M38.4267 65.1591L36.9347 70.5981L38.6705 71.0743L40.1626 65.6353L38.4267 65.1591Z" fill="#EAAD48"/>
<path d="M44.601 61.3871L43.9982 67.7285L45.7901 67.8988L46.3929 61.5574L44.601 61.3871Z" fill="#EAAD48"/>
<path d="M50.7605 56.1829L48.9983 56.5498L50.1233 61.954L51.8855 61.5871L50.7605 56.1829Z" fill="#EAAD48"/>
<path d="M53.3227 50.2155L51.6622 50.9102L53.9043 56.2701L55.5648 55.5755L53.3227 50.2155Z" fill="#EAAD48"/>
<path d="M55.5121 44.4273L53.9445 45.312L56.4218 49.7012L57.9894 48.8165L55.5121 44.4273Z" fill="#EAAD48"/>
<path d="M28.72 42.3399L19.34 38.5599L20.01 36.8899L26.73 39.5899L26.2 31.9799L28 31.8599L28.72 42.3399Z" fill="#EAAD48"/>
<path d="M22.21 52.8298L20.71 51.8498L24.68 45.7998L17.12 44.8198L17.35 43.0298L27.76 44.3798L22.21 52.8298Z" fill="#EAAD48"/>
<path d="M33.72 56.0999L30.18 49.7799L25.82 56.0399L24.35 55.0099L30.35 46.3999L35.29 55.2198L33.72 56.0999Z" fill="#EAAD48"/>
<path d="M38.94 53.2198L32.57 44.8699L42.48 42.8599L42.83 44.6199L35.74 46.0599L40.37 52.1299L38.94 53.2198Z" fill="#EAAD48"/>
<path d="M102.72 58.2799C102.57 55.7699 101.46 53.4698 99.58 51.7999L72.89 27.9899C74.03 23.9399 74.02 19.5199 72.6 15.2399C68.82 3.82985 56.45 -2.37013 45.05 1.40987C44.28 1.66987 43.49 1.97987 42.7 2.34987L40.73 3.26985L55.39 16.3099C56.1 16.9399 56.16 18.0299 55.53 18.7299L48.96 26.1098C48.33 26.8198 47.24 26.8799 46.54 26.2499L31.88 13.2099L31.2 15.2699C29.72 19.7399 29.72 24.4799 31.2 28.9699C34.23 38.1099 42.77 43.9099 51.91 43.9099C54.18 43.9099 56.48 43.5499 58.75 42.7999C59.14 42.6698 59.53 42.5299 59.91 42.3799L86.73 66.2399C88.47 67.7899 90.67 68.6199 92.97 68.6199C93.16 68.6199 93.34 68.6198 93.53 68.5998C96.04 68.4498 98.34 67.3399 100.01 65.4599L100.34 65.0899C102.01 63.2099 102.85 60.7998 102.7 58.2898L102.72 58.2799ZM57.87 40.0798C47.95 43.3699 37.21 37.9799 33.92 28.0599C32.86 24.8699 32.67 21.5399 33.33 18.3099L44.64 28.3699C46.52 30.0399 49.42 29.8799 51.09 27.9899L57.66 20.6098C59.33 18.7299 59.16 15.8299 57.28 14.1599L45.97 4.09987C55.88 0.829871 66.6 6.21987 69.89 16.1299C73.18 26.0499 67.78 36.7898 57.87 40.0798ZM98.22 63.1899L97.89 63.5599C96.73 64.8699 95.12 65.6499 93.37 65.7499C91.62 65.8499 89.94 65.2698 88.63 64.0998L63.56 41.7999L72.6 31.6299L97.67 53.9299C98.98 55.0899 99.76 56.6999 99.86 58.4499C99.96 60.1999 99.38 61.8799 98.21 63.1899H98.22Z" fill="#EAAD48"/>
</svg>
