<svg width="77" height="74" viewBox="0 0 77 74" fill="none" xmlns="http://www.w3.org/2000/svg">
<path d="M70.53 51.39C70.44 52.73 70.44 54.14 70.24 55.51C69.78 58.71 67.81 60.72 64.87 61.85C63.74 62.28 62.58 62.69 61.41 62.99C59.13 63.58 57.42 64.88 56.16 66.85C55.45 67.96 54.66 69.02 53.82 70.04C51.51 72.85 48.56 73.69 45.08 72.73C43.98 72.43 42.88 72.1 41.83 71.67C39.5 70.73 37.22 70.74 34.88 71.65C33.49 72.19 32.04 72.62 30.59 72.92C27.21 73.61 24.59 72.25 22.53 69.65C21.84 68.78 21.16 67.88 20.58 66.93C19.28 64.8 17.42 63.5 15.01 62.9C14.05 62.66 13.12 62.32 12.19 61.99C8.31 60.64 6.35 57.88 6.25 53.79C6.22 52.75 6.20001 51.71 6.27001 50.67C6.44001 48.25 5.76998 46.14 4.22998 44.25C3.31998 43.14 2.49 41.93 1.76 40.69C0.170005 37.97 0.170005 35.18 1.76 32.45C2.46 31.25 3.25 30.08 4.13 29.01C5.73 27.07 6.39997 24.9 6.28997 22.39C6.20997 20.73 6.29001 19.04 6.52001 17.39C6.91001 14.63 8.56 12.73 11.07 11.62C12.34 11.06 13.66 10.59 15.01 10.24C17.44 9.59999 19.31 8.29999 20.63 6.14999C21.28 5.09999 22.05 4.10999 22.83 3.13999C25.17 0.259986 28.16 -0.570014 31.69 0.419986C32.79 0.729986 33.89 1.04999 34.94 1.47999C37.25 2.40999 39.5 2.34999 41.82 1.47999C43.35 0.909986 44.96 0.459986 46.56 0.149986C48.96 -0.310014 51.14 0.359986 52.84 2.09999C54.02 3.29999 55.09 4.65999 56 6.07999C57.4 8.23999 59.23 9.65999 61.74 10.25C62.6 10.45 63.43 10.78 64.27 11.06C68.35 12.43 70.39 15.28 70.44 19.57C70.45 20.53 70.48 21.5 70.41 22.46C70.24 24.88 70.91 26.99 72.45 28.88C73.36 30 74.19 31.2 74.92 32.44C76.53 35.19 76.5 38 74.9 40.75C74.31 41.76 73.69 42.76 72.94 43.64C71.04 45.88 69.99 48.36 70.54 51.4L70.53 51.39ZM68.03 21.97C68.03 21.11 68.05 20.24 68.03 19.38C67.96 16.52 66.67 14.5 63.93 13.51C62.95 13.16 61.98 12.76 60.98 12.52C58.02 11.8 55.73 10.21 54.16 7.57999C53.73 6.85999 53.22 6.18999 52.71 5.52999C52.26 4.94999 51.78 4.38999 51.25 3.87999C49.95 2.63999 48.38 2.12999 46.63 2.55999C45.13 2.91999 43.64 3.34999 42.2 3.88999C39.63 4.83999 37.11 4.89999 34.56 3.88999C33.53 3.47999 32.45 3.15999 31.38 2.84999C28.23 1.91999 26.32 2.51999 24.29 5.10999C23.51 6.10999 22.77 7.13999 22.08 8.19999C20.76 10.22 18.95 11.53 16.64 12.22C15.07 12.69 13.5 13.23 11.99 13.88C10.06 14.7 8.94999 16.24 8.80999 18.34C8.68999 20.08 8.65999 21.84 8.67999 23.59C8.70999 25.79 8.08001 27.72 6.76 29.47C5.86 30.66 4.97002 31.87 4.15002 33.12C2.64002 35.41 2.63998 37.75 4.16998 40.03C5.00998 41.3 5.91001 42.53 6.83001 43.74C8.10001 45.42 8.72999 47.3 8.67999 49.41C8.64999 50.86 8.64999 52.3 8.67999 53.75C8.73999 56.61 10.04 58.63 12.79 59.61C13.65 59.92 14.5 60.27 15.38 60.48C18.58 61.24 21.07 62.93 22.73 65.81C23.1 66.44 23.55 67.04 24.01 67.61C24.5 68.22 25.02 68.82 25.59 69.36C26.84 70.52 28.36 70.98 30.02 70.59C31.54 70.23 33.06 69.8 34.53 69.26C36.99 68.35 39.41 68.22 41.88 69.16C43.11 69.63 44.38 70 45.63 70.4C48.33 71.25 50.53 70.49 52.23 68.27C53.08 67.16 53.9 66.03 54.68 64.88C55.99 62.92 57.76 61.64 60.01 60.95C61.61 60.46 63.2 59.92 64.73 59.27C66.7 58.44 67.77 56.86 67.92 54.73C68.03 53.09 68.08 51.43 68.03 49.79C67.96 47.43 68.66 45.36 70.09 43.5C71.06 42.23 71.99 40.93 72.82 39.57C74.01 37.63 74.02 35.61 72.85 33.66C72.09 32.4 71.26 31.18 70.34 30.04C68.64 27.94 67.85 25.6 68.05 22.91C68.07 22.61 68.05 22.3 68.05 22L68.03 21.97Z" fill="#EAAD48"/>
<path d="M58.7 36.5599C58.7 47.7899 49.52 56.9599 38.3 56.93C27.09 56.9 17.96 47.75 17.97 36.5599C17.98 25.3099 27.14 16.1799 38.38 16.1899C49.59 16.2099 58.71 25.3399 58.71 36.5499L58.7 36.5599ZM20.38 36.5199C20.35 46.41 28.43 54.51 38.32 54.52C48.17 54.52 56.24 46.4799 56.28 36.6099C56.32 26.7399 48.23 18.6299 38.34 18.6199C28.48 18.6199 20.41 26.6599 20.39 36.5199H20.38Z" fill="#EAAD48"/>
<path d="M66.02 24.1399C66.13 24.2299 66.16 24.2399 66.16 24.2599C66.6266 25.3199 66.3934 26.2066 65.46 26.9199C64.76 27.4499 64.06 27.9899 63.42 28.6699C64.68 28.2199 65.95 27.7699 67.28 27.2999C67.48 27.8399 67.66 28.3399 67.87 28.8899C65.45 29.7699 63.05 30.6499 60.7 31.5099C60.62 31.4499 60.6 31.4399 60.59 31.4199C60.0767 30.3599 60.29 29.4799 61.23 28.7799C61.98 28.2199 62.73 27.6599 63.48 27.0899C63.52 27.0599 63.53 27.0099 63.63 26.8399C62.18 27.3599 60.84 27.8399 59.42 28.3499C59.22 27.8199 59.03 27.3199 58.81 26.7599C61.27 25.8599 63.64 24.9999 66.01 24.1299L66.02 24.1399Z" fill="#EAAD48"/>
<path d="M45.85 65.8899C45 63.3999 44.18 61.0099 43.34 58.5699C43.86 58.3899 44.32 58.1699 44.81 58.0799C45.01 58.0399 45.32 58.2299 45.46 58.3999C46.22 59.3799 46.94 60.3799 47.82 61.2999C47.4 60.0399 46.97 58.7799 46.53 57.4799C47.07 57.2899 47.57 57.1199 48.13 56.9299C48.97 59.3799 49.79 61.7699 50.64 64.2599C50.12 64.4299 49.63 64.6399 49.13 64.7299C48.95 64.7599 48.65 64.5599 48.51 64.3699C47.74 63.3399 47 62.2899 46.09 61.3099C46.53 62.6199 46.98 63.9399 47.45 65.3199C46.95 65.4999 46.46 65.6699 45.86 65.8899H45.85Z" fill="#EAAD48"/>
<path d="M31.13 57.8899C32.1 58.1099 32.99 58.2799 33.86 58.5199C34.59 58.7199 35.25 59.0499 35.3 59.9599C35.36 61.0999 34.97 61.8399 34.05 62.2399C35.27 63.6099 33.9 64.9699 34.12 66.4399C33.52 66.3199 33.01 66.2199 32.34 66.0899C32.49 65.2499 32.58 64.4399 32.78 63.6499C32.96 62.9399 32.71 62.6499 31.95 62.5999C31.71 63.6499 31.47 64.6999 31.21 65.8199C30.63 65.6899 30.1 65.5699 29.51 65.4399C30.05 62.9299 30.58 60.4599 31.14 57.8899H31.13ZM32.57 59.5899C32.45 60.1699 32.33 60.7199 32.22 61.2499C33 61.5799 33.31 61.2899 33.45 60.6499C33.6 59.9899 33.38 59.6199 32.57 59.5899Z" fill="#EAAD48"/>
<path d="M15.04 51.4699C14.58 50.4999 15.54 50.5699 15.95 50.0999C16.39 50.7799 16.79 51.4099 17.23 52.0999C16.01 52.8699 14.84 53.6199 13.61 54.3999C13.43 53.8099 12.59 53.5399 13.08 52.7599C12.33 52.6099 11.85 52.1599 11.7 51.4299C11.53 50.6499 11.96 50.0899 12.55 49.6899C13.7 48.8999 14.87 48.1399 16.06 47.4199C17.23 46.7199 18.34 47.0799 19.09 48.3199C19.88 49.6299 19.68 50.5399 18.42 51.3399C18.29 51.4199 18.16 51.4999 17.97 51.6099C17.68 51.1799 17.39 50.7399 17.06 50.2499C17.32 50.0699 17.6 49.9599 17.74 49.7499C17.87 49.5599 17.98 49.1899 17.88 49.0399C17.78 48.8799 17.34 48.7399 17.19 48.8299C15.97 49.5499 14.78 50.3199 13.6 51.1199C13.46 51.2099 13.41 51.6599 13.51 51.8199C13.61 51.9699 13.99 52.0399 14.2 51.9799C14.48 51.9099 14.72 51.6799 15.05 51.4799L15.04 51.4699Z" fill="#EAAD48"/>
<path d="M23.1599 53.2001C23.6099 53.6201 24 53.9801 24.45 54.4001C23.63 55.3001 22.83 56.1701 22.03 57.0401C21.51 57.6001 21.02 58.1801 20.48 58.7101C19.61 59.5601 18.4099 59.5401 17.4699 58.6901C16.4699 57.7801 16.27 56.5801 17.08 55.6601C18.37 54.1901 19.72 52.7801 21.07 51.3101C21.51 51.7101 21.92 52.0901 22.37 52.5001C21.17 53.7901 19.99 55.0401 18.84 56.3301C18.54 56.6601 17.83 57.0101 18.38 57.5601C18.95 58.1201 19.26 57.3901 19.57 57.0701C20.76 55.8301 21.92 54.5501 23.15 53.2101L23.1599 53.2001Z" fill="#EAAD48"/>
<path d="M58.82 24.98C57.64 24.96 56.77 24.25 56.41 23.18C56.13 22.34 56.38 21.43 57.14 20.88C58.22 20.08 59.32 19.31 60.44 18.58C61.45 17.93 62.53 18.21 63.3 19.24C64.11 20.33 64.12 21.46 63.16 22.22C62.03 23.12 60.83 23.92 59.63 24.73C59.35 24.92 58.97 24.94 58.82 24.99V24.98ZM62.37 20.46C62.37 19.94 61.88 19.72 61.47 20C60.36 20.76 59.26 21.52 58.19 22.34C58.01 22.48 58.02 22.87 57.95 23.15C58.22 23.16 58.57 23.29 58.75 23.17C59.87 22.43 60.96 21.65 62.05 20.86C62.2 20.75 62.3 20.56 62.38 20.47L62.37 20.46Z" fill="#EAAD48"/>
<path d="M19.2 25.0099C18.88 25.4599 18.59 25.8899 18.23 26.3999C16.42 24.4699 14.65 22.5699 12.87 20.6799C12.8 20.7499 12.73 20.8099 12.67 20.8799C12.68 20.8299 12.68 20.7799 12.71 20.7399C13.12 20.1699 13.43 19.2999 13.97 19.1099C14.46 18.9399 15.21 19.4999 15.84 19.7599C17.58 20.4999 19.32 21.2599 21.16 22.0599C20.82 22.5799 20.5 23.0499 20.15 23.5699C19.73 23.3799 19.33 23.1999 18.9 22.9999C18.68 23.3399 18.47 23.6499 18.24 23.9999C18.56 24.3399 18.86 24.6599 19.21 25.0199L19.2 25.0099ZM17.67 22.2999C16.7 21.7999 15.77 21.3099 14.85 20.8299C14.82 20.8799 14.79 20.9399 14.76 20.9899C15.55 21.6699 16.34 22.3499 17.17 23.0699C17.36 22.7799 17.49 22.5699 17.67 22.3099V22.2999Z" fill="#EAAD48"/>
<path d="M42.17 6.73004C42.44 9.33004 42.7 11.88 42.97 14.53C42.58 14.51 42.28 14.46 41.99 14.48C41.34 14.53 41.04 14.32 41.07 13.59C41.12 12.53 40.29 13.1 39.8 12.93C39.69 13.38 39.59 13.77 39.47 14.24C38.94 14.21 38.39 14.17 37.75 14.13C38.1 12.85 38.44 11.62 38.77 10.39C39.08 9.27004 39.36 8.14004 39.71 7.03004C39.77 6.83004 40.09 6.58004 40.3 6.58004C40.9 6.57004 41.5 6.67004 42.16 6.73004H42.17ZM40.92 11.64V8.32004C40.92 8.32004 40.82 8.31004 40.78 8.30004C40.55 9.37004 40.33 10.44 40.09 11.55C40.41 11.58 40.63 11.6 40.92 11.64Z" fill="#EAAD48"/>
<path d="M26.31 64.37C25.72 64.06 25.23 63.8 24.71 63.53C24.87 63.08 25.01 62.69 25.17 62.23C24.82 62.04 24.5 61.86 24.1 61.64C23.82 62 23.55 62.35 23.25 62.74C22.74 62.48 22.26 62.23 21.7 61.94C23.32 59.87 24.91 57.84 26.55 55.75C27.16 56.06 27.76 56.36 28.34 56.7C28.46 56.77 28.57 57.05 28.53 57.18C27.82 59.55 27.08 61.91 26.31 64.38V64.37ZM24.89 60.54C25.2 60.69 25.43 60.8 25.72 60.94C26.13 59.88 26.51 58.88 26.89 57.88C26.85 57.86 26.8 57.84 26.76 57.82C26.16 58.69 25.56 59.56 24.89 60.53V60.54Z" fill="#EAAD48"/>
<path d="M42.58 66.4999C41.4667 66.6132 40.7367 66.2032 40.39 65.2699C40.04 65.2899 39.67 65.3199 39.23 65.3399C39.17 65.7799 39.11 66.1899 39.04 66.6899C38.79 66.6999 38.52 66.7299 38.25 66.7299C37.98 66.7299 37.7 66.7299 37.33 66.7299C37.67 64.1299 38 61.5799 38.34 58.9999C39.03 58.9599 39.68 58.8899 40.33 58.8899C40.48 58.8899 40.73 59.0999 40.77 59.2499C41.38 61.6499 41.97 64.0499 42.57 66.4999H42.58ZM39.7 60.5799C39.7 60.5799 39.61 60.5799 39.56 60.5899C39.49 61.6999 39.42 62.7999 39.35 63.9799C39.72 63.9299 39.94 63.8999 40.24 63.8499C40.05 62.7199 39.88 61.6499 39.7 60.5799Z" fill="#EAAD48"/>
<path d="M13.89 30.76C14.08 30.22 14.24 29.75 14.42 29.24C14.74 29.31 15.02 29.45 15.27 29.41C15.52 29.36 15.92 29.12 15.91 28.98C15.91 28.73 15.67 28.31 15.47 28.27C15.14 28.21 14.72 28.32 14.41 28.48C13.83 28.78 13.32 29.22 12.74 29.53C11.47 30.2 9.72004 29.46 9.52004 28.18C9.37004 27.2 9.68004 26.3 10.39 25.62C11.14 24.91 11.97 25.2 12.85 25.58C12.68 26.07 12.52 26.54 12.35 27.05C12.09 27 11.84 26.89 11.61 26.91C11.39 26.93 11.11 27.03 10.99 27.19C10.89 27.32 10.9101 27.69 11.0301 27.8C11.1801 27.95 11.49 28.03 11.7 27.98C12.01 27.91 12.29 27.7 12.58 27.55C13.2 27.21 13.8 26.81 14.44 26.53C15.71 25.97 17.19 26.79 17.37 28.16C17.5 29.17 17.19 30.09 16.37 30.73C15.63 31.31 14.81 31.13 13.9 30.75L13.89 30.76Z" fill="#EAAD48"/>
<path d="M30.26 10.1501C29.78 10.3401 29.34 10.5201 28.84 10.7201C28.73 10.5401 28.66 10.3301 28.52 10.2201C28.31 10.0401 28.06 9.84007 27.81 9.82007C27.67 9.81007 27.34 10.1801 27.38 10.3101C27.44 10.5601 27.66 10.8401 27.89 10.9601C28.31 11.1801 28.79 11.2901 29.24 11.4501C29.69 11.6201 30.15 11.7601 30.58 11.9801C31.71 12.5501 32.09 14.1101 31.31 15.1101C30.66 15.9501 29.75 16.3201 28.7 16.1801C27.7 16.0401 27.32 15.2701 26.99 14.3301C27.51 14.1101 28.01 13.9101 28.54 13.6901C28.71 14.0001 28.79 14.3401 29 14.5101C29.18 14.6601 29.59 14.7401 29.76 14.6401C29.93 14.5301 30.07 14.0601 29.97 13.9101C29.78 13.6201 29.45 13.3601 29.12 13.2301C28.56 13.0001 27.96 12.8901 27.38 12.6901C26.17 12.2801 25.45 10.9701 25.81 9.87007C26.14 8.85007 27.84 8.03007 28.9 8.37007C29.56 8.58007 29.89 9.01007 30.25 10.1701L30.26 10.1501Z" fill="#EAAD48"/>
<path d="M10.55 33.0801C10.88 33.5201 11.22 33.9601 11.55 34.4001C11.85 34.8101 12.2 34.9501 12.73 34.8001C13.25 34.6501 13.81 34.6301 14.59 34.5201C14.27 35.1801 14.09 35.6901 13.8 36.1301C13.48 36.6201 13.49 37.0301 13.8 37.5201C14.08 37.9501 14.29 38.4301 14.63 39.1001C13.98 39.0301 13.55 39.0501 13.17 38.9301C12.33 38.6501 11.71 38.8601 11.21 39.5701C10.98 39.9001 10.71 40.1901 10.45 40.5001C10.35 40.4601 10.25 40.4201 10.15 40.3801C10.05 39.8601 9.9 39.3401 9.88 38.8201C9.86 38.1901 9.58002 37.8601 9.02002 37.6401C8.54002 37.4501 8.09 37.1801 7.63 36.9501C7.63 36.8701 7.63 36.7901 7.63 36.7101C8.09 36.4801 8.53001 36.2101 9.01001 36.0301C9.61001 35.8101 9.88001 35.4401 9.89001 34.7901C9.89001 34.3001 10.05 33.8101 10.14 33.3201C10.27 33.2401 10.4 33.1601 10.54 33.0901L10.55 33.0801Z" fill="#EAAD48"/>
<path d="M65.54 33.47C65.67 34.23 65.81 34.75 65.83 35.28C65.85 35.88 66.14 36.18 66.66 36.39C67.14 36.59 67.59 36.85 68.27 37.2C67.62 37.54 67.18 37.81 66.71 38C66.17 38.22 65.84 38.52 65.83 39.16C65.83 39.67 65.67 40.19 65.53 40.97C64.99 40.43 64.58 40.07 64.23 39.66C63.86 39.23 63.49 39.06 62.91 39.23C62.4 39.38 61.85 39.39 61.07 39.5C61.45 38.77 61.68 38.25 61.98 37.76C62.22 37.37 62.24 37.05 61.99 36.65C61.69 36.17 61.46 35.64 61.07 34.89C61.69 34.97 62.11 34.96 62.48 35.08C63.34 35.36 63.99 35.16 64.52 34.42C64.75 34.11 65.08 33.88 65.53 33.46L65.54 33.47Z" fill="#EAAD48"/>
<path d="M49.74 11.6199C49.21 11.4299 48.71 11.2499 48.16 11.0499C48.26 10.6899 48.41 10.3599 48.42 10.0299C48.42 9.80987 48.26 9.51987 48.08 9.39987C47.99 9.33987 47.57 9.53987 47.51 9.69987C47.01 11.0199 46.53 12.3599 46.11 13.7099C46.06 13.8799 46.3 14.1499 46.41 14.3699C46.63 14.2499 46.93 14.1799 47.05 13.9899C47.26 13.6599 47.35 13.2499 47.51 12.8299C48.07 13.0299 48.5801 13.2199 49.0901 13.3999C48.7401 14.8899 48.02 15.6299 46.88 15.6899C45.26 15.7799 44.08 14.3199 44.55 12.7599C44.88 11.6399 45.28 10.5399 45.68 9.44987C46.17 8.09987 47.19 7.62987 48.52 8.08987C49.9 8.56987 50.4501 9.58987 50.0301 10.9399C49.9601 11.1499 49.86 11.3499 49.75 11.6099L49.74 11.6199Z" fill="#EAAD48"/>
<path d="M64.13 52.78C61.88 51.51 59.68 50.26 57.4 48.98C58.04 47.84 58.66 46.72 59.33 45.52C59.75 45.75 60.13 45.97 60.6 46.23C60.25 46.86 59.92 47.47 59.55 48.14C60 48.41 60.41 48.64 60.87 48.92C61.2 48.36 61.5 47.84 61.83 47.27C62.26 47.51 62.65 47.73 63.1 47.97C62.79 48.54 62.52 49.04 62.2 49.63C62.68 49.91 63.15 50.19 63.69 50.51C64.08 49.85 64.44 49.23 64.84 48.54C65.26 48.78 65.65 49 66.1 49.26C65.44 50.44 64.8 51.57 64.12 52.78H64.13Z" fill="#EAAD48"/>
<path d="M53.75 53.12C54.69 52.12 55.55 51.2 56.46 50.24C56.83 50.58 57.15 50.89 57.52 51.23C57.04 51.75 56.58 52.25 56.05 52.83C56.44 53.16 56.82 53.48 57.25 53.84C57.63 53.42 58.03 52.96 58.46 52.47C58.86 52.84 59.19 53.15 59.56 53.49C59.13 53.97 58.73 54.42 58.29 54.92C58.7 55.31 59.1 55.68 59.56 56.1C60.09 55.54 60.59 55.01 61.13 54.45C61.49 54.78 61.8 55.08 62.2 55.45C61.29 56.42 60.4 57.38 59.44 58.41C57.55 56.65 55.68 54.91 53.76 53.12H53.75Z" fill="#EAAD48"/>
<path d="M36.08 6.54003C36.14 7.07003 36.19 7.51003 36.24 7.98003C35.6 8.09003 35.03 8.18003 34.38 8.29003C34.44 8.77003 34.5 9.23003 34.57 9.79003C35.15 9.73003 35.69 9.68003 36.29 9.62003C36.36 10.08 36.42 10.52 36.49 11.02C35.93 11.12 35.42 11.21 34.79 11.32C34.92 12.34 35.04 13.35 35.18 14.47C34.62 14.56 34.08 14.65 33.47 14.75C33.11 12.18 32.75 9.66003 32.39 7.07003C33.6 6.89003 34.77 6.72003 36.07 6.53003L36.08 6.54003Z" fill="#EAAD48"/>
<path d="M51.51 18.4201C51.01 18.0901 50.55 17.7901 50.04 17.4501C51.18 15.7001 52.29 13.9901 53.45 12.2201C53.16 12.0101 52.89 11.8001 52.53 11.5401C52.78 11.1501 53.03 10.7601 53.31 10.3101C54.45 11.0501 55.55 11.7701 56.71 12.5301C56.45 12.9401 56.21 13.3101 55.94 13.7301C55.61 13.5501 55.31 13.3901 54.93 13.1801C53.79 14.9201 52.66 16.6501 51.51 18.4101V18.4201Z" fill="#EAAD48"/>
<path d="M51.11 56.88C50.76 57.08 50.46 57.26 50.12 57.45C49.86 57.05 49.61 56.68 49.33 56.26C50.46 55.51 51.55 54.78 52.71 54.01C52.99 54.42 53.26 54.8 53.53 55.2C53.2 55.44 52.92 55.65 52.58 55.89C53.72 57.62 54.85 59.32 56.02 61.09C55.55 61.41 55.1 61.72 54.57 62.08C53.4 60.33 52.26 58.61 51.1 56.87L51.11 56.88Z" fill="#EAAD48"/>
<path d="M19.08 13.3999C19.43 13.7699 19.73 14.0799 20.14 14.5199C19.82 14.7099 19.52 14.8899 19.15 15.1099C20.71 16.7599 22.12 18.2699 23.58 19.8099C23.14 20.2199 22.73 20.5899 22.3 20.9999C20.86 19.4799 19.45 17.9999 18.01 16.4799C17.71 16.7299 17.42 16.9599 17.1 17.2099C16.78 16.8899 16.48 16.5799 16.12 16.2099C17.11 15.2799 18.07 14.3599 19.09 13.3999H19.08Z" fill="#EAAD48"/>
<path d="M26.9 17.4199C26.41 17.7499 25.96 18.0399 25.43 18.3899C24.02 16.2399 22.63 14.1099 21.19 11.9099C21.66 11.5899 22.11 11.2799 22.65 10.9099C24.07 13.0899 25.48 15.2399 26.9 17.4199Z" fill="#EAAD48"/>
<path d="M58.69 14.23C59.14 14.65 59.54 15.03 59.97 15.43C58.18 17.32 56.43 19.16 54.64 21.05C54.2 20.64 53.8 20.26 53.36 19.85C55.15 17.97 56.9 16.12 58.69 14.23Z" fill="#EAAD48"/>
<path d="M34.92 32.0099C35 31.2899 35.02 30.6299 35.15 29.9899C35.39 28.8899 35.96 27.9599 36.9 27.3199C38.55 26.1799 40.54 27.1399 40.65 29.1399C40.71 30.3199 41.07 31.3299 42.05 32.0299C42.23 32.1599 42.5 32.1999 42.73 32.1899C43.51 32.1599 44.29 32.0299 45.07 32.0499C46.53 32.0899 47.45 33.0799 47.46 34.5499C47.47 37.0599 47.47 39.5699 47.46 42.0799C47.46 43.5199 46.52 44.5099 45.1 44.5099C44.2 44.5099 43.31 44.3299 42.41 44.2499C42.22 44.2299 42.01 44.2299 41.83 44.2899C39.21 45.0399 36.54 45.1499 33.84 45.0799C32.4 45.0399 31.45 44.3199 31.05 42.9499C30.9 42.4299 30.59 41.9399 30.48 41.4099C30.16 39.8399 29.41 38.3699 29.48 36.7199C29.49 36.4799 29.41 36.2299 29.34 35.9899C28.75 33.9399 29.86 32.3099 31.99 32.1499C32.95 32.0799 33.91 32.0599 34.91 32.0099H34.92ZM33.75 41.4099C33.1 41.4499 32.68 41.6899 32.81 42.3999C32.93 43.0599 33.36 43.3099 34.02 43.2899C34.91 43.2699 35.8 43.3099 36.68 43.2799C38.71 43.1999 40.71 42.9499 42.57 42.0499C42.67 41.9999 42.95 42.0599 42.97 42.1199C43.19 43.0499 43.94 42.7599 44.52 42.7699C45.58 42.7999 45.66 42.6999 45.66 41.6699C45.66 39.4599 45.68 37.2499 45.64 35.0499C45.64 34.6799 45.43 34.0099 45.26 33.9799C44.58 33.8999 43.57 33.7499 43.26 34.1199C42.72 34.7499 42.56 34.3899 42.11 34.1799C40.04 33.2199 38.97 31.6299 38.86 29.3499C38.85 29.1299 38.71 28.7799 38.55 28.7299C38.34 28.6599 37.99 28.7499 37.81 28.8899C37.14 29.4299 36.79 30.1699 36.82 31.0199C36.85 31.9399 36.98 32.8599 37.08 33.7999C37 33.7999 36.88 33.8199 36.75 33.8199C35.23 33.8599 33.71 33.8799 32.19 33.9499C31.28 33.9899 30.99 34.3199 31.02 35.0999C31.05 35.8199 31.38 36.0799 32.24 36.1099C32.4 36.1099 32.57 36.1299 32.73 36.1499C32.08 36.3699 31.19 36.3099 31.28 37.3299C31.32 37.7399 31.55 38.2499 31.86 38.4899C32.19 38.7299 32.72 38.6999 33.19 38.7899C32.01 39.0199 31.83 39.1399 31.83 39.6799C31.83 40.7099 32.34 41.1699 33.74 41.3999L33.75 41.4099Z" fill="#EAAD48"/>
</svg>
