<svg width="78" height="72" viewBox="0 0 78 72" fill="none" xmlns="http://www.w3.org/2000/svg">
<path d="M75.1599 31.2298H72.63V4.78984C72.27 5.06984 72.08 5.18989 71.92 5.33989C69.77 7.47989 67.6 9.60985 65.5 11.7999C65.13 12.1799 64.86 12.8399 64.86 13.3699C64.81 18.0199 64.84 22.6799 64.82 27.3299C64.82 27.9799 64.98 28.3498 65.59 28.6698C73.81 32.9498 78.53 41.6599 77.68 50.9399C76.86 59.8699 70.54 67.5599 61.74 70.3399C58.77 71.2799 55.71 71.3799 52.64 71.2999C51.78 71.2799 51.2699 70.7298 51.2899 69.9798C51.3099 69.1998 51.83 68.7699 52.8 68.7099C59.37 68.3299 64.03 65.1399 66.45 59.0199C68.19 54.6199 67.65 50.2799 65.27 46.1899C65.21 46.0799 65.11 45.9999 64.83 45.6799C64.83 46.3199 64.83 46.7099 64.83 47.0899C64.83 51.5099 64.83 55.9299 64.83 60.3399C64.83 61.8999 64.5 62.2399 62.94 62.2399C42.68 62.2399 22.42 62.2399 2.15997 62.2399C0.599973 62.2399 0.22998 61.8898 0.22998 60.3598C0.22998 44.3699 0.229971 28.3899 0.219971 12.3999C0.219971 11.6799 0.409972 11.1198 0.939972 10.5998C4.21997 7.34984 7.45999 4.04988 10.77 0.82988C11.17 0.44988 11.9 0.239854 12.4799 0.239854C21.8899 0.199854 31.29 0.219834 40.7 0.219834C51.52 0.219834 62.3399 0.219834 73.1599 0.219834C74.9099 0.219834 75.1599 0.469875 75.1599 2.19988C75.1599 11.4399 75.1599 20.6798 75.1599 29.9198C75.1599 30.3198 75.1599 30.7199 75.1599 31.2099V31.2298ZM62.21 13.2198H37.7C37.7 13.6598 37.7 14.0199 37.7 14.3799C37.7 16.8399 37.7 19.2999 37.7 21.7699C37.7 23.1199 37.31 23.5099 35.95 23.5199C33.66 23.5299 31.37 23.5299 29.07 23.5199C27.81 23.5199 27.38 23.0698 27.38 21.7898C27.37 19.2898 27.38 16.7999 27.38 14.2999C27.38 13.9399 27.35 13.5898 27.33 13.2298H2.94998V59.5899H62.26C62.26 59.1599 62.26 58.7899 62.26 58.4299C62.26 54.2499 62.26 50.0699 62.26 45.8899C62.26 42.0799 62.18 41.9199 58.68 40.3399C57.77 39.9299 56.78 39.6399 55.81 39.3899C55.01 39.1899 54.18 39.1299 53.2299 38.9899C53.2299 39.5099 53.2299 39.8699 53.2299 40.2399C53.2299 41.8899 53.28 43.5499 53.2 45.1999C53.18 45.6699 52.8999 46.3599 52.5399 46.5299C52.1199 46.7199 51.3699 46.6298 50.9799 46.3498C45.06 42.1798 39.17 37.9598 33.28 33.7298C32.28 33.0098 32.28 32.0699 33.3 31.3399C39.19 27.1199 45.08 22.8998 51 18.7198C51.37 18.4598 52.12 18.3099 52.45 18.5099C52.84 18.7399 53.17 19.3999 53.2 19.8899C53.29 21.5699 53.23 23.2599 53.24 24.9499C53.24 25.2999 53.28 25.6599 53.28 25.7999C56.36 26.1798 59.2699 26.5498 62.2199 26.9198V13.2399L62.21 13.2198ZM50.5999 42.8999C50.5999 41.1999 50.5999 39.7499 50.5999 38.3099C50.5999 36.7799 50.99 36.3599 52.51 36.3999C59.74 36.5899 65.17 39.8699 68.28 46.3699C71.39 52.8799 70.47 59.1499 66.09 64.8899C65.93 65.1099 65.78 65.3298 65.62 65.5499C66.05 65.4398 66.3699 65.2498 66.67 65.0398C73.57 60.2898 76.8 51.1099 74.39 43.1399C71.8 34.5999 64.14 28.7399 55.5 28.6799C54.39 28.6799 53.2799 28.6998 52.1599 28.6698C51.0799 28.6398 50.64 28.1798 50.61 27.1098C50.59 26.3698 50.61 25.6299 50.61 24.8799C50.61 24.0399 50.61 23.1899 50.61 22.1499C45.66 25.6899 40.9299 29.0699 36.0999 32.5199C40.9499 35.9899 45.68 39.3699 50.61 42.8899L50.5999 42.8999ZM4.77997 10.4599C5.13997 10.5199 5.26996 10.5599 5.39996 10.5599C12.75 10.5599 20.09 10.5598 27.44 10.5398C27.85 10.5398 28.35 10.2899 28.65 9.99986C30.87 7.83986 33.05 5.62986 35.24 3.42986C35.38 3.28986 35.4699 3.08988 35.5999 2.88988C35.4299 2.84988 35.37 2.81987 35.31 2.81987C27.9 2.81987 20.48 2.80987 13.07 2.81987C12.76 2.81987 12.3699 2.92987 12.1599 3.12987C9.72994 5.50987 7.33997 7.90989 4.77997 10.4599ZM39.74 10.2999C39.79 10.3799 39.84 10.4499 39.89 10.5299C40.09 10.5399 40.2799 10.5599 40.4799 10.5599C47.7299 10.5599 54.9799 10.5698 62.2199 10.5398C62.6599 10.5398 63.2 10.2898 63.52 9.97984C65.72 7.83984 67.8799 5.65985 70.0399 3.48985C70.1899 3.32985 70.32 3.14986 70.58 2.80986C70.08 2.80986 69.76 2.80986 69.44 2.80986C62.7 2.80986 55.96 2.83989 49.21 2.77989C47.86 2.76989 46.89 3.09984 45.95 4.09984C43.95 6.23984 41.82 8.23985 39.7299 10.2999H39.74ZM43.45 3.08989C43.39 2.99989 43.32 2.89986 43.26 2.80986C42.32 2.80986 41.37 2.73989 40.44 2.83989C39.93 2.88989 39.3199 3.09988 38.9699 3.44988C36.1299 6.21988 33.3199 9.02986 30.5399 11.8699C30.2099 12.2099 29.99 12.7899 29.9799 13.2699C29.92 15.4899 29.95 17.7199 29.96 19.9399C29.96 20.2299 30.01 20.5199 30.03 20.8199H35.0999C35.0999 20.3799 35.0999 20.0099 35.0999 19.6499C35.0999 17.2599 35.1199 14.8698 35.0999 12.4798C35.0899 11.6798 35.3299 11.0599 35.9099 10.5099C36.7399 9.72987 37.5299 8.88989 38.3499 8.08989C40.0499 6.42989 41.75 4.76985 43.46 3.10985L43.45 3.08989Z" fill="#EAAD48"/>
<path d="M20.83 51.8799H5.5V49.3899H20.83V51.8799Z" fill="#EAAD48"/>
<path d="M20.87 54.5598V57.0098H5.48999V54.5598H20.87Z" fill="#EAAD48"/>
</svg>
