<svg width="62" height="82" viewBox="0 0 62 82" fill="none" xmlns="http://www.w3.org/2000/svg">
<path fill-rule="evenodd" clip-rule="evenodd" d="M36.54 19.6H26.97V21.32L31.63 25.74L36.54 20.83V19.6ZM22.56 28.19C25.5 29.17 29.84 33.01 31.64 34.81C33.44 33.01 38.02 28.92 40.96 27.94V22.54L39.73 22.05C37.52 23.28 32.62 26.42 31.64 28.18C31.45 27.84 31.12 27.45 30.7 27.05C29.03 25.32 25.41 23.09 23.54 22.05L22.31 22.54V27.94C22.39 27.97 22.47 28 22.56 28.03V28.19ZM23.79 31.62C26 32.85 30.66 35.74 31.64 37.51C32.62 35.74 37.28 32.85 39.49 31.62L40.72 32.11V37.51C37.78 38.49 33.44 42.33 31.64 44.13C29.84 42.33 25.51 38.49 22.56 37.51V32.11L23.79 31.62ZM22.56 46.83C25.5 47.81 29.84 51.65 31.64 53.45C33.44 51.65 37.77 47.81 40.72 46.83V41.43L39.49 40.94C37.28 42.17 32.62 45.06 31.64 46.83C30.66 45.06 26 42.17 23.79 40.94L22.56 41.43V46.83ZM23.79 50.26C26 51.49 30.66 54.38 31.64 56.15C32.62 54.38 37.28 51.49 39.49 50.26L40.72 50.75V56.15C37.78 57.13 33.44 60.97 31.64 62.77C29.84 60.97 25.51 57.13 22.56 56.15V50.75L23.79 50.26ZM22.56 65.47C25.5 66.45 29.84 70.29 31.64 72.09C33.44 70.29 37.77 66.45 40.72 65.47V60.07L39.49 59.58C37.28 60.81 32.62 63.7 31.64 65.47C30.66 63.7 26 60.81 23.79 59.58L22.56 60.07V65.47ZM23.79 68.9C26 70.13 30.66 73.02 31.64 74.79C32.62 73.02 37.28 70.13 39.49 68.9L40.72 69.39V74.79C37.78 75.77 33.44 79.61 31.64 81.41C29.84 79.61 25.51 75.77 22.56 74.79V69.39L23.79 68.9ZM20.11 21.31V26.95C17 26.62 10.25 26.36 8.09 27.93C5.39 29.89 8.83 24.25 11.28 22.29C13.73 20.33 18.15 19.59 20.11 21.31ZM6.62 31.12V36.76C6.78 37.25 7.4 38.04 8.58 37.25C10.05 36.27 17.9 36.51 18.88 36.76C19.66 36.96 20.02 36.02 20.11 35.53V30.38C17.66 29.4 11.52 28.17 6.62 31.12ZM6.62 45.72V40.08C11.53 37.14 17.66 38.36 20.11 39.34V44.49C20.03 44.98 19.67 45.91 18.88 45.72C17.9 45.47 10.05 45.23 8.58 46.21C7.4 46.99 6.78 46.21 6.62 45.72ZM6.62 49.89V55.53C6.78 56.02 7.4 56.81 8.58 56.02C10.05 55.04 17.9 55.28 18.88 55.53C19.66 55.73 20.02 54.79 20.11 54.3V49.15C17.66 48.17 11.52 46.94 6.62 49.89ZM6.62 65.34V59.7C11.53 56.76 17.66 57.98 20.11 58.96V64.11C20.03 64.6 19.67 65.53 18.88 65.34C17.9 65.09 10.05 64.85 8.58 65.83C7.4 66.61 6.78 65.83 6.62 65.34ZM6.62 69.51V75.15C6.78 75.64 7.4 76.43 8.58 75.64C10.05 74.66 17.9 74.9 18.88 75.15C19.66 75.35 20.02 74.41 20.11 73.92V68.77C17.66 67.79 11.52 66.56 6.62 69.51ZM42.92 26.68V21.04C44.88 19.32 49.3 20.06 51.75 22.02C54.2 23.98 57.64 29.62 54.94 27.66C52.78 26.09 46.03 26.35 42.92 26.68ZM56.41 36.49V30.85C51.5 27.91 45.37 29.13 42.92 30.11V35.26C43 35.75 43.36 36.68 44.15 36.49C45.13 36.24 52.98 36 54.45 36.98C55.63 37.76 56.25 36.98 56.41 36.49ZM56.41 39.81V45.45C56.25 45.94 55.63 46.73 54.45 45.94C52.98 44.96 45.13 45.2 44.15 45.45C43.37 45.65 43.01 44.71 42.92 44.22V39.07C45.37 38.09 51.51 36.86 56.41 39.81ZM56.41 55.26V49.62C51.5 46.68 45.37 47.9 42.92 48.88V54.03C43 54.52 43.36 55.45 44.15 55.26C45.13 55.01 52.98 54.77 54.45 55.75C55.63 56.53 56.25 55.75 56.41 55.26ZM56.41 59.43V65.07C56.25 65.56 55.63 66.35 54.45 65.56C52.98 64.58 45.13 64.82 44.15 65.07C43.37 65.27 43.01 64.33 42.92 63.84V58.69C45.37 57.71 51.51 56.48 56.41 59.43ZM56.41 74.88V69.24C51.5 66.3 45.37 67.52 42.92 68.5V73.65C43 74.14 43.36 75.07 44.15 74.88C45.13 74.63 52.98 74.39 54.45 75.37C55.63 76.15 56.25 75.37 56.41 74.88Z" fill="#EAAD48"/>
<path fill-rule="evenodd" clip-rule="evenodd" d="M58.84 9.96001L42.01 17.95V13.44H20.02V17.95L3.19 9.96001L20.02 1.97V6.48H42.01V1.97L58.84 9.96001Z" fill="#EAAD48" stroke="white" stroke-width="2" stroke-miterlimit="10"/>
</svg>
