<svg width="81" height="34" viewBox="0 0 81 34" fill="none" xmlns="http://www.w3.org/2000/svg">
<path fill-rule="evenodd" clip-rule="evenodd" d="M37.24 1.2C37.24 0.960001 37.44 0.759999 37.68 0.759999H42.53C42.77 0.759999 42.97 0.960001 42.97 1.2V2.15999C43.36 2.17999 43.76 2.21999 44.15 2.24999L44.35 1.18999C44.4 0.949991 44.63 0.789985 44.87 0.839985L49.63 1.76C49.87 1.81 50.03 2.03999 49.98 2.27999L49.8 3.20998C50.21 3.30998 50.62 3.41999 51.02 3.52999L51.42 2.49999C51.51 2.26999 51.76 2.15999 51.99 2.24999L56.51 4.01C56.74 4.1 56.85 4.34998 56.76 4.57998L56.41 5.46999C56.9 5.68999 57.38 5.90998 57.85 6.14998L58.39 5.23C58.51 5.02 58.78 4.95 58.99 5.07L63.17 7.52999C63.38 7.64999 63.45 7.91999 63.33 8.12999L62.79 9.04998C63.32 9.41998 63.84 9.79999 64.36 10.19L65.03 9.45998C65.19 9.27998 65.47 9.26998 65.65 9.42998L69.23 12.7C69.41 12.86 69.42 13.14 69.26 13.32L68.66 13.98C68.92 14.25 69.18 14.52 69.43 14.79L70.08 14.27C70.27 14.12 70.55 14.15 70.7 14.34L73.7 18.15C73.85 18.34 73.82 18.62 73.63 18.77L73.02 19.25C73.26 19.59 73.49 19.93 73.71 20.28L74.37 19.91C74.58 19.79 74.85 19.87 74.97 20.08L77.35 24.31C77.47 24.52 77.39 24.79 77.18 24.91L76.5 25.29C76.78 25.9 77.05 26.51 77.31 27.13L78.13 26.88C78.36 26.81 78.61 26.94 78.68 27.17L80.1 31.81C80.17 32.04 80.04 32.29 79.81 32.36L79.12 32.57C79.23 32.98 79.32 33.39 79.42 33.8H62.15C60.15 29.4 56.99 25.67 53.03 23.07C47.79 19.64 41.52 18.46 35.49 19.76C29.46 21.06 24.12 24.75 20.56 30.09C19.77 31.27 19.08 32.51 18.5 33.8H1.67005C1.72004 33.59 1.76003 33.39 1.81003 33.18L0.54004 32.81C0.31004 32.74 0.170022 32.5 0.240022 32.26L1.59003 27.6C1.66003 27.37 1.90005 27.23 2.14005 27.3L3.54004 27.71C3.77004 27.13 4.01002 26.55 4.27002 25.98L3.06003 25.32C2.85003 25.2 2.77004 24.94 2.88004 24.72L5.19003 20.46C5.31003 20.25 5.57004 20.17 5.79004 20.28L6.96002 20.91C7.16002 20.58 7.37002 20.26 7.58002 19.94L6.50003 19.12C6.31003 18.97 6.27004 18.7 6.42004 18.5L9.37003 14.65C9.52003 14.46 9.79002 14.42 9.99002 14.57L11.08 15.4C11.31 15.14 11.54 14.89 11.78 14.63L10.8 13.59C10.63 13.41 10.64 13.13 10.82 12.97L14.35 9.64C14.53 9.47 14.81 9.47999 14.97 9.65999L15.98 10.73C16.46 10.35 16.95 9.96997 17.44 9.60997L16.64 8.29998C16.51 8.08998 16.58 7.81999 16.79 7.68999L20.93 5.17C21.14 5.04 21.41 5.11 21.54 5.32L22.3 6.57C22.75 6.33 23.21 6.09999 23.67 5.87999L23.17 4.64C23.08 4.41 23.19 4.16 23.41 4.07L27.9 2.23998C28.13 2.14998 28.38 2.26 28.47 2.48L29 3.77999C29.38 3.65999 29.77 3.54999 30.16 3.43999L29.91 2.23998C29.86 1.99998 30.01 1.76999 30.25 1.71999L35 0.73C35.24 0.68 35.47 0.829996 35.52 1.07L35.78 2.32C36.26 2.26 36.75 2.21 37.23 2.17V1.14998L37.24 1.2ZM19.6 33.83H22.85C24.01 31.5 25.6 29.39 27.56 27.65C31.11 24.49 35.63 22.73 40.33 22.68C45.02 22.63 49.58 24.28 53.2 27.36C55.31 29.15 57.02 31.36 58.25 33.83H61.06C59.13 29.81 56.19 26.39 52.52 23.99C47.49 20.7 41.48 19.57 35.69 20.82C29.9 22.07 24.78 25.61 21.36 30.73C20.7 31.72 20.11 32.76 19.59 33.83H19.6Z" fill="#EAAD48"/>
<path d="M66.32 14.96H59.17C57.8501 14.96 56.78 16.03 56.78 17.35V23.31C56.78 24.6299 57.8501 25.7 59.17 25.7H66.32C67.64 25.7 68.71 24.6299 68.71 23.31V17.35C68.71 16.03 67.64 14.96 66.32 14.96Z" fill="white"/>
<path d="M63.91 18.95C63.88 18.69 63.78 18.49 63.58 18.35C63.39 18.21 63.13 18.14 62.8 18.14C62.58 18.14 62.39 18.17 62.23 18.24C62.08 18.3 61.96 18.39 61.87 18.5C61.79 18.61 61.75 18.74 61.75 18.87C61.75 18.99 61.77 19.09 61.82 19.18C61.87 19.27 61.95 19.34 62.05 19.41C62.15 19.47 62.26 19.53 62.38 19.57C62.5 19.61 62.64 19.65 62.78 19.68L63.36 19.82C63.64 19.88 63.9 19.97 64.14 20.07C64.38 20.18 64.58 20.31 64.76 20.46C64.93 20.61 65.07 20.8 65.16 21.01C65.26 21.22 65.31 21.46 65.31 21.73C65.31 22.13 65.21 22.47 65 22.77C64.8 23.06 64.51 23.29 64.14 23.45C63.76 23.61 63.31 23.69 62.78 23.69C62.25 23.69 61.8 23.61 61.41 23.45C61.02 23.29 60.72 23.05 60.5 22.74C60.28 22.42 60.17 22.03 60.16 21.56H61.49C61.5 21.78 61.57 21.96 61.68 22.11C61.79 22.25 61.94 22.36 62.13 22.44C62.32 22.51 62.53 22.55 62.77 22.55C63.01 22.55 63.21 22.52 63.38 22.45C63.55 22.38 63.69 22.29 63.78 22.17C63.88 22.05 63.92 21.91 63.92 21.75C63.92 21.6 63.88 21.48 63.79 21.38C63.71 21.28 63.58 21.2 63.41 21.13C63.25 21.06 63.05 21 62.81 20.94L62.1 20.76C61.55 20.63 61.12 20.42 60.8 20.13C60.48 19.85 60.32 19.46 60.33 18.98C60.33 18.59 60.43 18.24 60.64 17.95C60.85 17.66 61.15 17.43 61.52 17.26C61.89 17.09 62.32 17.01 62.79 17.01C63.26 17.01 63.69 17.09 64.05 17.26C64.41 17.43 64.69 17.66 64.9 17.95C65.1 18.24 65.2 18.59 65.21 18.97H63.89L63.91 18.95Z" fill="#EAAD48"/>
<path d="M17.24 30.21L16.46 29.79L15.23 27.1C15.18 26.98 15.11 26.87 15.03 26.78C14.95 26.69 14.87 26.62 14.79 26.57C14.67 26.5 14.55 26.49 14.44 26.53C14.33 26.57 14.23 26.67 14.16 26.82C14.08 26.96 14.07 27.1 14.12 27.24C14.17 27.38 14.27 27.51 14.43 27.62L13.95 28.51C13.53 28.24 13.27 27.92 13.16 27.55C13.05 27.17 13.11 26.78 13.32 26.38C13.55 25.95 13.84 25.67 14.17 25.54C14.51 25.41 14.87 25.45 15.25 25.66C15.46 25.77 15.65 25.92 15.81 26.1C15.98 26.28 16.11 26.48 16.21 26.7L17.03 28.6L17.87 27.03L18.7 27.48L17.24 30.2V30.21Z" fill="white"/>
<path d="M19.9401 25.83C19.7501 26.08 19.54 26.27 19.3 26.4C19.06 26.53 18.81 26.59 18.55 26.58C18.29 26.57 18.03 26.48 17.77 26.31L18.3701 25.49C18.5101 25.57 18.6501 25.59 18.7801 25.57C18.9101 25.55 19.02 25.47 19.11 25.35C19.22 25.2 19.2601 25.05 19.2401 24.91C19.2201 24.77 19.1301 24.64 18.9801 24.53L18.8801 24.46C18.7201 24.34 18.5701 24.28 18.4401 24.29C18.3101 24.3 18.1901 24.35 18.1001 24.48L17.8401 24.83L17.08 24.27L17.3401 23.92C17.4101 23.82 17.4301 23.71 17.4001 23.6C17.3601 23.49 17.2801 23.38 17.1401 23.28L17.0701 23.23C16.9401 23.13 16.8201 23.09 16.7001 23.1C16.5801 23.11 16.4901 23.17 16.4101 23.28C16.3301 23.39 16.3 23.51 16.33 23.65C16.36 23.79 16.4301 23.92 16.5601 24.06L15.9601 24.87C15.5901 24.55 15.3901 24.19 15.3501 23.79C15.3101 23.39 15.4101 23.03 15.6701 22.69C15.9401 22.32 16.2501 22.1 16.5901 22.04C16.9301 21.98 17.2701 22.07 17.6201 22.33L17.7501 22.42C17.9401 22.56 18.0801 22.74 18.1501 22.94C18.2201 23.14 18.2301 23.36 18.1601 23.6C18.3601 23.43 18.5801 23.35 18.8201 23.37C19.0701 23.38 19.3201 23.48 19.5701 23.67L19.7001 23.76C20.0701 24.03 20.2701 24.35 20.3201 24.71C20.3701 25.07 20.2401 25.45 19.9501 25.84L19.9401 25.83Z" fill="white"/>
<path d="M22.4 22.97C22.1 23.27 21.76 23.42 21.37 23.43C20.98 23.43 20.59 23.28 20.22 22.95L20.91 22.25C21.06 22.37 21.21 22.44 21.35 22.44C21.49 22.44 21.62 22.39 21.73 22.28C21.85 22.16 21.91 22.02 21.89 21.88C21.87 21.74 21.8 21.59 21.65 21.44L21.34 21.13C21.19 20.98 21.05 20.9 20.92 20.88C20.78 20.86 20.66 20.91 20.55 21.02C20.45 21.12 20.39 21.23 20.37 21.35C20.35 21.47 20.37 21.59 20.44 21.71L19.79 22.36L17.67 20.24L19.65 18.26L20.32 18.93L19.04 20.22L19.69 20.87C19.69 20.76 19.72 20.65 19.78 20.53C19.84 20.41 19.92 20.31 20 20.22C20.29 19.93 20.61 19.8 20.97 19.84C21.33 19.88 21.68 20.08 22.04 20.43L22.35 20.74C22.71 21.1 22.89 21.47 22.9 21.86C22.9 22.25 22.74 22.61 22.39 22.96L22.4 22.97Z" fill="white"/>
<path d="M22.5301 15.15L24.8901 21.96L24.1601 22.53L21.8 15.72L22.5401 15.15H22.5301Z" fill="white"/>
<path d="M29.4 17.87L27.5 13.01L28.42 12.65L30.32 17.51L29.4 17.87ZM29 15.77L28.66 14.8901L30.35 14.2301C30.49 14.1701 30.59 14.08 30.63 13.94C30.67 13.8 30.66 13.65 30.6 13.47C30.53 13.3 30.44 13.18 30.31 13.11C30.18 13.04 30.05 13.03 29.9 13.09L28.21 13.75L27.87 12.87L29.63 12.18C29.9 12.07 30.16 12.04 30.41 12.08C30.66 12.12 30.88 12.23 31.08 12.4C31.28 12.57 31.43 12.81 31.55 13.1C31.67 13.39 31.71 13.67 31.68 13.93C31.65 14.19 31.56 14.42 31.41 14.62C31.26 14.82 31.04 14.97 30.78 15.08L29.02 15.77H29ZM31.97 16.86L29.97 15.22L30.89 14.68L33.08 16.43L31.97 16.86Z" fill="white"/>
<path d="M33.82 10.94L35.03 16.01L34.07 16.24L33.13 12.29L32.57 12.67L32.33 11.65L33.01 11.13L33.83 10.93L33.82 10.94Z" fill="white"/>
<path d="M38.12 10.3L38.2 10.95L37.58 15.62L36.52 15.75L37.14 11.38L36.25 11.49L36.34 12.27L35.36 12.39L35.15 10.67L38.11 10.32L38.12 10.3Z" fill="white"/>
<path d="M45.64 16.02L47.36 13.78L47.5 13.95C47.41 14.04 47.3 14.1 47.17 14.12C47.04 14.14 46.9 14.13 46.74 14.09C46.35 13.99 46.08 13.78 45.91 13.45C45.74 13.12 45.71 12.73 45.82 12.28C45.94 11.78 46.17 11.43 46.49 11.23C46.82 11.02 47.21 10.98 47.69 11.1C48.17 11.22 48.49 11.44 48.68 11.78C48.87 12.12 48.9 12.53 48.78 13.03C48.73 13.24 48.64 13.45 48.51 13.67C48.38 13.89 48.24 14.11 48.08 14.32L46.64 16.27L45.63 16.02H45.64ZM47.17 13.24C47.34 13.28 47.48 13.26 47.6 13.17C47.72 13.08 47.8 12.94 47.85 12.75C47.9 12.56 47.89 12.4 47.82 12.27C47.75 12.14 47.64 12.06 47.47 12.02C47.3 11.98 47.16 12 47.04 12.08C46.92 12.16 46.84 12.3 46.79 12.49C46.74 12.69 46.75 12.85 46.81 12.98C46.88 13.11 46.99 13.19 47.16 13.24H47.17Z" fill="white"/>
<path d="M49.1 17.02L51.13 15.05L51.24 15.24C51.14 15.32 51.02 15.36 50.89 15.36C50.76 15.36 50.62 15.33 50.47 15.27C50.1 15.12 49.86 14.87 49.74 14.52C49.62 14.17 49.65 13.78 49.82 13.35C50.01 12.88 50.28 12.56 50.63 12.41C50.98 12.25 51.38 12.26 51.83 12.45C52.28 12.64 52.58 12.9 52.72 13.26C52.86 13.62 52.83 14.04 52.64 14.51C52.56 14.71 52.44 14.91 52.28 15.11C52.12 15.31 51.95 15.5 51.76 15.69L50.05 17.41L49.09 17.02H49.1ZM51.01 14.49C51.17 14.55 51.31 14.55 51.44 14.49C51.57 14.42 51.67 14.29 51.75 14.11C51.82 13.92 51.84 13.77 51.79 13.63C51.74 13.5 51.64 13.4 51.48 13.33C51.32 13.26 51.17 13.26 51.05 13.33C50.92 13.39 50.82 13.52 50.75 13.7C50.67 13.89 50.66 14.05 50.7 14.19C50.75 14.33 50.85 14.43 51.01 14.49Z" fill="white"/>
</svg>
