<svg width="80" height="79" viewBox="0 0 80 79" fill="none" xmlns="http://www.w3.org/2000/svg">
<path d="M19.57 62.05C19.25 61.72 18.89 61.57 18.51 61.59C18.13 61.61 17.75 61.8 17.38 62.17L15.55 63.98L17.59 66.05L19.42 64.24C19.79 63.87 19.99 63.5 20.01 63.12C20.04 62.74 19.89 62.39 19.57 62.06V62.04V62.05Z" fill="#EAAD48"/>
<path d="M34.03 47.12L30.11 45.2L31.98 49.15L34.03 47.12Z" fill="#EAAD48"/>
<path d="M14.01 62.42L15.84 60.61C16.17 60.28 16.35 59.94 16.37 59.59C16.39 59.24 16.24 58.91 15.94 58.6C15.66 58.32 15.36 58.19 15.03 58.22C14.7 58.25 14.36 58.43 14.03 58.76L12.2 60.57L14.02 62.41L14.01 62.42Z" fill="#EAAD48"/>
<path d="M48.32 27.86C47.86 27.39 47.35 27.17 46.81 27.2C46.27 27.23 45.73 27.51 45.2 28.03L43.94 29.27L49.34 34.75L50.6 33.51C51.13 32.99 51.42 32.45 51.45 31.9C51.48 31.35 51.27 30.85 50.82 30.38L48.32 27.85V27.86Z" fill="#EAAD48"/>
<path d="M23.86 51.05C23.56 50.75 23.24 50.58 22.91 50.54C22.58 50.5 22.28 50.61 22.02 50.87L20 52.86L21.99 54.88L24.01 52.89C24.26 52.64 24.37 52.35 24.34 52.01C24.31 51.68 24.15 51.35 23.85 51.05H23.86Z" fill="#EAAD48"/>
<path d="M60.25 27.54C59.38 28.05 58.39 28.36 57.31 28.36C54.08 28.36 51.46 25.74 51.46 22.51C51.46 19.28 54.08 16.66 57.31 16.66C60.54 16.66 63.16 19.28 63.16 22.51C63.16 22.73 63.12 22.93 63.1 23.14C63.82 23.37 65.34 23.72 66.96 23.32V14.84C66.96 12.71 65.19 10.99 63.06 11.06L44.41 11.66C43.42 11.69 42.48 12.11 41.8 12.83L1.63001 54.94C0.220015 56.42 0.240023 58.75 1.67002 60.2L18.33 77.08C19.79 78.56 22.18 78.58 23.67 77.12L65.83 35.76C66.55 35.05 66.96 34.08 66.96 33.06V29.76C65.9 29.02 63.2 27.39 60.26 27.53L60.25 27.54ZM21.12 65.65L19.13 67.61L17.51 69.21L9.03001 60.61L9.74 59.91L12.54 57.15C13.38 56.33 14.22 55.89 15.08 55.84C15.94 55.79 16.73 56.14 17.46 56.88C17.95 57.38 18.21 57.94 18.24 58.55C18.27 59.16 18.06 59.78 17.61 60.4C18.26 59.92 18.92 59.7 19.58 59.74C20.25 59.79 20.86 60.1 21.42 60.67L21.44 60.69C22.18 61.44 22.51 62.24 22.45 63.1C22.39 63.96 21.94 64.81 21.1 65.64L21.12 65.65ZM29.87 57.02L24.52 55.47L23.54 56.44L26.95 59.9L25.33 61.5L16.85 52.9L17.49 52.26L20.61 49.18C21.09 48.71 21.61 48.41 22.18 48.27C22.75 48.13 23.32 48.16 23.9 48.35C24.48 48.54 25.02 48.9 25.53 49.41C26.04 49.93 26.38 50.48 26.57 51.06C26.75 51.64 26.77 52.21 26.63 52.78C26.56 53.06 26.45 53.32 26.3 53.57L31.85 55.09L29.89 57.03L29.87 57.02ZM37.96 49.04L36.12 48.14L32.97 51.25L33.85 53.1L32.11 54.82L26.92 42.98L27.95 41.97L39.72 47.33L37.98 49.05L37.96 49.04ZM45.36 41.73L36.2 38.54L42.31 44.74L40.76 46.27L32.29 37.68L34.27 35.73L43.53 39.01L37.32 32.72L38.87 31.19L47.34 39.78L45.35 41.75L45.36 41.73ZM53.59 32.86C53.34 33.61 52.84 34.36 52.09 35.11L50.07 37.1L49.25 37.9L40.77 29.3L42.39 27.7L43.61 26.49C44.69 25.42 45.79 24.87 46.91 24.83C48.03 24.79 49.07 25.25 50.04 26.23L52.44 28.66C53.04 29.27 53.45 29.93 53.65 30.65C53.85 31.36 53.83 32.09 53.58 32.85L53.59 32.86Z" fill="#EAAD48"/>
<path d="M66.15 0.48999C60.82 0.48999 56.21 3.57999 53.97 8.04999C54.62 8.60999 55.53 9.09999 56.75 9.21999C58.52 5.82999 62.06 3.50999 66.14 3.50999C71.98 3.50999 76.73 8.25999 76.73 14.1C76.73 19.94 71.98 24.69 66.14 24.69C62.48 24.69 59.24 22.82 57.34 19.99C54.57 18.74 54.79 21.52 54.8 21.61C57.24 25.28 61.41 27.71 66.14 27.71C73.65 27.71 79.75 21.6 79.75 14.1C79.75 6.59999 73.64 0.48999 66.14 0.48999H66.15Z" fill="#EAAD48"/>
</svg>
