<svg width="77" height="76" viewBox="0 0 77 76" fill="none" xmlns="http://www.w3.org/2000/svg">
<path fill-rule="evenodd" clip-rule="evenodd" d="M3.53998 43.61C3.84998 43.61 4.09998 43.36 4.09998 43.05V39.16C4.09998 38.85 3.84998 38.6 3.53998 38.6H0.76001C0.45001 38.6 0.200012 38.85 0.200012 39.16V43.05C0.200012 43.36 0.45001 43.61 0.76001 43.61H3.53998ZM6.71002 50.58C6.80002 50.87 6.63003 51.18 6.34003 51.27L3.67999 52.06C3.38999 52.15 3.07999 51.98 2.98999 51.69L1.40002 46.37C1.31002 46.08 1.48002 45.77 1.77002 45.68L4.42999 44.89C4.71999 44.8 5.02999 44.97 5.12 45.26L6.71002 50.58ZM10.83 59.65C11.1 59.5 11.18 59.16 11.03 58.89L8.22998 54.09C8.07998 53.82 7.73997 53.74 7.46997 53.89L5.07001 55.29C4.80001 55.44 4.72 55.78 4.87 56.05L7.66998 60.85C7.81998 61.11 8.15999 61.2 8.42999 61.05L10.83 59.65ZM17.01 65.01C17.23 65.22 17.25 65.57 17.04 65.79L15.14 67.82C14.93 68.04 14.58 68.06 14.36 67.85L10.3 64.06C10.08 63.85 10.06 63.5 10.27 63.27L12.17 61.24C12.38 61.02 12.73 61 12.96 61.21L17.02 65L17.01 65.01ZM24.93 69.99C25.07 69.72 24.96 69.38 24.69 69.24L19.75 66.71C19.48 66.57 19.14 66.68 19 66.95L17.73 69.42C17.59 69.69 17.7 70.03 17.97 70.17L22.91 72.7C23.18 72.84 23.52 72.73 23.66 72.46L24.93 69.99ZM33.38 72.41C33.45 72.11 33.27 71.81 32.97 71.74L27.58 70.41C27.28 70.34 26.98 70.52 26.91 70.82L26.24 73.52C26.17 73.82 26.35 74.12 26.65 74.19L32.04 75.52C32.34 75.59 32.64 75.41 32.71 75.11L33.38 72.41ZM72.39 43.06C72.39 43.37 72.64 43.62 72.95 43.62H75.73C76.04 43.62 76.29 43.37 76.29 43.06V39.17C76.29 38.86 76.04 38.61 75.73 38.61H72.95C72.64 38.61 72.39 38.86 72.39 39.17V43.06ZM70.15 51.27C69.86 51.18 69.69 50.87 69.78 50.58L71.37 45.26C71.46 44.97 71.77 44.8 72.06 44.89L74.72 45.68C75.01 45.77 75.18 46.08 75.09 46.37L73.5 51.69C73.41 51.98 73.1 52.15 72.81 52.06L70.15 51.27ZM65.45 58.89C65.3 59.15 65.39 59.5 65.65 59.65L68.05 61.05C68.31 61.2 68.65 61.11 68.81 60.85L71.61 56.05C71.76 55.78 71.67 55.44 71.41 55.29L69.01 53.89C68.75 53.74 68.41 53.83 68.25 54.09L65.45 58.89ZM59.44 65.79C59.23 65.57 59.24 65.21 59.47 65.01L63.53 61.22C63.75 61.01 64.11 61.02 64.31 61.25L66.21 63.28C66.42 63.5 66.41 63.86 66.18 64.07L62.12 67.86C61.9 68.07 61.54 68.06 61.34 67.83L59.44 65.8V65.79ZM51.78 69.24C51.51 69.38 51.4 69.71 51.54 69.99L52.81 72.46C52.95 72.73 53.28 72.84 53.56 72.7L58.5 70.17C58.77 70.03 58.88 69.7 58.74 69.42L57.47 66.95C57.33 66.68 57 66.57 56.72 66.71L51.78 69.24ZM43.49 71.74C43.19 71.81 43.01 72.11 43.08 72.41L43.75 75.11C43.82 75.41 44.12 75.59 44.42 75.52L49.81 74.19C50.11 74.12 50.29 73.82 50.22 73.52L49.55 70.82C49.48 70.52 49.18 70.34 48.88 70.41L43.49 71.74ZM34.62 72.5C34.62 72.19 34.87 71.94 35.18 71.94H40.73C41.04 71.94 41.29 72.19 41.29 72.5V75.28C41.29 75.59 41.04 75.84 40.73 75.84H35.18C34.87 75.84 34.62 75.59 34.62 75.28V72.5Z" fill="#EAAD48"/>
<path fill-rule="evenodd" clip-rule="evenodd" d="M58.85 38.33H54.67C54.67 40.49 54.25 42.62 53.42 44.61C52.6 46.6 51.39 48.41 49.86 49.93C48.34 51.45 46.53 52.66 44.54 53.49C42.55 54.31 40.41 54.74 38.26 54.74C36.11 54.74 33.97 54.32 31.98 53.49C29.99 52.67 28.18 51.46 26.66 49.93C25.14 48.41 23.93 46.6 23.1 44.61C22.28 42.62 21.85 40.48 21.85 38.33H18.23C18.25 39.45 18.35 40.58 18.56 41.7C19.49 46.8 22.34 51.36 26.52 54.43C30.7 57.5 35.9 58.86 41.05 58.22C46.2 57.58 50.91 55 54.21 51C57.17 47.42 58.8 42.95 58.86 38.34L58.85 38.33ZM17.43 38.33H2.98999C2.98999 42.96 3.89998 47.55 5.66998 51.83C7.43998 56.11 10.04 60 13.31 63.27C16.58 66.54 20.47 69.14 24.75 70.91C29.03 72.68 33.61 73.59 38.25 73.59C42.89 73.59 47.47 72.68 51.75 70.91C56.03 69.14 59.92 66.54 63.19 63.27C66.46 60 69.06 56.11 70.83 51.83C72.6 47.55 73.51 42.97 73.51 38.33H59.62C59.56 43.12 57.86 47.77 54.79 51.49C51.36 55.64 46.47 58.33 41.12 58.99C35.77 59.65 30.37 58.25 26.03 55.06C21.69 51.87 18.73 47.14 17.76 41.84C17.55 40.67 17.43 39.5 17.42 38.33H17.43Z" fill="#EAAD48"/>
<path fill-rule="evenodd" clip-rule="evenodd" d="M73.52 36.39H74.07C74.38 36.39 74.63 36.14 74.63 35.83V32.17C74.63 31.86 74.38 31.61 74.07 31.61H73.15C73.06 30.98 72.95 30.35 72.83 29.73L73.12 29.64C73.41 29.55 73.58 29.24 73.49 28.95L72 23.91C71.91 23.62 71.6 23.45 71.31 23.54L71.03 23.63C70.97 23.47 70.91 23.32 70.84 23.16C70.49 22.31 70.1 21.47 69.68 20.65L69.98 20.47C70.24 20.31 70.33 19.97 70.18 19.71L67.55 15.17C67.4 14.9 67.06 14.82 66.79 14.97L66.28 15.27C65.76 14.59 65.22 13.93 64.65 13.29L65.05 12.86C65.26 12.64 65.25 12.28 65.02 12.07L61.21 8.48C60.99 8.27 60.64 8.28 60.43 8.51L60.04 8.93C59.32 8.36 58.57 7.82 57.8 7.31L57.97 6.98C58.11 6.71 58 6.37 57.73 6.23L53.09 3.84C52.82 3.7 52.48 3.81 52.34 4.08L52.23 4.29C52.07 4.22 51.9 4.15 51.74 4.08C51.11 3.82 50.47 3.57 49.82 3.35L49.89 3.08C49.96 2.78 49.78 2.48 49.48 2.41L44.42 1.15C44.12 1.08 43.82 1.26 43.75 1.56L43.68 1.83C43.1 1.74 42.52 1.66 41.94 1.6V1.4C41.94 1.09 41.69 0.839996 41.38 0.839996H36.17C35.86 0.839996 35.61 1.09 35.61 1.4V1.5C34.84 1.56 34.08 1.64 33.32 1.75L33.27 1.56C33.2 1.26 32.9 1.08 32.6 1.15L27.54 2.41C27.24 2.48 27.06 2.79 27.13 3.08L27.15 3.18C26.33 3.45 25.52 3.75 24.72 4.08C24.71 4.08 24.7 4.08 24.68 4.09V4.07C24.53 3.8 24.2 3.69 23.93 3.83L19.29 6.22C19.02 6.36 18.91 6.7 19.05 6.97L19.08 7.03C18.28 7.55 17.5 8.09 16.75 8.67L16.59 8.5C16.38 8.28 16.03 8.26 15.81 8.47L12 12.06C11.78 12.27 11.77 12.62 11.97 12.85L12.08 12.97C11.48 13.64 10.9 14.33 10.35 15.03L10.22 14.96C9.95997 14.8 9.62002 14.89 9.46002 15.16L6.83002 19.7C6.70002 19.92 6.73998 20.2 6.91998 20.37C6.44998 21.28 6.02 22.2 5.62 23.15C5.57 23.27 5.51997 23.39 5.46997 23.51C5.25997 23.54 5.07001 23.68 5.01001 23.9L3.52002 28.94C3.46002 29.15 3.51998 29.36 3.66998 29.5C3.52998 30.19 3.39999 30.89 3.29999 31.59H2.94C2.63 31.59 2.38 31.84 2.38 32.15V35.81C2.38 36.12 2.63 36.37 2.94 36.37C2.94 36.46 2.94 36.56 2.94 36.65H6.47998C6.45998 34.1 6.74002 31.56 7.33002 29.07L8.31 25.75C8.44 25.4 8.57002 25.05 8.71002 24.7C11.63 17.38 17.2 11.44 24.34 8.03C31.48 4.62 39.69 3.98 47.39 6.24C55.08 8.5 61.71 13.49 66 20.25C66.92 21.71 67.72 23.22 68.4 24.78C68.4 24.84 68.4 24.9 68.42 24.96L69.91 30C69.96 30.17 70.08 30.29 70.23 30.35C70.54 31.7 70.76 33.06 70.9 34.43V35.81C70.9 35.94 70.95 36.06 71.02 36.16C71.02 36.32 71.03 36.48 71.04 36.65H73.48C73.48 36.56 73.48 36.46 73.48 36.37L73.52 36.39ZM17.66 36.67H26.39C26.39 35.11 26.7 33.57 27.29 32.13C27.89 30.69 28.76 29.38 29.86 28.28C30.96 27.18 32.27 26.3 33.71 25.71C35.15 25.11 36.69 24.81 38.25 24.81C39.81 24.81 41.35 25.12 42.79 25.71C44.23 26.31 45.54 27.18 46.64 28.28C47.74 29.38 48.62 30.69 49.21 32.13C49.81 33.57 50.11 35.11 50.11 36.67H58.28C58.26 35.55 58.16 34.42 57.95 33.3C57.02 28.2 54.17 23.64 49.99 20.57C45.81 17.5 40.61 16.14 35.46 16.78C30.31 17.42 25.6 20 22.3 24C19.34 27.58 17.71 32.05 17.65 36.66L17.66 36.67ZM59.08 36.67H70.13C69.97 31.09 68.3 25.59 65.25 20.76C61.09 14.2 54.66 9.35 47.19 7.16C39.72 4.97 31.75 5.59 24.82 8.9C17.89 12.21 12.48 17.97 9.65002 25.08C8.17002 28.79 7.44998 32.72 7.47998 36.67H16.88C16.94 31.88 18.64 27.23 21.71 23.51C25.14 19.36 30.03 16.67 35.38 16.01C40.73 15.35 46.13 16.75 50.47 19.94C54.81 23.13 57.77 27.86 58.74 33.16C58.95 34.33 59.07 35.5 59.08 36.67Z" fill="#EAAD48"/>
</svg>
