<svg width="82" height="34" viewBox="0 0 82 34" fill="none" xmlns="http://www.w3.org/2000/svg">
<path fill-rule="evenodd" clip-rule="evenodd" d="M38.22 0.630005C38.22 0.380005 38.42 0.190002 38.66 0.190002H43.54C43.79 0.190002 43.98 0.390005 43.98 0.630005V1.59C44.38 1.61 44.77 1.64999 45.17 1.67999L45.37 0.619995C45.42 0.379995 45.65 0.220004 45.89 0.270004L50.68 1.19C50.92 1.24 51.08 1.47001 51.03 1.71001L50.85 2.64C51.26 2.74 51.67 2.85001 52.08 2.96001L52.48 1.92C52.57 1.69 52.83 1.58 53.05 1.67L57.6 3.44C57.83 3.53 57.94 3.78999 57.85 4.00999L57.5 4.91C57.99 5.13 58.47 5.36 58.95 5.59L59.5 4.66C59.62 4.45 59.9 4.38 60.11 4.5L64.32 6.98C64.53 7.1 64.6 7.38 64.48 7.59L63.93 8.52C64.46 8.89 64.99 9.27 65.51 9.67L66.18 8.92999C66.35 8.74999 66.63 8.73999 66.81 8.89999L70.41 12.2C70.59 12.37 70.6 12.65 70.44 12.83L69.83 13.49C70.09 13.76 70.35 14.03 70.61 14.31L71.27 13.79C71.46 13.64 71.74 13.67 71.89 13.86L74.91 17.69C75.06 17.88 75.03 18.16 74.84 18.31L74.22 18.8C74.46 19.14 74.69 19.49 74.92 19.84L75.58 19.47C75.79 19.35 76.06 19.43 76.18 19.64L78.57 23.9C78.69 24.11 78.61 24.38 78.4 24.5L77.72 24.88C78.01 25.49 78.28 26.11 78.53 26.73L79.35 26.48C79.58 26.41 79.83 26.54 79.9 26.77L81.33 31.44C81.4 31.67 81.27 31.92 81.04 31.99L80.35 32.2C80.46 32.61 80.56 33.03 80.65 33.44H63.27C61.25 29.01 58.08 25.25 54.09 22.64C48.82 19.19 42.5 18 36.44 19.31C30.37 20.62 25 24.34 21.41 29.71C20.62 30.9 19.92 32.15 19.33 33.44H2.39004C2.44004 33.23 2.49003 33.03 2.53003 32.82L1.25003 32.45C1.01003 32.38 0.880042 32.14 0.950042 31.9L2.31003 27.21C2.38003 26.97 2.62001 26.84 2.86001 26.91L4.27002 27.32C4.50002 26.73 4.74003 26.15 5.00003 25.58L3.78003 24.92C3.56003 24.8 3.48004 24.53 3.60004 24.32L5.93002 20.03C6.05002 19.81 6.32003 19.73 6.53003 19.85L7.71002 20.49C7.91002 20.16 8.12003 19.84 8.34003 19.52L7.26004 18.69C7.07004 18.54 7.03002 18.26 7.18002 18.07L10.15 14.19C10.3 14 10.58 13.96 10.77 14.11L11.87 14.95C12.1 14.69 12.34 14.43 12.57 14.18L11.58 13.14C11.41 12.96 11.42 12.68 11.6 12.51L15.15 9.16C15.33 8.99 15.61 8.99999 15.78 9.17999L16.8 10.26C17.28 9.86999 17.77 9.5 18.27 9.13L17.47 7.81C17.34 7.6 17.41 7.33 17.62 7.2L21.79 4.66C22 4.53 22.27 4.6 22.4 4.81L23.17 6.07001C23.63 5.83001 24.08 5.6 24.55 5.38L24.04 4.13C23.95 3.9 24.06 3.64 24.28 3.55L28.8 1.71001C29.03 1.62001 29.29 1.73 29.38 1.95L29.91 3.25999C30.3 3.13999 30.69 3.03 31.08 2.92L30.83 1.71001C30.78 1.47001 30.93 1.23 31.17 1.19L35.95 0.199997C36.19 0.149997 36.43 0.299993 36.47 0.539993L36.73 1.8C37.22 1.74 37.7 1.68999 38.19 1.64999V0.619995L38.22 0.630005ZM20.46 33.48H23.73C24.89 31.13 26.5 29.01 28.47 27.26C32.04 24.08 36.6 22.31 41.32 22.26C46.04 22.21 50.64 23.87 54.28 26.97C56.4 28.77 58.13 31 59.36 33.48H62.19C60.25 29.43 57.29 25.99 53.6 23.58C48.54 20.27 42.48 19.13 36.66 20.39C30.84 21.65 25.68 25.21 22.24 30.36C21.57 31.36 20.98 32.4 20.46 33.48Z" fill="#EAAD48"/>
<path d="M17.9301 29.83L17.1401 29.41L15.9001 26.7C15.8501 26.58 15.7801 26.47 15.7001 26.38C15.6201 26.29 15.5401 26.22 15.4601 26.17C15.3401 26.1 15.22 26.09 15.11 26.13C15 26.17 14.9001 26.27 14.8201 26.42C14.7401 26.56 14.7301 26.7 14.7801 26.84C14.8301 26.98 14.9301 27.11 15.1001 27.22L14.6201 28.12C14.2001 27.85 13.9301 27.53 13.8201 27.15C13.7101 26.77 13.7701 26.38 13.9801 25.98C14.2101 25.54 14.5001 25.26 14.8401 25.14C15.1801 25.01 15.5401 25.05 15.9201 25.26C16.1301 25.37 16.3201 25.52 16.4901 25.71C16.6601 25.9 16.7901 26.1 16.8901 26.32L17.7201 28.23L18.5701 26.65L19.4101 27.1L17.9401 29.84L17.9301 29.83Z" fill="white"/>
<path d="M20.6601 25.42C20.4701 25.67 20.26 25.87 20.02 26C19.78 26.13 19.5301 26.19 19.2601 26.18C18.9901 26.17 18.7301 26.08 18.4701 25.91L19.08 25.09C19.22 25.17 19.36 25.19 19.49 25.17C19.62 25.15 19.7301 25.07 19.8201 24.95C19.9301 24.8 19.9801 24.65 19.9501 24.51C19.9201 24.37 19.8401 24.24 19.6901 24.12L19.5901 24.05C19.4301 23.93 19.2801 23.87 19.1401 23.88C19.0001 23.89 18.89 23.95 18.8 24.07L18.5401 24.43L17.77 23.86L18.0301 23.5C18.1001 23.4 18.1201 23.29 18.0901 23.18C18.0501 23.07 17.97 22.96 17.83 22.86L17.7601 22.81C17.6301 22.71 17.5101 22.67 17.3901 22.68C17.2701 22.68 17.1801 22.75 17.0901 22.86C17.0101 22.97 16.9801 23.09 17.0101 23.23C17.0301 23.37 17.11 23.5 17.24 23.64L16.6401 24.46C16.2701 24.13 16.0701 23.77 16.0301 23.37C15.9901 22.97 16.1001 22.6 16.3501 22.26C16.6301 21.89 16.9301 21.67 17.2801 21.6C17.6301 21.53 17.9701 21.63 18.3201 21.89L18.4501 21.98C18.6501 22.12 18.7801 22.3 18.8501 22.51C18.9201 22.72 18.93 22.94 18.86 23.17C19.06 23 19.2801 22.92 19.5301 22.93C19.7801 22.94 20.0301 23.04 20.2901 23.23L20.4201 23.32C20.7901 23.59 21.0001 23.91 21.0401 24.28C21.0801 24.65 20.9601 25.03 20.6701 25.42H20.6601Z" fill="white"/>
<path d="M23.1301 22.54C22.8301 22.84 22.4901 22.99 22.0901 23C21.6901 23 21.3101 22.85 20.9301 22.52L21.6301 21.82C21.7801 21.94 21.9301 22.01 22.0701 22.01C22.2101 22.01 22.3401 21.96 22.4601 21.85C22.5801 21.73 22.6401 21.59 22.6201 21.44C22.6101 21.29 22.5301 21.15 22.3801 21L22.0701 20.69C21.9201 20.54 21.7801 20.46 21.6401 20.44C21.5001 20.42 21.38 20.47 21.2701 20.58C21.1701 20.68 21.1101 20.79 21.0901 20.91C21.0701 21.03 21.0901 21.15 21.1601 21.27L20.5101 21.92L18.3701 19.79L20.36 17.79L21.0401 18.46L19.7501 19.76L20.4101 20.42C20.4101 20.31 20.4401 20.2 20.5101 20.08C20.5701 19.96 20.6501 19.86 20.7301 19.77C21.0201 19.48 21.3501 19.35 21.7001 19.39C22.0501 19.43 22.4201 19.63 22.7801 19.99L23.0901 20.3C23.4501 20.66 23.6401 21.04 23.6501 21.43C23.6601 21.82 23.4901 22.19 23.1401 22.54H23.1301Z" fill="white"/>
<path d="M23.26 14.67L25.64 21.53L24.9 22.11L22.52 15.25L23.26 14.67Z" fill="white"/>
<path d="M46.9 15.57L48.44 10.55L49.39 10.84L47.85 15.86L46.9 15.57ZM47.9 13.66L48.18 12.75L49.93 13.28C50.08 13.32 50.21 13.31 50.33 13.23C50.45 13.15 50.54 13.02 50.6 12.84C50.65 12.66 50.65 12.51 50.6 12.37C50.55 12.23 50.44 12.14 50.29 12.1L48.54 11.57L48.82 10.66L50.64 11.22C50.92 11.31 51.14 11.44 51.31 11.63C51.48 11.82 51.59 12.04 51.63 12.3C51.67 12.56 51.65 12.84 51.56 13.14C51.47 13.44 51.33 13.69 51.14 13.88C50.95 14.07 50.74 14.2 50.49 14.26C50.24 14.32 49.98 14.31 49.7 14.22L47.88 13.66H47.9ZM49.56 16.38L49.01 13.83L50.07 13.98L50.71 16.73L49.56 16.38Z" fill="white"/>
<path d="M54.6801 12.86L52.4701 17.63L51.5701 17.21L53.2901 13.5L52.61 13.45L53.05 12.5H53.9101L54.6801 12.86Z" fill="white"/>
<path d="M58.5001 15.04L58.1601 15.6L54.7501 18.9L53.8401 18.34L57.0601 15.27L56.2901 14.8L55.8801 15.47L55.0401 14.95L55.9501 13.46L58.5101 15.03L58.5001 15.04Z" fill="white"/>
<path d="M60.8701 24.27L63.6301 23.58V23.8C63.5101 23.82 63.39 23.8 63.2701 23.73C63.1501 23.66 63.0501 23.57 62.9501 23.44C62.7101 23.12 62.6201 22.78 62.6901 22.42C62.7601 22.05 62.9801 21.73 63.3501 21.45C63.7501 21.14 64.1501 21 64.5301 21.04C64.9201 21.08 65.2601 21.29 65.5601 21.68C65.8601 22.07 65.9801 22.45 65.9201 22.84C65.8601 23.22 65.6301 23.58 65.2101 23.89C65.0401 24.02 64.8401 24.14 64.6001 24.23C64.3601 24.32 64.12 24.4 63.86 24.47L61.5101 25.1L60.8701 24.27ZM63.8101 23.03C63.9201 23.17 64.0401 23.24 64.1901 23.25C64.3401 23.25 64.4901 23.2 64.6501 23.07C64.8101 22.95 64.9001 22.82 64.9201 22.68C64.9401 22.54 64.91 22.4 64.8 22.26C64.69 22.12 64.5701 22.05 64.4201 22.04C64.2801 22.04 64.1301 22.09 63.9701 22.21C63.8101 22.34 63.7101 22.47 63.6801 22.61C63.6501 22.75 63.68 22.89 63.8 23.03H63.8101Z" fill="white"/>
<path d="M62.9701 27.2L65.8001 26.9L65.7701 27.12C65.6401 27.12 65.5201 27.08 65.4201 27C65.3101 26.92 65.2201 26.81 65.1401 26.67C64.9401 26.32 64.9001 25.97 65.0301 25.62C65.1601 25.27 65.4201 24.98 65.8201 24.75C66.2601 24.5 66.6701 24.42 67.0501 24.51C67.4301 24.6 67.7401 24.86 67.9801 25.29C68.2201 25.71 68.2901 26.11 68.1701 26.49C68.0601 26.86 67.7701 27.18 67.3201 27.43C67.1301 27.54 66.9201 27.62 66.6701 27.68C66.4201 27.74 66.1701 27.78 65.9001 27.82L63.4801 28.12L62.9601 27.21L62.9701 27.2ZM66.0501 26.39C66.1401 26.54 66.2501 26.63 66.4001 26.66C66.5501 26.69 66.7101 26.66 66.8801 26.55C67.0501 26.45 67.1601 26.33 67.2101 26.2C67.2601 26.06 67.2401 25.92 67.1501 25.77C67.0601 25.62 66.9501 25.53 66.8101 25.5C66.6701 25.47 66.5101 25.5 66.3401 25.6C66.1601 25.7 66.0501 25.82 66.0001 25.96C65.9501 26.1 65.9701 26.24 66.0601 26.4L66.0501 26.39Z" fill="white"/>
<path d="M38.6001 6.35001H30.6801C29.5147 6.35001 28.5701 7.29469 28.5701 8.46001V15.32C28.5701 16.4853 29.5147 17.43 30.6801 17.43H38.6001C39.7654 17.43 40.7101 16.4853 40.7101 15.32V8.46001C40.7101 7.29469 39.7654 6.35001 38.6001 6.35001Z" fill="white"/>
<path d="M32.1601 14.85C31.8601 14.85 31.5801 14.8 31.3001 14.7C31.0301 14.6 30.7801 14.44 30.5601 14.22C30.3401 14 30.1701 13.71 30.0401 13.35C29.9101 12.99 29.8501 12.54 29.8501 12.02C29.8501 11.54 29.9101 11.1 30.0201 10.72C30.1301 10.34 30.2901 10.01 30.4901 9.75C30.7001 9.48 30.9401 9.28 31.2301 9.14C31.5201 9 31.8401 8.92999 32.1901 8.92999C32.5701 8.92999 32.9101 8.99999 33.2101 9.14999C33.5001 9.29999 33.7401 9.5 33.9201 9.75C34.1001 10 34.2101 10.29 34.2501 10.61H33.0501C33.0001 10.41 32.9001 10.25 32.7501 10.14C32.6001 10.03 32.4101 9.97 32.1901 9.97C31.8201 9.97 31.5301 10.13 31.3401 10.46C31.1501 10.79 31.0501 11.23 31.0401 11.79H31.0801C31.1701 11.62 31.2801 11.47 31.4301 11.35C31.5801 11.23 31.7501 11.14 31.9301 11.07C32.1201 11 32.3201 10.97 32.5301 10.97C32.8701 10.97 33.1701 11.05 33.4401 11.21C33.7101 11.37 33.9201 11.59 34.0701 11.87C34.2201 12.15 34.3001 12.47 34.3001 12.83C34.3001 13.22 34.2101 13.57 34.0301 13.87C33.8501 14.17 33.6001 14.41 33.2701 14.58C32.9501 14.75 32.5701 14.83 32.1501 14.83L32.1601 14.85ZM32.1601 13.89C32.3501 13.89 32.5201 13.84 32.6601 13.76C32.8101 13.67 32.9201 13.55 33.0101 13.39C33.1001 13.23 33.1401 13.06 33.1401 12.87C33.1401 12.68 33.1001 12.51 33.0101 12.36C32.9301 12.21 32.8101 12.09 32.6701 12C32.5201 11.91 32.3601 11.87 32.1701 11.87C32.0301 11.87 31.9001 11.9 31.7801 11.95C31.6601 12 31.5601 12.08 31.4701 12.17C31.3801 12.26 31.3101 12.37 31.2601 12.5C31.2101 12.62 31.1801 12.75 31.1801 12.89C31.1801 13.08 31.2201 13.25 31.3101 13.4C31.4001 13.55 31.5101 13.68 31.6601 13.77C31.8101 13.86 31.9801 13.91 32.1601 13.91V13.89ZM37.2901 14.85C36.8901 14.85 36.5401 14.78 36.2301 14.63C35.9201 14.48 35.6801 14.28 35.4901 14.03C35.3101 13.77 35.2101 13.48 35.2101 13.15H36.3901C36.4001 13.37 36.5001 13.55 36.6701 13.69C36.8401 13.83 37.0501 13.9 37.2901 13.9C37.4801 13.9 37.6501 13.86 37.8001 13.77C37.9501 13.68 38.0601 13.56 38.1501 13.41C38.2301 13.26 38.2801 13.08 38.2801 12.88C38.2801 12.68 38.2401 12.5 38.1501 12.35C38.0701 12.2 37.9501 12.08 37.8001 11.99C37.6501 11.9 37.4801 11.86 37.2901 11.86C37.1201 11.86 36.9601 11.89 36.8001 11.96C36.6401 12.03 36.5201 12.12 36.4301 12.24L35.3501 12.05L35.6201 9.00999H39.1401V10.01H36.6201L36.4701 11.45H36.5001C36.6001 11.31 36.7501 11.19 36.9601 11.1C37.1601 11.01 37.3901 10.96 37.6501 10.96C38.0001 10.96 38.3101 11.04 38.5801 11.2C38.8501 11.36 39.0701 11.59 39.2201 11.87C39.3801 12.15 39.4601 12.48 39.4501 12.85C39.4501 13.24 39.3601 13.58 39.1801 13.88C39.0001 14.18 38.7501 14.42 38.4201 14.59C38.1001 14.76 37.7201 14.85 37.3001 14.85H37.2901Z" fill="#EAAD48"/>
</svg>
