<svg width="75" height="58" viewBox="0 0 75 58" fill="none" xmlns="http://www.w3.org/2000/svg">
<path d="M12.13 31.81C16.81 25.84 18.11 8.47999 18.18 0.549988L13.54 3.37C14.15 6.18999 12.13 26.36 9.70998 28.99C7.28998 31.61 2.85 33.83 0.629997 44.12C-1.59 54.41 15.56 56.83 18.98 57.03C21.72 57.19 32.36 56.56 37.33 56.22V50.77C31.21 50.9 18.09 51.29 14.54 51.78C10.1 52.39 5.26 50.97 3.85 44.12C2.72 38.63 8.88999 33.63 12.12 31.82L12.13 31.81Z" fill="#EAAD48"/>
<path fill-rule="evenodd" clip-rule="evenodd" d="M10.37 33.61C10.69 33.13 10.99 32.72 11.24 32.41C10.59 32.41 8.87 33.74 7.18 35.49L10.37 33.61ZM5.92002 36.9L9.76002 34.63C9.53002 35.05 9.29999 35.5 9.07999 35.99L4.62 38.62C5.01 38.04 5.45002 37.46 5.92002 36.9ZM4.12 39.58C3.93 40.07 3.80002 40.6 3.73002 41.17L8.18 38.55C8.33 37.97 8.52001 37.41 8.72001 36.87L4.13001 39.58H4.12ZM8.00001 39.31L3.67002 41.86C3.65002 42.29 3.67 42.74 3.71 43.19L7.79002 40.78C7.83002 40.28 7.90001 39.79 8.00001 39.3V39.31ZM7.76002 41.47L3.79002 43.81C3.85002 44.21 3.94002 44.62 4.04002 45.02L7.82999 42.78C7.82999 42.78 7.82999 42.73 7.82999 42.7C7.77999 42.29 7.77 41.87 7.77 41.46L7.76002 41.47ZM7.91001 43.4L4.21 45.59C4.33 45.97 4.47 46.34 4.62 46.7L8.15 44.61C8.05 44.22 7.97001 43.82 7.91001 43.4ZM8.31 45.18L4.85999 47.22C5.03999 47.59 5.24 47.95 5.46 48.3L8.76002 46.35C8.59002 45.98 8.44001 45.59 8.32001 45.18H8.31ZM9.01002 46.86L5.77 48.77C6.01 49.11 6.26999 49.44 6.54999 49.74L9.70002 47.88C9.45002 47.56 9.22 47.22 9.02 46.85L9.01002 46.86ZM10.07 48.33L6.95002 50.17C7.10002 50.31 7.25001 50.45 7.41001 50.58C7.65001 50.78 7.91 50.95 8.18 51.11L11.21 49.32C10.79 49.02 10.41 48.69 10.06 48.33H10.07ZM11.75 49.67L8.79999 51.41C9.43 51.68 10.11 51.85 10.82 51.96L13.38 50.45C12.78 50.23 12.24 49.97 11.74 49.68L11.75 49.67ZM14.1 50.69L11.77 52.06C13.97 52.21 16.22 51.78 17.5 51.39C16.23 51.23 15.09 50.99 14.09 50.68L14.1 50.69Z" fill="#EAAD48"/>
<path d="M62.35 31.81C57.67 25.84 56.37 8.47999 56.3 0.549988L60.94 3.37C60.33 6.18999 62.35 26.36 64.77 28.99C67.19 31.61 71.63 33.83 73.85 44.12C76.07 54.41 58.92 56.83 55.5 57.03C52.76 57.19 42.12 56.56 37.15 56.22V50.77C43.27 50.9 56.39 51.29 59.94 51.78C64.38 52.39 69.22 50.97 70.63 44.12C71.76 38.63 65.59 33.63 62.36 31.82L62.35 31.81Z" fill="#EAAD48"/>
<path fill-rule="evenodd" clip-rule="evenodd" d="M64.11 33.61C63.79 33.13 63.49 32.72 63.24 32.41C63.89 32.41 65.61 33.74 67.3 35.49L64.11 33.61ZM68.56 36.9L64.72 34.63C64.95 35.05 65.18 35.5 65.4 35.99L69.86 38.62C69.47 38.04 69.03 37.46 68.56 36.9ZM70.36 39.58C70.55 40.07 70.68 40.6 70.75 41.17L66.3 38.55C66.15 37.97 65.96 37.41 65.76 36.87L70.35 39.58H70.36ZM66.48 39.31L70.81 41.86C70.83 42.29 70.81 42.74 70.77 43.19L66.69 40.78C66.65 40.28 66.58 39.79 66.49 39.3L66.48 39.31ZM66.72 41.47L70.69 43.81C70.63 44.21 70.54 44.62 70.44 45.02L66.65 42.78C66.65 42.78 66.65 42.73 66.65 42.7C66.7 42.29 66.71 41.87 66.71 41.46L66.72 41.47ZM66.57 43.4L70.27 45.59C70.15 45.97 70.01 46.34 69.86 46.7L66.33 44.61C66.43 44.22 66.51 43.82 66.57 43.4ZM66.17 45.18L69.62 47.22C69.44 47.59 69.24 47.95 69.02 48.3L65.72 46.35C65.89 45.98 66.04 45.59 66.16 45.18H66.17ZM65.47 46.86L68.71 48.77C68.47 49.11 68.21 49.44 67.93 49.74L64.78 47.88C65.03 47.56 65.26 47.22 65.46 46.85L65.47 46.86ZM64.41 48.33L67.53 50.17C67.38 50.31 67.23 50.45 67.07 50.58C66.83 50.78 66.57 50.95 66.3 51.11L63.27 49.32C63.69 49.02 64.07 48.69 64.42 48.33H64.41ZM62.73 49.67L65.68 51.41C65.05 51.68 64.37 51.85 63.66 51.96L61.1 50.45C61.7 50.23 62.24 49.97 62.74 49.68L62.73 49.67ZM60.38 50.69L62.71 52.06C60.51 52.21 58.26 51.78 56.98 51.39C58.25 51.23 59.39 50.99 60.39 50.68L60.38 50.69Z" fill="#EAAD48"/>
<path fill-rule="evenodd" clip-rule="evenodd" d="M13.65 42.37L23.49 30.89C23.78 30.55 24.29 30.51 24.63 30.8C24.97 31.09 25.01 31.6 24.72 31.94L14.88 43.42C14.59 43.76 14.08 43.8 13.74 43.51C13.4 43.22 13.36 42.71 13.65 42.37ZM60.4 43.01L50.96 31.93C50.67 31.59 50.71 31.08 51.05 30.79C51.39 30.5 51.9 30.54 52.19 30.88L61.63 41.96C61.92 42.3 61.88 42.81 61.54 43.1C61.2 43.39 60.69 43.35 60.4 43.01Z" fill="#EAAD48"/>
</svg>
