<svg width="57" height="81" viewBox="0 0 57 81" fill="none" xmlns="http://www.w3.org/2000/svg">
<path d="M22.56 80.31L22.4001 80.29C11.5901 78.76 2.49003 63.2 0.750026 43.28V43.21C0.750026 43.21 0.750026 43.16 0.750026 43.14C-0.619974 22.26 6.34005 5.32002 16.5901 4.55002C18.7301 4.40002 20.86 4.94001 22.93 6.18001C30.75 10.84 36.8 24.87 37.99 41.07C39.1 56.03 35.8201 69.92 29.6501 76.45C27.5601 78.66 25.22 79.95 22.72 80.28L22.56 80.3V80.31ZM3.09005 43.11C4.70005 61.53 13.06 76.46 22.57 77.95C24.47 77.66 26.28 76.62 27.95 74.85C33.69 68.78 36.72 55.59 35.66 41.25C34.52 25.77 28.92 12.48 21.73 8.19002C20.08 7.20002 18.41 6.76002 16.77 6.88002C7.96005 7.53002 1.82005 23.74 3.09005 43V43.04C3.09005 43.04 3.09005 43.08 3.09005 43.1V43.11Z" fill="#EAAD48"/>
<path d="M22.65 80.3L22.48 77.97L37.06 76.91C47.75 76.12 55.34 58.99 53.97 38.72C52.57 18.09 42.86 2.66 31.32 2.66C31.23 2.66 31.15 2.66 31.07 2.66L19.29 3.4C17.71 3.52 16.18 4.02 14.72 4.89C15.33 4.72 15.95 4.61 16.59 4.56C18.73 4.41 20.86 4.95 22.93 6.19C30.75 10.85 36.8 24.88 37.99 41.08C39.1 56.04 35.82 69.93 29.65 76.46L27.95 74.85C33.69 68.78 36.72 55.59 35.66 41.25C34.52 25.77 28.92 12.48 21.73 8.19C20.08 7.2 18.41 6.76 16.77 6.88C7.96003 7.53 1.82004 23.74 3.09004 43L0.760025 43.17L0.690018 42.29C-0.0799822 31.82 1.34002 21.8 4.69002 14.08C8.15002 6.11 13.28 1.48 19.14 1.05L30.99 0.309998C31.09 0.309998 31.2 0.309998 31.3 0.309998C44.34 0.309998 54.81 16.31 56.32 38.55C57.8 60.46 49.43 78.33 37.25 79.23L22.66 80.29L22.65 80.3Z" fill="#EAAD48"/>
<path d="M21.27 65.11C18.19 65.11 15.12 62.84 12.56 58.65C9.97002 54.4 8.14001 48.59 7.42001 42.29C6.70001 35.99 7.16001 29.92 8.73001 25.19C10.39 20.16 13.14 17.19 16.46 16.81C23.07 16.04 29.47 26.06 31.02 39.59C31.74 45.89 31.28 51.96 29.71 56.69C28.05 61.72 25.3 64.69 21.98 65.07C21.74 65.1 21.5 65.11 21.26 65.11H21.27ZM17.18 19.1C17.03 19.1 16.88 19.1 16.72 19.13C14.39 19.4 12.29 21.87 10.95 25.92C9.49004 30.33 9.06003 36.05 9.75003 42.02C10.43 47.99 12.14 53.46 14.56 57.43C16.78 61.07 19.39 63.01 21.72 62.74C24.05 62.47 26.15 60 27.49 55.95C28.95 51.54 29.38 45.82 28.69 39.85C27.38 28.38 22.17 19.1 17.17 19.1H17.18Z" fill="#EAAD48"/>
<path d="M27.48 58.25C27.24 58 21.63 51.96 21.21 40.97C20.83 31.15 24.3 24.29 24.44 24L26 24.8C25.97 24.87 22.6 31.56 22.96 40.9C23.35 51.23 28.69 56.98 28.75 57.04L27.48 58.25Z" fill="#EAAD48"/>
<path d="M54.18 44.61L52.71 43.31L50.79 46.4C50.68 46.58 50.49 46.68 50.29 46.68C50.18 46.68 50.08 46.65 49.98 46.59C49.71 46.42 49.62 46.06 49.79 45.78L52.08 42.11C52.17 41.96 52.32 41.87 52.49 41.84C52.66 41.81 52.83 41.87 52.96 41.98L54.94 43.72L54.29 35.22C54.08 35.34 53.81 35.32 53.62 35.15L51.73 33.46L50.52 36.47C50.43 36.7 50.21 36.84 49.98 36.84C49.91 36.84 49.83 36.83 49.76 36.8C49.46 36.68 49.31 36.34 49.44 36.04L50.96 32.26C51.03 32.08 51.18 31.95 51.37 31.91C51.56 31.87 51.75 31.91 51.89 32.04L54.21 34.1L53.66 26.81L50.25 15.95L46.48 11.66C46.36 11.76 46.21 11.82 46.04 11.8L44.6 11.66L44.4 14.25C44.38 14.56 44.12 14.79 43.82 14.79C43.8 14.79 43.79 14.79 43.77 14.79C43.45 14.76 43.21 14.48 43.23 14.16L43.48 10.97C43.49 10.81 43.57 10.67 43.69 10.57C43.81 10.47 43.96 10.42 44.12 10.44L45.53 10.58L44.22 9.09C44.04 9.14 43.85 9.11001 43.7 8.99001C43.59 8.92001 43.14 8.67001 42.62 8.39001L42.21 10.83C42.16 11.12 41.91 11.32 41.63 11.32C41.6 11.32 41.56 11.32 41.53 11.32C41.21 11.27 41 10.96 41.05 10.65L41.6 7.42001C41.63 7.23001 41.75 7.08001 41.92 6.99001C42.05 6.92001 42.2 6.93001 42.34 6.97001L41.52 6.04C41.02 6.04 40.34 5.84001 39.78 5.63001V7.27001C39.78 7.59001 39.52 7.85001 39.2 7.85001C38.88 7.85001 38.62 7.59001 38.62 7.27001V4.75001C38.62 4.55001 38.72 4.37001 38.89 4.26001C39.06 4.15001 39.27 4.14001 39.45 4.22001C39.7 4.34001 39.96 4.44001 40.21 4.54001L39.24 3.44001L31.74 1.13L30.07 1.36001C32.34 3.03001 46.19 14.13 46.65 36.47C47.15 60.76 43.39 73.79 34.49 78.52L37.89 78.39L43.23 75.8L48.37 71.22L50.08 67.35L47.1 69.55C47 69.63 46.87 69.66 46.75 69.66C46.57 69.66 46.39 69.58 46.28 69.42C46.09 69.16 46.14 68.79 46.4 68.6L49.64 66.21C49.9 66.02 50.27 66.07 50.46 66.33C50.48 66.35 50.48 66.38 50.49 66.4L52.59 61.65L53.87 56.29C53.62 56.41 53.31 56.35 53.14 56.11L52.04 54.54L49.9 58.44C49.79 58.63 49.59 58.74 49.39 58.74C49.3 58.74 49.2 58.72 49.11 58.67C48.83 58.51 48.72 58.16 48.88 57.88L51.47 53.15C51.57 52.97 51.75 52.86 51.95 52.85C52.15 52.84 52.34 52.93 52.46 53.1L54.08 55.41L54.9 51.98L55 44.57C54.79 44.81 54.42 44.84 54.17 44.62L54.18 44.61ZM45.54 18.01C45.23 17.92 45.06 17.59 45.15 17.28L46.05 14.29C46.12 14.04 46.35 13.87 46.61 13.87H48C48.32 13.87 48.58 14.13 48.58 14.45C48.58 14.77 48.32 15.03 48 15.03H47.04L46.27 17.6C46.19 17.85 45.96 18.02 45.71 18.02C45.65 18.02 45.6 18.02 45.54 18V18.01ZM46.6 22.46C46.6 22.46 46.51 22.46 46.46 22.44C46.15 22.36 45.95 22.05 46.03 21.73L46.88 18.3C46.92 18.13 47.03 17.99 47.19 17.92C47.35 17.84 47.53 17.84 47.68 17.91L50.52 19.15C50.82 19.28 50.95 19.62 50.82 19.92C50.69 20.22 50.35 20.35 50.05 20.22L47.85 19.25L47.17 22.01C47.1 22.28 46.87 22.45 46.6 22.45V22.46ZM50.1 60.41C50.22 60.23 50.43 60.14 50.65 60.17C50.86 60.2 51.05 60.34 51.12 60.54L51.87 62.51C51.98 62.81 51.83 63.15 51.53 63.26C51.23 63.37 50.89 63.22 50.78 62.92L50.42 61.98L48.72 64.37C48.61 64.53 48.43 64.62 48.24 64.62C48.12 64.62 48 64.58 47.9 64.51C47.64 64.32 47.58 63.96 47.76 63.69L50.1 60.41ZM48.49 27.19C48.49 27.19 48.44 27.19 48.41 27.19C48.09 27.15 47.87 26.85 47.91 26.53L48.41 22.9C48.43 22.73 48.53 22.57 48.68 22.48C48.83 22.39 49.01 22.37 49.18 22.43L52.19 23.48C52.49 23.59 52.66 23.92 52.55 24.22C52.44 24.52 52.11 24.69 51.81 24.58L49.47 23.77L49.07 26.7C49.03 26.99 48.78 27.21 48.49 27.21V27.19ZM49.3 32.16C48.98 32.11 48.76 31.81 48.81 31.49L49.41 27.61C49.44 27.43 49.55 27.27 49.72 27.18C49.88 27.09 50.08 27.09 50.25 27.18L53.34 28.67C53.63 28.81 53.75 29.16 53.61 29.45C53.47 29.74 53.12 29.86 52.83 29.72L50.46 28.57L49.98 31.67C49.94 31.96 49.69 32.17 49.4 32.17C49.37 32.17 49.34 32.17 49.31 32.17L49.3 32.16ZM49.77 41.21L51.91 37.23C52 37.06 52.17 36.95 52.36 36.93C52.56 36.91 52.74 36.99 52.87 37.14L54.46 39.03C54.67 39.28 54.64 39.65 54.39 39.85C54.14 40.06 53.77 40.03 53.57 39.78L52.53 38.55L50.8 41.77C50.69 41.97 50.49 42.08 50.28 42.08C50.19 42.08 50.09 42.06 50 42.01C49.72 41.86 49.61 41.5 49.76 41.22L49.77 41.21ZM54.84 50.51C54.7 50.8 54.35 50.92 54.06 50.77C53.93 50.71 53.68 50.58 52.28 48.52L50.5 51.68C50.39 51.87 50.19 51.98 49.99 51.98C49.89 51.98 49.79 51.96 49.7 51.9C49.42 51.74 49.32 51.39 49.48 51.1L51.72 47.12C51.82 46.94 52 46.83 52.21 46.82C52.41 46.82 52.61 46.91 52.72 47.08C53.47 48.2 54.4 49.52 54.64 49.75C54.88 49.91 54.98 50.23 54.84 50.5V50.51Z" fill="#EAAD48"/>
<path d="M31.35 71.87L24.96 78.87L33.59 78.54L33.25 77.82C42.08 73.71 45.96 60.57 45.46 36.48C44.98 12.9 29.24 2.19001 29.08 2.09001L29.53 1.42001L14.99 3.43002L11.71 5.33002L20.17 6.00002L26.34 10.46L31.72 19.12L35.87 33.39L37.1 48.22L35.87 60.18L31.36 71.89L31.35 71.87ZM42.63 61.57L39.58 64.44C39.47 64.54 39.33 64.6 39.18 64.6C39.14 64.6 39.1 64.6 39.05 64.59C38.86 64.55 38.71 64.42 38.63 64.24L37.68 61.87C37.56 61.57 37.71 61.23 38.01 61.11C38.31 60.99 38.65 61.14 38.77 61.44L39.4 63.01L41.83 60.73C42.06 60.51 42.44 60.52 42.66 60.76C42.88 61 42.87 61.37 42.63 61.59V61.57ZM43.8 55.71L40.5 59.49C40.39 59.62 40.23 59.69 40.06 59.69C40.02 59.69 39.99 59.69 39.95 59.68C39.75 59.64 39.58 59.5 39.51 59.3L38.63 56.81C38.52 56.51 38.68 56.17 38.99 56.06C39.29 55.95 39.63 56.11 39.74 56.42L40.28 57.96L42.92 54.93C43.13 54.69 43.5 54.66 43.75 54.87C43.99 55.08 44.02 55.45 43.81 55.69L43.8 55.71ZM44.4 50.58L41.37 54.3C41.26 54.44 41.09 54.52 40.92 54.52C40.89 54.52 40.87 54.52 40.84 54.52C40.64 54.49 40.47 54.36 40.38 54.18L39.09 51.29C38.96 51 39.09 50.65 39.38 50.52C39.67 50.39 40.02 50.52 40.15 50.81L41.06 52.83L43.49 49.85C43.69 49.6 44.06 49.56 44.31 49.77C44.56 49.97 44.6 50.34 44.39 50.59L44.4 50.58ZM44.56 44.66L42.12 48.94C42.02 49.11 41.84 49.23 41.64 49.23C41.64 49.23 41.62 49.23 41.61 49.23C41.42 49.23 41.24 49.14 41.13 48.98L39.19 46.19C39.01 45.93 39.07 45.56 39.34 45.38C39.6 45.2 39.97 45.26 40.15 45.53L41.56 47.56L43.54 44.08C43.7 43.8 44.06 43.7 44.34 43.86C44.62 44.02 44.72 44.38 44.56 44.66ZM44.31 36.98C44.6 37.12 44.72 37.47 44.58 37.76L41.94 43.18C41.85 43.36 41.67 43.49 41.47 43.51C41.45 43.51 41.43 43.51 41.41 43.51C41.23 43.51 41.05 43.42 40.94 43.28L38.7 40.31C38.51 40.05 38.56 39.69 38.81 39.49C39.07 39.3 39.43 39.35 39.63 39.6L41.29 41.8L43.51 37.23C43.65 36.94 44 36.82 44.29 36.96L44.31 36.98ZM43.62 32.35C43.91 32.49 44.03 32.85 43.88 33.13L41.44 38.01C41.35 38.19 41.17 38.31 40.97 38.33C40.95 38.33 40.93 38.33 40.91 38.33C40.73 38.33 40.56 38.25 40.45 38.1L38.42 35.46C38.22 35.2 38.27 34.84 38.53 34.64C38.79 34.44 39.15 34.49 39.35 34.75L40.81 36.65L42.83 32.61C42.97 32.32 43.33 32.2 43.61 32.35H43.62ZM42.61 26.87C42.9 27.01 43.03 27.35 42.89 27.65L40.65 32.48C40.57 32.65 40.41 32.78 40.22 32.81C40.19 32.81 40.15 32.81 40.12 32.81C39.96 32.81 39.81 32.75 39.7 32.63L37.32 30.19C37.09 29.96 37.1 29.59 37.33 29.36C37.56 29.13 37.93 29.14 38.16 29.37L39.95 31.2L41.83 27.14C41.97 26.85 42.31 26.72 42.61 26.86V26.87ZM25.4 4.68002C25.09 4.60002 24.9 4.29002 24.97 3.97002C25.05 3.66002 25.37 3.47002 25.68 3.54002C26.46 3.73002 27.34 3.94002 27.9 4.05002C27.94 3.75002 28 3.35001 28.1 2.81001C28.16 2.49001 28.46 2.28001 28.78 2.34001C29.1 2.40001 29.31 2.70001 29.25 3.02001C29.14 3.62001 29.03 4.36001 29.03 4.57001C29.07 4.74002 29.03 4.92002 28.93 5.07002C28.82 5.22002 28.75 5.31001 28.45 5.31001C28.05 5.31001 27.25 5.13002 25.4 4.68002ZM27.6 6.45001C27.75 6.19001 28.08 6.09002 28.34 6.21002C28.52 6.26002 29.28 6.41002 30.07 6.55002V4.72002C30.07 4.40002 30.33 4.14001 30.65 4.14001C30.97 4.14001 31.23 4.40002 31.23 4.72002V7.24002C31.23 7.41002 31.15 7.58002 31.02 7.69002C30.91 7.78002 30.78 7.83002 30.64 7.83002C30.61 7.83002 30.58 7.83002 30.54 7.83002C28.04 7.41002 27.88 7.32001 27.78 7.26001C27.5 7.10001 27.41 6.74002 27.57 6.46002L27.6 6.45001ZM29.41 9.00002C29.57 8.72002 29.92 8.62002 30.2 8.77002L32.58 10.09L32.92 7.41002C32.96 7.09002 33.25 6.87001 33.57 6.90001C33.89 6.94001 34.12 7.23002 34.08 7.55002L33.63 11.08C33.61 11.27 33.49 11.44 33.31 11.53C33.23 11.57 33.14 11.59 33.05 11.59C32.95 11.59 32.85 11.57 32.77 11.52L29.63 9.78001C29.35 9.62001 29.25 9.27001 29.4 8.98001L29.41 9.00002ZM31.4 13.41C31.13 13.24 31.05 12.87 31.22 12.6C31.39 12.33 31.75 12.25 32.03 12.42L34.29 13.86L35.25 11.03C35.35 10.72 35.69 10.56 35.99 10.66C36.3 10.76 36.46 11.1 36.36 11.4L35.17 14.93C35.11 15.1 34.98 15.23 34.81 15.29C34.75 15.31 34.68 15.32 34.62 15.32C34.51 15.32 34.4 15.29 34.31 15.23L31.42 13.39L31.4 13.41ZM33 16.31C33.16 16.03 33.51 15.93 33.8 16.09L36.37 17.53L36.87 14.66C36.93 14.34 37.23 14.13 37.55 14.19C37.87 14.25 38.08 14.55 38.03 14.87L37.38 18.55C37.35 18.74 37.23 18.9 37.05 18.98C36.97 19.02 36.88 19.04 36.8 19.04C36.7 19.04 36.6 19.01 36.51 18.97L33.23 17.13C32.95 16.97 32.85 16.62 33.01 16.33L33 16.31ZM34.4 20.65C34.14 20.46 34.09 20.09 34.28 19.83C34.47 19.57 34.84 19.52 35.1 19.71L37.43 21.45L38.42 18.26C38.52 17.95 38.84 17.78 39.15 17.87C39.46 17.97 39.63 18.29 39.54 18.6L38.31 22.58C38.25 22.76 38.11 22.9 37.93 22.96C37.87 22.98 37.81 22.99 37.75 22.99C37.63 22.99 37.5 22.95 37.4 22.87L34.4 20.63V20.65ZM36.44 25.51C36.22 25.27 36.24 24.9 36.47 24.68C36.71 24.46 37.08 24.47 37.3 24.71L38.79 26.33L40.38 22.45C40.5 22.15 40.85 22.01 41.14 22.13C41.44 22.25 41.58 22.59 41.46 22.89L39.52 27.62C39.44 27.8 39.28 27.94 39.08 27.97C39.05 27.97 39.01 27.97 38.98 27.97C38.82 27.97 38.66 27.9 38.55 27.78L36.43 25.49L36.44 25.51ZM37.12 65.45C37.43 65.38 37.75 65.58 37.81 65.9L38.14 67.44L40.8 65.64C41.07 65.46 41.43 65.53 41.61 65.8C41.79 66.07 41.72 66.43 41.45 66.61L38.07 68.9C37.97 68.97 37.86 69 37.74 69C37.67 69 37.59 68.99 37.52 68.96C37.34 68.89 37.21 68.73 37.17 68.54L36.66 66.15C36.59 65.83 36.79 65.52 37.11 65.46L37.12 65.45ZM36.13 70.81L36.28 71.84L38.29 70.37C38.55 70.18 38.92 70.24 39.11 70.5C39.3 70.76 39.24 71.13 38.98 71.32L36.19 73.36C36.09 73.43 35.97 73.47 35.85 73.47C35.77 73.47 35.7 73.46 35.62 73.42C35.43 73.34 35.3 73.17 35.27 72.97L34.98 70.98C34.93 70.66 35.15 70.36 35.47 70.32C35.79 70.27 36.09 70.49 36.13 70.81Z" fill="#EAAD48"/>
<path d="M21.18 20.43L24.44 24.01L24.96 25.61L22.36 34.17L22.46 43.79L24.96 52.98L27.53 58.95L24.96 61.94L21.18 64.6L15.29 61.34L10.32 51.39L8.03003 38.45L9.02002 26.82L13.1 20.43L16.39 18.03L21.18 20.43Z" fill="#EAAD48"/>
<path fill-rule="evenodd" clip-rule="evenodd" d="M18.19 16.89L25.09 31.42H21.2V50.41H25.09L18.19 64.94L11.29 50.41H15.18V31.42H11.29L18.19 16.89Z" fill="#EAAD48" stroke="white" stroke-miterlimit="10"/>
</svg>
