<svg width="78" height="77" viewBox="0 0 78 77" fill="none" xmlns="http://www.w3.org/2000/svg">
<path fill-rule="evenodd" clip-rule="evenodd" d="M77.58 37.87C77.58 38.05 77.5 38.21 77.38 38.32C77.5 38.43 77.58 38.59 77.58 38.77V42.7C77.58 43.03 77.31 43.3 76.98 43.3H76C75.9 43.98 75.79 44.65 75.65 45.32L75.96 45.41C76.28 45.5 76.46 45.84 76.36 46.15L74.76 51.56C74.67 51.88 74.33 52.05 74.02 51.96L73.71 51.87C73.64 52.04 73.58 52.2 73.51 52.37C73.13 53.29 72.71 54.19 72.27 55.07L72.6 55.26C72.88 55.43 72.98 55.79 72.82 56.08L70 60.96C69.83 61.25 69.47 61.34 69.19 61.17L68.65 60.85C68.09 61.58 67.51 62.29 66.9 62.98L67.32 63.44C67.54 63.68 67.53 64.06 67.29 64.29L63.2 68.14C62.96 68.37 62.58 68.35 62.36 68.11L61.94 67.66C61.16 68.27 60.36 68.85 59.54 69.4L59.72 69.76C59.87 70.05 59.75 70.41 59.46 70.56L54.48 73.13C54.19 73.28 53.83 73.17 53.68 72.87L53.56 72.64C53.38 72.72 53.21 72.79 53.03 72.86C52.35 73.14 51.66 73.4 50.97 73.64L51.04 73.93C51.12 74.25 50.92 74.57 50.6 74.65L45.16 76C44.84 76.08 44.52 75.88 44.44 75.56L44.37 75.27C43.75 75.37 43.13 75.45 42.5 75.51V75.72C42.5 76.05 42.23 76.32 41.9 76.32H36.3C35.97 76.32 35.7 76.05 35.7 75.72V75.62C34.88 75.56 34.06 75.47 33.24 75.36L33.19 75.56C33.11 75.88 32.79 76.07 32.47 76L27.03 74.65C26.71 74.57 26.51 74.25 26.59 73.93L26.62 73.82C25.74 73.53 24.87 73.21 24.01 72.85L23.97 72.83V72.85C23.81 73.14 23.45 73.26 23.16 73.11L18.18 70.54C17.89 70.39 17.77 70.03 17.92 69.74L17.95 69.67C17.09 69.12 16.26 68.53 15.45 67.91L15.28 68.1C15.06 68.34 14.68 68.35 14.44 68.13L10.35 64.28C10.11 64.05 10.1 63.68 10.32 63.43L10.44 63.3C9.79 62.58 9.17002 61.84 8.58002 61.08L8.45001 61.16C8.17001 61.33 7.80001 61.23 7.64001 60.95L4.82001 56.07C4.68001 55.83 4.72997 55.53 4.90997 55.35C4.39997 54.38 3.94002 53.38 3.52002 52.36C3.47002 52.23 3.40999 52.1 3.35999 51.97C3.12999 51.94 2.92999 51.78 2.85999 51.55L1.26001 46.14C1.19001 45.92 1.25998 45.69 1.41998 45.54C1.26998 44.79 1.13002 44.04 1.02002 43.29H0.630005C0.300005 43.29 0.0300293 43.02 0.0300293 42.69V38.76C0.0300293 38.58 0.10998 38.42 0.22998 38.31C0.10998 38.2 0.0300293 38.04 0.0300293 37.86V33.93C0.0300293 33.6 0.300005 33.33 0.630005 33.33H1.02002C1.13002 32.58 1.25998 31.83 1.41998 31.08C1.25998 30.93 1.19001 30.7 1.26001 30.48L2.54999 26.13L4.90997 25.12C4.90997 24.73 5.09002 23.87 5.83002 23.55C6.18002 23.4 6.53002 23.31 6.83002 23.23C7.32002 23.1 7.66998 23.01 7.66998 22.77C7.66998 22.69 7.83999 22.55 8.10999 22.38L8.32001 22.71C7.77001 23.75 7.28003 24.82 6.84003 25.93C6.69003 26.3 6.54997 26.68 6.40997 27.06L5.34998 30.62C4.74998 33.14 4.44999 35.73 4.42999 38.31C4.43999 40.9 4.74998 43.48 5.34998 46L6.40997 49.56C6.54997 49.94 6.69003 50.32 6.84003 50.69C9.97003 58.55 15.95 64.93 23.63 68.59C31.3 72.25 40.12 72.93 48.38 70.51C56.64 68.09 63.76 62.73 68.36 55.46C69.35 53.9 70.21 52.27 70.93 50.59C70.93 50.52 70.93 50.46 70.95 50.39L72.55 44.98C72.6 44.8 72.73 44.67 72.89 44.6C73.22 43.15 73.46 41.69 73.61 40.21V38.73C73.61 38.59 73.66 38.46 73.74 38.36V38.29V38.22C73.66 38.12 73.61 37.99 73.61 37.85V36.37C73.47 34.9 73.23 33.43 72.89 31.98C72.73 31.91 72.6 31.78 72.55 31.6L70.95 26.19C70.93 26.12 70.92 26.06 70.93 25.99C70.21 24.32 69.35 22.69 68.36 21.12C67.34 19.51 66.19 17.98 64.93 16.57C64.65 15.34 63.95 12.87 63.56 11.53C63.72 11.39 63.91 11.3 64.16 11.3C65.01 11.3 65.26 11.3 65.43 11.19C65.5 11.15 65.56 11.09 65.65 11C65.67 10.98 65.7 10.94 65.73 10.88L67.27 12.33C67.51 12.56 67.52 12.93 67.3 13.18L66.88 13.64C67.49 14.33 68.08 15.04 68.63 15.77L69.17 15.45C69.45 15.28 69.82 15.38 69.98 15.66L72.8 20.54C72.96 20.83 72.87 21.19 72.58 21.36L72.25 21.55C72.7 22.43 73.11 23.33 73.49 24.25C73.56 24.42 73.63 24.58 73.69 24.75L74 24.66C74.32 24.57 74.65 24.74 74.74 25.06L76.34 30.47C76.43 30.79 76.25 31.12 75.94 31.21L75.63 31.3C75.76 31.97 75.88 32.64 75.98 33.32H76.96C77.29 33.32 77.56 33.59 77.56 33.92V37.85L77.58 37.87ZM59.82 7.44998C59.72 7.37998 59.62 7.30997 59.52 7.24997L59.7 6.88998C59.85 6.59998 59.73 6.23997 59.44 6.08997L54.46 3.51996C54.17 3.36996 53.81 3.47997 53.66 3.77997L53.54 4.00998C53.36 3.92998 53.19 3.85998 53.01 3.78998C52.33 3.50998 51.64 3.24998 50.95 3.00998L51.02 2.71997C51.1 2.39997 50.9 2.07997 50.58 1.99997L45.14 0.649963C44.82 0.569963 44.5 0.769966 44.42 1.08997L44.35 1.37997C43.73 1.27997 43.11 1.19998 42.48 1.13998V0.929962C42.48 0.599962 42.21 0.329956 41.88 0.329956H36.28C35.95 0.329956 35.68 0.599962 35.68 0.929962V1.02997C34.86 1.08997 34.04 1.17998 33.22 1.28998L33.17 1.08997C33.09 0.769966 32.77 0.579963 32.45 0.649963L27.01 1.99997C26.69 2.07997 26.49 2.39997 26.57 2.71997L26.6 2.82996C25.72 3.11996 24.85 3.43996 23.99 3.79996L23.95 3.81998V3.79996C23.79 3.50996 23.43 3.38998 23.14 3.53998L18.16 6.10995C17.87 6.25995 17.75 6.61997 17.9 6.90997L17.93 6.96997C17.07 7.51997 16.24 8.10998 15.43 8.72998L15.26 8.53998C15.04 8.29998 14.66 8.28998 14.42 8.50998L12.99 9.84998C13.06 9.84998 13.12 9.84998 13.17 9.84998C13.74 9.84998 13.96 9.99996 14.26 10.21C14.45 10.34 14.66 10.49 15.01 10.64C15.75 10.95 16.85 11.55 17.31 11.82C17.29 11.87 17.28 11.93 17.26 11.98C19.2 10.45 21.33 9.12996 23.6 8.04996C31.27 4.38996 40.09 3.70997 48.35 6.12997C52.38 7.30997 56.14 9.18996 59.46 11.65L59.66 11.05L58.77 9.25998L59.79 7.46997L59.82 7.44998ZM59.15 12.63C55.86 10.15 52.12 8.25996 48.11 7.07996C40.09 4.72996 31.53 5.38997 24.09 8.93997C21.41 10.22 18.95 11.83 16.75 13.74C16.29 15.18 15.75 16.69 15.51 16.9C15.39 17.01 15.3 17.08 15.19 17.14C14.91 17.29 14.56 17.29 13.23 17.29C12.98 17.59 12.73 17.89 12.49 18.19C13.3 20.58 14.59 24.55 14.59 25.13C14.59 25.56 14.73 25.64 14.93 25.75C15.1 25.84 15.3 25.96 15.51 26.31C15.97 27.09 15.05 28.27 14.59 28.66C14.35 28.87 14.23 29.41 14.11 29.99C14 30.5 13.89 31.04 13.67 31.41C13.41 31.85 13.3 31.92 13.01 32.1C12.78 32.24 12.44 32.46 11.83 32.98C10.83 33.83 11.04 34.07 11.23 34.28C11.3 34.36 11.37 34.44 11.37 34.55C11.37 34.86 10.76 36.25 10.45 36.9V38.86C10.6 39.64 10.82 41.13 10.45 40.82C10.08 40.51 9.38001 38.86 9.07001 38.08C8.92001 37.69 8.51 36.83 8.13 36.51C7.74001 36.2 7.97001 34.03 8.13 32.98L7.69 31.41L11.37 27.49L8.96997 23.72C8.53997 24.57 8.14999 25.44 7.79999 26.32C6.31999 30.02 5.54998 33.94 5.47998 37.87C5.47998 38.02 5.47998 38.17 5.47998 38.32C5.47998 38.47 5.47998 38.62 5.47998 38.77C5.54998 42.71 6.32999 46.62 7.79999 50.32C10.84 57.95 16.65 64.14 24.09 67.7C31.54 71.25 40.1 71.92 48.11 69.56C56.13 67.21 63.04 62 67.51 54.96C70.63 50.04 72.4 44.46 72.72 38.77H72.76C72.76 38.62 72.76 38.47 72.74 38.32C72.74 38.17 72.75 38.02 72.76 37.87H72.72C72.41 32.19 70.63 26.61 67.51 21.68C66.93 20.76 66.31 19.88 65.65 19.03C65.51 19.43 65.24 19.8 65.06 19.97C64.9 20.13 64.83 20.54 64.75 20.98C64.68 21.37 64.61 21.78 64.47 22.06C64.3 22.39 64.23 22.45 64.04 22.59C63.89 22.7 63.67 22.86 63.28 23.26C62.63 23.91 62.77 24.09 62.89 24.25C62.94 24.31 62.98 24.37 62.98 24.45C62.98 24.69 62.58 25.74 62.38 26.24V27.73C62.48 28.33 62.62 29.46 62.38 29.22C62.14 28.98 61.68 27.73 61.49 27.13C61.39 26.83 61.13 26.18 60.88 25.94C60.63 25.7 60.78 24.05 60.88 23.26L60.6 22.07L62.99 19.09L60.89 15.21C60.72 15.34 60.61 15.44 60.61 15.51C60.61 15.69 60.38 15.76 60.07 15.86C59.88 15.92 59.65 15.99 59.42 16.1C58.94 16.34 58.82 16.99 58.82 17.29L56.43 18.48L57.03 16.39L57.92 15.79C58.02 15.49 58.28 14.78 58.52 14.3C58.69 13.97 58.96 13.23 59.17 12.62L59.15 12.63ZM16.4 38.77H16.43C16.68 43.4 18.41 47.86 21.4 51.47C24.95 55.77 30.01 58.54 35.54 59.23C41.07 59.92 46.65 58.46 51.14 55.16C55.63 51.86 58.69 46.97 59.69 41.49C59.86 40.59 59.96 39.68 60.01 38.77H60.04C60.04 38.62 60.04 38.47 60.03 38.32C60.03 38.17 60.03 38.02 60.04 37.87H60.01C59.96 36.96 59.85 36.05 59.69 35.15C58.69 29.67 55.63 24.78 51.14 21.48C46.65 18.18 41.07 16.73 35.54 17.41C30.01 18.1 24.95 20.87 21.4 25.17C18.42 28.78 16.69 33.24 16.43 37.87H16.4C16.4 38.02 16.4 38.17 16.41 38.32C16.41 38.47 16.41 38.62 16.4 38.77ZM26.74 42.75C26.16 41.34 25.83 39.84 25.78 38.32C25.83 36.8 26.16 35.3 26.74 33.89C27.38 32.34 28.32 30.94 29.5 29.75C30.68 28.57 32.09 27.63 33.64 26.99C35.19 26.35 36.84 26.02 38.52 26.02C40.2 26.02 41.85 26.35 43.4 26.99C44.95 27.63 46.35 28.57 47.54 29.75C48.72 30.93 49.66 32.34 50.3 33.89C50.88 35.3 51.21 36.8 51.26 38.32C51.21 39.84 50.88 41.34 50.3 42.75C49.66 44.3 48.72 45.7 47.54 46.89C46.36 48.07 44.95 49.01 43.4 49.65C41.85 50.29 40.2 50.62 38.52 50.62C36.84 50.62 35.19 50.29 33.64 49.65C32.09 49.01 30.69 48.07 29.5 46.89C28.32 45.71 27.38 44.3 26.74 42.75ZM20.74 24.63C17.53 28.51 15.72 33.33 15.56 38.32C15.72 43.31 17.53 48.13 20.74 52.01C24.43 56.47 29.68 59.35 35.42 60.07C41.16 60.78 46.96 59.27 51.63 55.85C56.29 52.42 59.47 47.34 60.51 41.65C60.71 40.55 60.83 39.44 60.87 38.33C60.83 37.22 60.72 36.11 60.51 35.01C59.47 29.32 56.29 24.24 51.63 20.81C46.97 17.38 41.17 15.87 35.42 16.59C29.68 17.3 24.42 20.19 20.74 24.65V24.63Z" fill="#EAAD48"/>
</svg>
