<svg width="61" height="85" viewBox="0 0 61 85" fill="none" xmlns="http://www.w3.org/2000/svg">
<path d="M19.15 77.8L19.01 77.78C9.65 76.46 1.77 62.98 0.269996 45.74V45.68C0.269996 45.68 0.269996 45.64 0.269996 45.62C-0.910004 27.55 5.10999 12.88 13.98 12.22C15.83 12.09 17.67 12.56 19.47 13.63C26.24 17.67 31.48 29.81 32.51 43.84C33.47 56.79 30.63 68.81 25.29 74.47C23.48 76.39 21.46 77.5 19.29 77.79L19.15 77.81V77.8ZM2.3 45.59C3.69 61.54 10.93 74.46 19.16 75.75C20.81 75.5 22.37 74.6 23.82 73.07C28.79 67.81 31.41 56.39 30.49 43.98C29.5 30.58 24.66 19.08 18.43 15.36C17 14.51 15.56 14.13 14.13 14.23C6.49999 14.8 1.19 28.82 2.29 45.5V45.53C2.29 45.53 2.29 45.57 2.29 45.58L2.3 45.59Z" fill="#EAAD48"/>
<path d="M19.23 77.78L19.08 75.76L31.71 74.84C40.97 74.16 47.53 59.33 46.35 41.78C45.14 23.92 36.73 10.56 26.74 10.56C26.67 10.56 26.59 10.56 26.52 10.56L16.32 11.2C14.95 11.3 13.62 11.74 12.37 12.49C12.9 12.34 13.44 12.25 13.99 12.21C15.84 12.08 17.68 12.55 19.48 13.62C26.25 17.66 31.49 29.8 32.52 43.83C33.48 56.78 30.64 68.8 25.3 74.46L23.83 73.07C28.8 67.81 31.42 56.39 30.5 43.98C29.51 30.58 24.67 19.08 18.44 15.36C17.01 14.51 15.57 14.13 14.14 14.23C6.51 14.8 1.2 28.82 2.3 45.5L0.279997 45.65L0.219998 44.89C-0.450002 35.82 0.779998 27.15 3.68 20.47C6.68 13.57 11.12 9.56999 16.19 9.18999L26.44 8.54999C26.53 8.54999 26.62 8.54999 26.71 8.54999C38 8.54999 47.06 22.4 48.37 41.65C49.65 60.62 42.4 76.08 31.86 76.86L19.23 77.78Z" fill="#EAAD48"/>
<path d="M18.04 64.63C15.37 64.63 12.72 62.67 10.5 59.04C8.25999 55.36 6.67999 50.33 6.04999 44.88C5.42999 39.43 5.82999 34.17 7.17999 30.08C8.61999 25.73 11 23.15 13.87 22.82C19.59 22.16 25.13 30.83 26.48 42.54C27.1 47.99 26.7 53.25 25.35 57.34C23.91 61.69 21.53 64.27 18.66 64.6C18.45 64.62 18.25 64.64 18.04 64.64V64.63ZM14.5 24.8C14.37 24.8 14.24 24.8 14.11 24.82C12.09 25.05 10.27 27.19 9.11 30.7C7.85 34.52 7.47999 39.47 8.06999 44.64C8.65999 49.81 10.14 54.55 12.24 57.98C14.16 61.13 16.42 62.81 18.44 62.58C20.46 62.35 22.28 60.21 23.44 56.7C24.7 52.88 25.07 47.93 24.48 42.76C23.34 32.83 18.84 24.8 14.51 24.8H14.5Z" fill="#EAAD48"/>
<path d="M23.41 58.7C23.2 58.48 18.35 53.25 17.98 43.74C17.66 35.24 20.65 29.3 20.78 29.05L22.13 29.74C22.1 29.8 19.19 35.59 19.5 43.67C19.84 52.62 24.46 57.59 24.51 57.64L23.41 58.69V58.7Z" fill="#EAAD48"/>
<path d="M46.52 46.89L45.24 45.77L43.57 48.44C43.47 48.59 43.31 48.68 43.14 48.68C43.05 48.68 42.96 48.66 42.87 48.6C42.63 48.45 42.56 48.14 42.71 47.9L44.69 44.72C44.77 44.59 44.9 44.51 45.05 44.49C45.2 44.47 45.35 44.51 45.46 44.61L47.17 46.12L46.61 38.76C46.43 38.86 46.2 38.84 46.03 38.7L44.39 37.24L43.34 39.85C43.26 40.05 43.07 40.17 42.87 40.17C42.81 40.17 42.74 40.16 42.68 40.13C42.42 40.03 42.29 39.73 42.4 39.47L43.71 36.2C43.77 36.05 43.9 35.93 44.06 35.9C44.22 35.86 44.39 35.9 44.51 36.01L46.52 37.8L46.04 31.49L43.09 22.09L39.83 18.38C39.73 18.47 39.6 18.52 39.45 18.5L38.2 18.38L38.02 20.62C38 20.89 37.78 21.09 37.52 21.09C37.51 21.09 37.49 21.09 37.48 21.09C37.2 21.07 36.99 20.82 37.01 20.55L37.23 17.79C37.24 17.65 37.31 17.53 37.41 17.44C37.51 17.35 37.64 17.31 37.78 17.32L39 17.44L37.87 16.15C37.72 16.19 37.55 16.17 37.42 16.06C37.32 16 36.93 15.78 36.48 15.54L36.12 17.65C36.08 17.9 35.86 18.07 35.62 18.07C35.59 18.07 35.56 18.07 35.53 18.07C35.25 18.02 35.07 17.76 35.12 17.49L35.59 14.69C35.62 14.53 35.72 14.39 35.87 14.32C35.98 14.26 36.11 14.27 36.23 14.3L35.52 13.49C35.09 13.49 34.5 13.32 34.01 13.13V14.55C34.01 14.83 33.78 15.06 33.5 15.06C33.22 15.06 32.99 14.83 32.99 14.55V12.37C32.99 12.2 33.08 12.04 33.22 11.94C33.37 11.85 33.55 11.83 33.7 11.91C33.92 12.01 34.14 12.1 34.36 12.18L33.52 11.23L27.03 9.22998L25.59 9.42998C27.55 10.87 39.55 20.48 39.95 39.83C40.38 60.85 37.13 72.14 29.43 76.23L32.38 76.12L37.01 73.88L41.46 69.92L42.94 66.57L40.36 68.47C40.27 68.54 40.16 68.57 40.06 68.57C39.9 68.57 39.75 68.5 39.65 68.36C39.48 68.14 39.53 67.82 39.76 67.65L42.56 65.58C42.79 65.41 43.1 65.46 43.27 65.69C43.28 65.71 43.29 65.73 43.3 65.75L45.12 61.64L46.23 57C46.01 57.11 45.74 57.05 45.6 56.84L44.65 55.48L42.8 58.86C42.71 59.03 42.53 59.12 42.36 59.12C42.28 59.12 42.19 59.1 42.12 59.06C41.87 58.93 41.78 58.62 41.92 58.37L44.16 54.28C44.24 54.13 44.4 54.03 44.58 54.02C44.75 54.01 44.92 54.09 45.02 54.23L46.43 56.23L47.14 53.26L47.23 46.84C47.05 47.05 46.73 47.07 46.52 46.89ZM39.04 23.86C38.77 23.78 38.62 23.5 38.7 23.23L39.48 20.64C39.54 20.43 39.74 20.28 39.96 20.28H41.17C41.45 20.28 41.68 20.51 41.68 20.79C41.68 21.07 41.45 21.3 41.17 21.3H40.34L39.67 23.52C39.6 23.74 39.4 23.88 39.19 23.88C39.14 23.88 39.09 23.88 39.04 23.86ZM39.96 27.72C39.96 27.72 39.88 27.72 39.84 27.71C39.57 27.64 39.4 27.37 39.47 27.1L40.2 24.13C40.24 23.98 40.33 23.86 40.47 23.8C40.6 23.73 40.76 23.73 40.9 23.8L43.36 24.88C43.62 24.99 43.73 25.29 43.62 25.55C43.51 25.81 43.21 25.92 42.95 25.81L41.04 24.97L40.45 27.36C40.39 27.59 40.19 27.75 39.96 27.75V27.72ZM42.99 60.57C43.1 60.42 43.28 60.34 43.47 60.36C43.65 60.38 43.81 60.51 43.88 60.68L44.53 62.38C44.63 62.64 44.5 62.93 44.24 63.03C43.98 63.13 43.69 63 43.59 62.74L43.28 61.92L41.8 63.99C41.7 64.13 41.55 64.2 41.39 64.2C41.29 64.2 41.19 64.17 41.1 64.11C40.87 63.95 40.82 63.63 40.98 63.4L43 60.56L42.99 60.57ZM41.59 31.81C41.59 31.81 41.54 31.81 41.52 31.81C41.24 31.77 41.05 31.52 41.09 31.24L41.52 28.09C41.54 27.94 41.63 27.81 41.76 27.73C41.89 27.65 42.05 27.63 42.19 27.68L44.8 28.58C45.06 28.67 45.2 28.96 45.11 29.22C45.02 29.48 44.73 29.62 44.47 29.53L42.45 28.83L42.1 31.36C42.06 31.61 41.85 31.8 41.6 31.8L41.59 31.81ZM42.29 36.11C42.01 36.07 41.82 35.81 41.87 35.53L42.39 32.17C42.41 32.01 42.51 31.87 42.65 31.8C42.79 31.73 42.96 31.72 43.11 31.8L45.78 33.09C46.03 33.21 46.14 33.51 46.02 33.77C45.9 34.02 45.6 34.13 45.34 34.01L43.29 33.02L42.88 35.7C42.84 35.95 42.63 36.13 42.38 36.13C42.35 36.13 42.33 36.13 42.3 36.13L42.29 36.11ZM42.7 43.94L44.55 40.49C44.63 40.34 44.78 40.24 44.94 40.23C45.11 40.21 45.27 40.28 45.38 40.41L46.76 42.05C46.94 42.26 46.91 42.58 46.7 42.76C46.48 42.94 46.17 42.91 45.99 42.7L45.09 41.63L43.59 44.42C43.5 44.59 43.32 44.69 43.14 44.69C43.06 44.69 42.98 44.67 42.9 44.63C42.65 44.5 42.56 44.19 42.69 43.94H42.7ZM47.09 51.99C46.97 52.24 46.66 52.34 46.41 52.22C46.3 52.17 46.08 52.06 44.87 50.27L43.33 53C43.24 53.17 43.07 53.26 42.89 53.26C42.81 53.26 42.72 53.24 42.64 53.19C42.4 53.05 42.31 52.74 42.45 52.5L44.39 49.05C44.48 48.9 44.64 48.8 44.81 48.79C44.98 48.79 45.15 48.87 45.25 49.02C45.9 49.99 46.71 51.14 46.92 51.33C47.13 51.47 47.21 51.75 47.1 51.98L47.09 51.99Z" fill="#EAAD48"/>
<path d="M26.77 70.48L21.24 76.54L28.71 76.25L28.42 75.62C36.06 72.06 39.42 60.69 38.99 39.84C38.57 19.43 24.95 10.16 24.81 10.07L25.2 9.48999L12.62 11.23L9.78 12.87L17.1 13.45L22.44 17.31L27.09 24.81L30.68 37.16L31.75 50L30.68 60.35L26.78 70.48H26.77ZM36.54 61.57L33.9 64.05C33.81 64.14 33.68 64.19 33.55 64.19C33.51 64.19 33.48 64.19 33.44 64.18C33.28 64.14 33.14 64.03 33.08 63.87L32.26 61.82C32.16 61.56 32.28 61.27 32.54 61.16C32.8 61.06 33.09 61.18 33.2 61.44L33.74 62.8L35.84 60.83C36.04 60.64 36.36 60.65 36.56 60.85C36.75 61.05 36.74 61.37 36.54 61.57ZM37.55 56.49L34.69 59.76C34.59 59.87 34.45 59.93 34.31 59.93C34.28 59.93 34.25 59.93 34.21 59.93C34.03 59.9 33.89 59.77 33.83 59.6L33.07 57.45C32.98 57.19 33.12 56.9 33.38 56.8C33.64 56.71 33.93 56.85 34.03 57.11L34.5 58.45L36.79 55.83C36.97 55.62 37.29 55.6 37.5 55.78C37.71 55.96 37.73 56.28 37.55 56.49ZM38.07 52.05L35.45 55.27C35.35 55.39 35.21 55.46 35.06 55.46C35.04 55.46 35.02 55.46 34.99 55.46C34.82 55.44 34.67 55.33 34.59 55.17L33.47 52.67C33.36 52.41 33.47 52.12 33.72 52C33.98 51.89 34.27 52 34.39 52.25L35.17 54L37.27 51.42C37.45 51.2 37.76 51.17 37.98 51.35C38.2 51.53 38.23 51.85 38.05 52.06L38.07 52.05ZM38.21 46.93L36.1 50.64C36.01 50.79 35.86 50.89 35.68 50.9H35.66C35.49 50.9 35.34 50.82 35.24 50.68L33.56 48.27C33.4 48.04 33.46 47.73 33.69 47.57C33.92 47.41 34.23 47.47 34.39 47.7L35.61 49.45L37.32 46.44C37.46 46.2 37.77 46.11 38.01 46.25C38.25 46.39 38.34 46.7 38.2 46.94L38.21 46.93ZM37.99 40.28C38.24 40.4 38.35 40.71 38.22 40.96L35.94 45.66C35.86 45.82 35.71 45.93 35.53 45.94C35.51 45.94 35.5 45.94 35.48 45.94C35.32 45.94 35.17 45.87 35.08 45.74L33.14 43.17C32.97 42.95 33.02 42.63 33.24 42.46C33.46 42.29 33.78 42.34 33.95 42.56L35.39 44.47L37.31 40.52C37.43 40.27 37.74 40.16 37.99 40.29V40.28ZM37.39 36.28C37.64 36.41 37.74 36.71 37.62 36.96L35.51 41.18C35.43 41.34 35.28 41.44 35.11 41.46C35.09 41.46 35.08 41.46 35.06 41.46C34.9 41.46 34.75 41.39 34.66 41.26L32.9 38.98C32.73 38.76 32.77 38.44 32.99 38.27C33.21 38.1 33.53 38.14 33.7 38.36L34.96 40L36.71 36.5C36.83 36.25 37.14 36.15 37.39 36.27V36.28ZM36.51 31.53C36.76 31.65 36.87 31.95 36.76 32.2L34.82 36.38C34.75 36.53 34.61 36.64 34.45 36.67C34.42 36.67 34.39 36.67 34.36 36.67C34.22 36.67 34.09 36.62 34 36.52L31.94 34.41C31.74 34.21 31.75 33.89 31.94 33.69C32.13 33.49 32.46 33.5 32.66 33.69L34.21 35.28L35.84 31.77C35.96 31.52 36.26 31.41 36.51 31.52V31.53ZM21.61 12.32C21.34 12.25 21.17 11.98 21.24 11.71C21.31 11.44 21.58 11.27 21.85 11.34C22.52 11.51 23.29 11.69 23.77 11.78C23.8 11.52 23.85 11.18 23.94 10.7C23.99 10.42 24.25 10.24 24.53 10.29C24.81 10.34 24.99 10.6 24.94 10.88C24.85 11.4 24.75 12.04 24.75 12.22C24.78 12.37 24.75 12.53 24.66 12.65C24.56 12.78 24.5 12.86 24.25 12.86C23.91 12.86 23.21 12.71 21.61 12.31V12.32ZM23.52 13.86C23.65 13.63 23.93 13.55 24.16 13.65C24.31 13.7 24.97 13.82 25.66 13.94V12.36C25.66 12.08 25.89 11.85 26.17 11.85C26.45 11.85 26.68 12.08 26.68 12.36V14.54C26.68 14.69 26.61 14.83 26.5 14.93C26.41 15.01 26.29 15.05 26.17 15.05C26.14 15.05 26.11 15.05 26.09 15.05C23.93 14.69 23.79 14.61 23.7 14.56C23.46 14.42 23.38 14.11 23.52 13.87V13.86ZM25.08 16.07C25.22 15.83 25.52 15.74 25.77 15.87L27.83 17.01L28.12 14.69C28.16 14.41 28.41 14.22 28.69 14.25C28.97 14.29 29.16 14.54 29.13 14.82L28.74 17.88C28.72 18.05 28.62 18.19 28.47 18.27C28.4 18.31 28.32 18.32 28.24 18.32C28.15 18.32 28.07 18.3 27.99 18.26L25.28 16.75C25.04 16.61 24.95 16.31 25.08 16.06V16.07ZM26.8 19.89C26.56 19.74 26.5 19.43 26.65 19.19C26.8 18.95 27.11 18.89 27.35 19.04L29.3 20.29L30.13 17.84C30.22 17.58 30.51 17.43 30.77 17.52C31.03 17.61 31.18 17.9 31.09 18.16L30.06 21.22C30.01 21.37 29.9 21.48 29.75 21.54C29.7 21.56 29.64 21.57 29.58 21.57C29.48 21.57 29.39 21.54 29.31 21.49L26.81 19.9L26.8 19.89ZM28.18 22.4C28.32 22.16 28.62 22.07 28.87 22.21L31.09 23.45L31.53 20.97C31.58 20.69 31.84 20.51 32.12 20.56C32.4 20.61 32.58 20.87 32.53 21.15L31.97 24.34C31.94 24.5 31.84 24.64 31.69 24.71C31.62 24.74 31.55 24.76 31.47 24.76C31.38 24.76 31.3 24.74 31.22 24.7L28.38 23.11C28.14 22.97 28.05 22.66 28.19 22.42L28.18 22.4ZM29.4 26.16C29.18 25.99 29.13 25.68 29.3 25.45C29.47 25.23 29.78 25.18 30.01 25.35L32.03 26.86L32.89 24.1C32.97 23.83 33.26 23.68 33.52 23.77C33.79 23.85 33.94 24.14 33.85 24.4L32.78 27.85C32.73 28.01 32.61 28.13 32.45 28.18C32.4 28.2 32.35 28.2 32.29 28.2C32.18 28.2 32.08 28.17 31.99 28.1L29.4 26.16ZM31.16 30.36C30.97 30.15 30.98 29.83 31.19 29.64C31.39 29.45 31.72 29.46 31.91 29.67L33.2 31.07L34.58 27.71C34.69 27.45 34.98 27.33 35.24 27.43C35.5 27.54 35.62 27.83 35.52 28.09L33.84 32.18C33.77 32.34 33.63 32.46 33.46 32.49C33.43 32.49 33.4 32.49 33.37 32.49C33.23 32.49 33.1 32.43 33 32.33L31.17 30.35L31.16 30.36ZM31.75 64.94C32.02 64.88 32.29 65.06 32.35 65.33L32.63 66.66L34.93 65.1C35.16 64.94 35.48 65 35.63 65.23C35.78 65.46 35.73 65.78 35.49 65.93L32.56 67.91C32.47 67.97 32.38 68 32.28 68C32.22 68 32.15 67.99 32.09 67.96C31.93 67.9 31.82 67.76 31.78 67.6L31.34 65.53C31.28 65.26 31.46 64.99 31.73 64.93L31.75 64.94ZM30.89 69.58L31.02 70.47L32.76 69.2C32.99 69.03 33.3 69.08 33.47 69.31C33.63 69.54 33.59 69.85 33.36 70.02L30.95 71.78C30.86 71.84 30.76 71.88 30.65 71.88C30.58 71.88 30.52 71.87 30.45 71.84C30.29 71.77 30.17 71.62 30.14 71.45L29.89 69.73C29.85 69.45 30.04 69.2 30.32 69.16C30.6 69.12 30.85 69.31 30.89 69.59V69.58Z" fill="#EAAD48"/>
<path d="M17.96 25.96L20.78 29.05L21.23 30.44L18.98 37.85L19.07 46.18L21.24 54.14L23.46 59.31L21.23 61.89L17.96 64.19L12.87 61.37L8.56 52.76L6.58 41.55L7.44 31.48L10.97 25.96L13.81 23.88L17.96 25.96Z" fill="#EAAD48"/>
<path fill-rule="evenodd" clip-rule="evenodd" d="M47.15 2.32999L58.67 26.6H52.16V58.31H58.67L47.15 82.58L35.63 58.31H42.14V26.6H35.63L47.15 2.32999Z" fill="#EAAD48" stroke="white" stroke-width="2" stroke-miterlimit="10"/>
</svg>
