<svg width="81" height="34" viewBox="0 0 81 34" fill="none" xmlns="http://www.w3.org/2000/svg">
<path fill-rule="evenodd" clip-rule="evenodd" d="M37.08 0.789997C37.08 0.549997 37.28 0.349995 37.52 0.349995H42.38C42.62 0.349995 42.82 0.549997 42.82 0.789997V1.74999C43.21 1.76999 43.61 1.80999 44 1.83999L44.2 0.779988C44.25 0.539988 44.48 0.379982 44.72 0.429982L49.49 1.35C49.73 1.39999 49.89 1.62998 49.84 1.86998L49.66 2.79998C50.07 2.89998 50.48 3.00998 50.88 3.11998L51.28 2.08999C51.37 1.85999 51.62 1.74999 51.85 1.83999L56.38 3.59999C56.61 3.68999 56.72 3.94 56.63 4.17L56.28 5.05999C56.77 5.27999 57.25 5.49998 57.73 5.73998L58.27 4.82C58.39 4.61 58.66 4.53999 58.87 4.65999L63.06 7.11998C63.27 7.23998 63.34 7.50999 63.22 7.71999L62.68 8.64998C63.21 9.01998 63.74 9.4 64.25 9.79L64.92 9.05999C65.08 8.87999 65.36 8.86999 65.54 9.02999L69.12 12.31C69.3 12.47 69.31 12.75 69.15 12.93L68.54 13.59C68.8 13.86 69.06 14.13 69.32 14.4L69.98 13.88C70.17 13.73 70.45 13.76 70.6 13.95L73.61 17.77C73.76 17.96 73.73 18.24 73.54 18.39L72.93 18.87C73.17 19.21 73.4 19.55 73.62 19.9L74.28 19.53C74.49 19.41 74.76 19.49 74.88 19.7L77.26 23.94C77.38 24.15 77.3 24.42 77.09 24.54L76.41 24.92C76.69 25.53 76.96 26.14 77.22 26.76L78.04 26.51C78.27 26.44 78.52 26.57 78.59 26.8L80.01 31.45C80.08 31.68 79.95 31.93 79.72 32L79.03 32.21C79.14 32.62 79.23 33.03 79.33 33.45H62.03C60.02 29.04 56.87 25.3 52.89 22.7C47.64 19.27 41.36 18.08 35.32 19.39C29.28 20.7 23.93 24.39 20.36 29.74C19.57 30.92 18.88 32.17 18.29 33.45H1.45001C1.50001 33.24 1.54001 33.04 1.59001 32.83L0.320007 32.46C0.0900068 32.39 -0.0499932 32.15 0.0200068 31.91L1.37001 27.24C1.44001 27.01 1.68001 26.87 1.92001 26.94L3.32001 27.35C3.55001 26.77 3.79001 26.19 4.05001 25.61L2.84001 24.95C2.63001 24.83 2.55001 24.57 2.66001 24.35L4.98001 20.08C5.10001 19.87 5.36001 19.79 5.58001 19.9L6.75001 20.54C6.95001 20.21 7.16001 19.89 7.37001 19.57L6.29001 18.75C6.10001 18.6 6.06001 18.32 6.21001 18.13L9.16001 14.27C9.31001 14.08 9.59001 14.04 9.78001 14.19L10.87 15.03C11.1 14.77 11.33 14.52 11.57 14.26L10.59 13.22C10.42 13.04 10.43 12.76 10.61 12.6L14.15 9.26998C14.33 9.09998 14.61 9.11 14.77 9.29L15.78 10.36C16.26 9.96997 16.75 9.59998 17.24 9.23998L16.44 7.92998C16.31 7.71998 16.38 7.45 16.59 7.32L20.74 4.79C20.95 4.66 21.22 4.72999 21.35 4.93999L22.12 6.2C22.57 5.96 23.03 5.73 23.49 5.51L22.98 4.26998C22.89 4.03998 23 3.78999 23.22 3.68999L27.72 1.85997C27.95 1.76997 28.2 1.87999 28.3 2.1L28.83 3.40999C29.22 3.28999 29.6 3.18 29.99 3.07L29.74 1.85997C29.69 1.61997 29.84 1.38999 30.08 1.33999L34.84 0.349995C35.08 0.299995 35.31 0.449991 35.36 0.689991L35.62 1.93999C36.1 1.87999 36.59 1.83 37.08 1.79V0.769978V0.789997ZM19.41 33.48H22.67C23.83 31.14 25.42 29.04 27.39 27.29C30.95 24.13 35.48 22.37 40.18 22.31C44.88 22.26 49.45 23.92 53.08 26.99C55.19 28.79 56.91 31 58.13 33.47H60.95C59.02 29.44 56.07 26.02 52.4 23.62C47.36 20.33 41.34 19.19 35.54 20.44C29.75 21.69 24.62 25.24 21.19 30.37C20.53 31.36 19.93 32.4 19.42 33.48H19.41Z" fill="#EAAD48"/>
<path d="M17.05 29.84L16.27 29.42L15.04 26.73C14.99 26.61 14.92 26.5 14.84 26.41C14.76 26.32 14.68 26.25 14.6 26.2C14.48 26.13 14.36 26.12 14.25 26.16C14.14 26.2 14.04 26.3 13.97 26.45C13.89 26.59 13.88 26.73 13.93 26.87C13.98 27.01 14.08 27.14 14.24 27.25L13.76 28.14C13.34 27.87 13.07 27.55 12.97 27.17C12.86 26.79 12.92 26.4 13.13 26C13.36 25.57 13.65 25.29 13.98 25.16C14.32 25.03 14.68 25.07 15.06 25.28C15.27 25.39 15.46 25.54 15.62 25.72C15.79 25.9 15.92 26.1 16.02 26.32L16.84 28.22L17.68 26.65L18.52 27.1L17.06 29.83L17.05 29.84Z" fill="white"/>
<path d="M19.76 25.4501C19.57 25.7001 19.36 25.89 19.12 26.02C18.88 26.15 18.63 26.2101 18.37 26.2001C18.11 26.1901 17.85 26.1 17.59 25.93L18.19 25.11C18.33 25.19 18.47 25.2101 18.6 25.1901C18.73 25.1701 18.84 25.0901 18.93 24.9701C19.04 24.8201 19.08 24.67 19.06 24.53C19.04 24.39 18.95 24.26 18.8 24.15L18.7 24.08C18.54 23.96 18.39 23.9001 18.26 23.9101C18.12 23.9101 18.01 23.9801 17.92 24.1001L17.66 24.46L16.9 23.9L17.16 23.5401C17.23 23.4401 17.25 23.3301 17.22 23.2201C17.18 23.1101 17.1 23 16.96 22.9L16.89 22.8501C16.76 22.7501 16.64 22.7101 16.52 22.7201C16.4 22.7301 16.31 22.79 16.23 22.9C16.15 23.01 16.12 23.13 16.15 23.27C16.17 23.41 16.25 23.54 16.38 23.68L15.78 24.49C15.41 24.17 15.21 23.8101 15.17 23.4101C15.13 23.0101 15.23 22.64 15.49 22.3C15.76 21.93 16.07 21.71 16.41 21.65C16.75 21.59 17.09 21.6801 17.44 21.9401L17.57 22.03C17.76 22.17 17.9 22.35 17.97 22.55C18.04 22.76 18.05 22.97 17.98 23.21C18.18 23.04 18.4 22.9601 18.65 22.9801C18.9 22.9901 19.15 23.09 19.41 23.28L19.54 23.37C19.91 23.64 20.11 23.96 20.16 24.33C20.2 24.7 20.08 25.0701 19.79 25.4701L19.76 25.4501Z" fill="white"/>
<path d="M22.22 22.59C21.92 22.89 21.58 23.04 21.18 23.05C20.79 23.05 20.4 22.9 20.03 22.57L20.73 21.87C20.88 21.99 21.03 22.06 21.17 22.06C21.32 22.06 21.44 22.01 21.55 21.9C21.67 21.78 21.73 21.64 21.71 21.5C21.69 21.36 21.62 21.21 21.47 21.06L21.16 20.75C21.01 20.6 20.87 20.52 20.73 20.5C20.59 20.48 20.47 20.53 20.36 20.64C20.26 20.74 20.2 20.85 20.18 20.97C20.16 21.09 20.18 21.21 20.25 21.33L19.6 21.98L17.47 19.86L19.45 17.87L20.12 18.54L18.83 19.83L19.48 20.48C19.48 20.37 19.51 20.26 19.58 20.14C19.64 20.02 19.72 19.92 19.8 19.83C20.09 19.54 20.41 19.41 20.77 19.45C21.13 19.49 21.48 19.69 21.84 20.05L22.15 20.36C22.51 20.72 22.7 21.09 22.7 21.48C22.7 21.87 22.54 22.23 22.19 22.58L22.22 22.59Z" fill="white"/>
<path d="M22.33 14.77L24.7 21.59L23.96 22.17L21.59 15.35L22.33 14.77Z" fill="white"/>
<path d="M29.23 17.48L27.33 12.61L28.25 12.25L30.15 17.12L29.23 17.48ZM28.83 15.38L28.49 14.5L30.18 13.84C30.32 13.78 30.42 13.69 30.46 13.55C30.5 13.41 30.49 13.26 30.43 13.08C30.36 12.91 30.27 12.79 30.14 12.72C30.01 12.65 29.88 12.64 29.73 12.7L28.04 13.36L27.7 12.48L29.47 11.79C29.74 11.68 30 11.65 30.25 11.69C30.5 11.73 30.72 11.84 30.92 12.02C31.12 12.2 31.27 12.43 31.39 12.72C31.51 13.01 31.55 13.29 31.52 13.55C31.49 13.81 31.4 14.04 31.25 14.24C31.1 14.44 30.88 14.59 30.61 14.7L28.84 15.39L28.83 15.38ZM31.8 16.48L29.79 14.83L30.71 14.29L32.91 16.04L31.8 16.47V16.48Z" fill="white"/>
<path d="M33.66 10.54L34.87 15.62L33.91 15.85L32.96 11.89L32.4 12.27L32.16 11.25L32.84 10.73L33.66 10.53V10.54Z" fill="white"/>
<path d="M37.97 9.90002L38.05 10.55L37.43 15.23L36.37 15.36L36.99 10.98L36.1 11.09L36.19 11.87L35.21 11.99L35 10.27L37.97 9.92004V9.90002Z" fill="white"/>
<path d="M54.16 7.71997H46.99C45.67 7.71997 44.6 8.78999 44.6 10.11V16.09C44.6 17.4099 45.67 18.48 46.99 18.48H54.16C55.48 18.48 56.55 17.4099 56.55 16.09V10.11C56.55 8.78999 55.48 7.71997 54.16 7.71997Z" fill="white"/>
<path d="M47.21 16.3799L48.62 13.1499L48.84 13.3099C48.76 13.4499 48.65 13.5499 48.5 13.6099C48.35 13.6699 48.17 13.7 47.97 13.7C47.48 13.7 47.08 13.5299 46.77 13.1799C46.47 12.8299 46.32 12.3699 46.32 11.7999C46.32 11.1599 46.49 10.6699 46.82 10.3299C47.15 9.97993 47.62 9.80994 48.23 9.80994C48.84 9.80994 49.3 9.98994 49.63 10.3399C49.96 10.6899 50.13 11.1899 50.13 11.8299C50.13 12.0999 50.09 12.3799 50 12.6899C49.91 12.9899 49.8 13.2999 49.68 13.5999L48.52 16.39H47.22L47.21 16.3799ZM48.23 12.5699C48.44 12.5699 48.61 12.4999 48.73 12.3599C48.85 12.2199 48.91 12.0299 48.91 11.7699C48.91 11.5199 48.85 11.33 48.73 11.2C48.61 11.07 48.45 10.9999 48.23 10.9999C48.01 10.9999 47.84 11.07 47.73 11.2C47.62 11.33 47.55 11.5199 47.55 11.7699C47.55 12.0299 47.61 12.2199 47.73 12.3599C47.85 12.4999 48.02 12.5699 48.23 12.5699Z" fill="#EAAD48"/>
<path d="M51.91 16.3799L53.32 13.1499L53.54 13.3099C53.46 13.4499 53.35 13.5499 53.2 13.6099C53.05 13.6699 52.87 13.7 52.67 13.7C52.18 13.7 51.78 13.5299 51.47 13.1799C51.17 12.8299 51.02 12.3699 51.02 11.7999C51.02 11.1599 51.19 10.6699 51.52 10.3299C51.85 9.97993 52.32 9.80994 52.93 9.80994C53.54 9.80994 54 9.98994 54.33 10.3399C54.66 10.6899 54.83 11.1899 54.83 11.8299C54.83 12.0999 54.79 12.3799 54.7 12.6899C54.61 12.9899 54.5 13.2999 54.38 13.5999L53.22 16.39H51.92L51.91 16.3799ZM52.93 12.5699C53.14 12.5699 53.31 12.4999 53.43 12.3599C53.55 12.2199 53.61 12.0299 53.61 11.7699C53.61 11.5199 53.55 11.33 53.43 11.2C53.31 11.07 53.15 10.9999 52.93 10.9999C52.71 10.9999 52.54 11.07 52.43 11.2C52.32 11.33 52.25 11.5199 52.25 11.7699C52.25 12.0299 52.31 12.2199 52.43 12.3599C52.55 12.4999 52.72 12.5699 52.93 12.5699Z" fill="#EAAD48"/>
</svg>
