<svg width="82" height="74" viewBox="0 0 82 74" fill="none" xmlns="http://www.w3.org/2000/svg">
<path d="M37.24 55.35C22.67 55.35 9.49 51.26 3.53 44.85C1.48 42.64 0.350002 40.25 0.190002 37.75V37.5901L0.210002 37.44C2.41 26.85 18.37 18.85 38.17 18.41H38.22H38.23C38.25 18.41 38.28 18.41 38.3 18.41H38.38C59.07 18.41 75.33 26.3601 75.43 36.5301C75.45 38.6501 74.77 40.72 73.41 42.69C68.3 50.12 54.05 55.21 37.96 55.35C37.72 55.35 37.47 55.35 37.23 55.35H37.24ZM5.23 43.2701C10.87 49.33 23.72 53.1701 37.95 53.0301C53.32 52.8901 66.81 48.21 71.52 41.37C72.6 39.8 73.14 38.18 73.13 36.55C73.05 27.8 57.41 20.72 38.3 20.73H38.26C38.26 20.73 38.22 20.73 38.2 20.73C19.89 21.15 4.6 28.45 2.52 37.76C2.69 39.66 3.6 41.5101 5.24 43.2801L5.23 43.2701Z" fill="#EAAD48"/>
<path d="M39.07 73.61C17.43 73.61 0.420002 64.22 0.310002 52.17L0.190002 37.68L2.51 37.66L2.63 52.14C2.73 62.72 19.06 71.29 39.08 71.29C39.15 71.29 39.22 71.29 39.3 71.29C59.93 71.23 75.89 62.48 76.4 50.95L76.42 39.26C76.41 37.69 76 36.14 75.24 34.65C75.37 35.26 75.44 35.89 75.44 36.52C75.46 38.64 74.78 40.71 73.42 42.68C68.31 50.11 54.06 55.2 37.97 55.34C23.1 55.47 9.59 51.36 3.53 44.84L5.23 43.26C10.87 49.32 23.72 53.16 37.95 53.02C53.32 52.88 66.81 48.2 71.52 41.36C72.6 39.79 73.14 38.17 73.13 36.54C73.05 27.79 57.41 20.71 38.3 20.72L38.28 18.4H39.15C49.56 18.28 59.36 20.33 66.78 24.14C74.44 28.07 78.68 33.44 78.74 39.25L78.72 51.01C78.14 64.06 61.56 73.54 39.31 73.61C39.23 73.61 39.16 73.61 39.08 73.61H39.07Z" fill="#EAAD48"/>
<path d="M37.33 48.62C25.07 48.62 15.59 44.16 15.28 38C14.95 31.41 25.25 25.73 38.73 25.06C45.01 24.75 50.98 25.6 55.55 27.44C60.41 29.41 63.18 32.31 63.34 35.61C63.5 38.92 61.04 42.08 56.39 44.52C52.02 46.81 46.16 48.24 39.89 48.56C39.02 48.6 38.17 48.62 37.33 48.62ZM41.27 27.31C40.47 27.31 39.66 27.33 38.84 27.37C27.07 27.95 17.34 32.77 17.59 37.88C17.84 42.99 28 46.82 39.77 46.24C45.72 45.95 51.23 44.61 55.31 42.47C59.05 40.51 61.13 38.05 61.02 35.73C60.91 33.41 58.59 31.17 54.67 29.59C50.99 28.1 46.3 27.31 41.26 27.31H41.27Z" fill="#EAAD48"/>
<path d="M22.78 45.2L21.67 43.86C21.93 43.64 28.27 38.48 39.15 38.77C48.88 39.03 55.44 42.88 55.71 43.05L54.82 44.54C54.76 44.5 48.36 40.75 39.1 40.51C28.91 40.25 22.84 45.15 22.78 45.2Z" fill="#EAAD48"/>
<path d="M44.35 64.25C43.58 64.25 42.8 64.23 42.01 64.2C17.32 63.12 4.64001 58.35 0.900009 48.75L1.98001 48.33C5.48001 57.32 18.22 61.99 42.06 63.04C65.39 64.07 76.99 49.19 77.1 49.04L78.02 49.74C77.91 49.89 66.75 64.25 44.35 64.25Z" fill="#EAAD48"/>
<path d="M76.29 49.17C76.29 49.17 76.2 49.17 76.15 49.15C75.57 49 74.84 48.85 74.63 48.84C74.46 48.87 74.28 48.82 74.15 48.71C73.82 48.43 73.77 48.38 74.76 45.24C74.86 44.93 75.18 44.77 75.49 44.86C75.79 44.96 75.96 45.28 75.87 45.59C75.63 46.35 75.37 47.21 75.22 47.75C75.51 47.8 75.9 47.89 76.44 48.02C76.75 48.1 76.94 48.41 76.86 48.72C76.79 48.98 76.56 49.16 76.3 49.16L76.29 49.17Z" fill="#EAAD48"/>
<path d="M74.38 51.02C74.38 51.02 74.35 51.02 74.34 51.02L71.85 50.86C71.68 50.85 71.52 50.76 71.42 50.63C71.32 50.49 71.28 50.32 71.32 50.15C71.89 47.71 72 47.55 72.06 47.46C72.24 47.19 72.6 47.13 72.86 47.3C73.11 47.47 73.18 47.79 73.05 48.05C72.99 48.22 72.79 48.96 72.61 49.74L74.41 49.86C74.73 49.88 74.97 50.16 74.95 50.48C74.93 50.79 74.68 51.02 74.37 51.02H74.38Z" fill="#EAAD48"/>
<path d="M71.46 53.65C71.46 53.65 71.39 53.65 71.35 53.64L67.89 52.9699C67.7 52.9299 67.54 52.81 67.47 52.63C67.39 52.45 67.41 52.25 67.52 52.09L69.44 49.1C69.61 48.83 69.97 48.75 70.24 48.93C70.51 49.1 70.59 49.46 70.41 49.73L68.95 52L71.57 52.51C71.88 52.57 72.09 52.87 72.03 53.19C71.98 53.47 71.73 53.6599 71.46 53.6599V53.65Z" fill="#EAAD48"/>
<path d="M67.62 55.67C67.55 55.67 67.47 55.66 67.4 55.63L63.98 54.22C63.82 54.15 63.69 54.01 63.64 53.84C63.59 53.67 63.63 53.48 63.73 53.34L65.73 50.6C65.92 50.34 66.28 50.29 66.54 50.47C66.8 50.66 66.85 51.02 66.67 51.28L65.1 53.42L67.83 54.54C68.13 54.66 68.27 55 68.15 55.3C68.06 55.52 67.84 55.66 67.61 55.66L67.62 55.67Z" fill="#EAAD48"/>
<path d="M64.03 57.07C64.03 57.07 63.94 57.07 63.89 57.05L60.29 56.18C60.11 56.14 59.96 56.01 59.89 55.83C59.82 55.65 59.84 55.46 59.94 55.3L61.97 52.17C62.14 51.9 62.5 51.82 62.77 52C63.04 52.17 63.11 52.53 62.94 52.8L61.35 55.24L64.16 55.92C64.47 56 64.66 56.31 64.59 56.62C64.53 56.88 64.29 57.06 64.03 57.06V57.07Z" fill="#EAAD48"/>
<path d="M60.29 58.36C60.22 58.36 60.15 58.35 60.08 58.32L56.22 56.85C56.04 56.78 55.91 56.63 55.87 56.45C55.82 56.27 55.87 56.07 55.99 55.93L58.4 53.11C58.61 52.87 58.97 52.84 59.22 53.05C59.46 53.26 59.49 53.62 59.28 53.87L57.41 56.07L60.5 57.25C60.8 57.36 60.95 57.7 60.83 58C60.74 58.23 60.52 58.37 60.29 58.37V58.36Z" fill="#EAAD48"/>
<path d="M55.98 60.01C55.89 60.01 55.81 59.99 55.73 59.95L51.18 57.73C51 57.64 50.88 57.47 50.86 57.27C50.84 57.07 50.92 56.88 51.07 56.75L53.47 54.81C53.72 54.61 54.08 54.65 54.28 54.9C54.48 55.15 54.44 55.51 54.19 55.71L52.5 57.08L56.23 58.9C56.52 59.04 56.64 59.39 56.5 59.67C56.4 59.88 56.19 60 55.98 60V60.01Z" fill="#EAAD48"/>
<path d="M51.22 61.13C51.13 61.13 51.03 61.11 50.94 61.06L46.31 58.54C46.14 58.45 46.03 58.28 46.01 58.09C45.99 57.9 46.06 57.71 46.21 57.59L48.77 55.4C49.01 55.19 49.38 55.22 49.59 55.46C49.8 55.7 49.77 56.07 49.53 56.28L47.61 57.93L51.5 60.05C51.78 60.2 51.88 60.55 51.73 60.84C51.63 61.03 51.43 61.14 51.22 61.14V61.13Z" fill="#EAAD48"/>
<path d="M45.74 61.77C45.64 61.77 45.54 61.74 45.45 61.69L40.78 58.97C40.61 58.87 40.5 58.69 40.49 58.49C40.49 58.29 40.58 58.1 40.75 57.99L43.49 56.15C43.76 55.97 44.11 56.04 44.29 56.31C44.47 56.58 44.4 56.94 44.13 57.11L42.16 58.43L46.03 60.69C46.31 60.85 46.4 61.21 46.24 61.48C46.13 61.66 45.94 61.77 45.74 61.77Z" fill="#EAAD48"/>
<path d="M41.12 62.16C41.02 62.16 40.92 62.14 40.83 62.08L35.64 59.13C35.46 59.03 35.35 58.85 35.35 58.65C35.35 58.45 35.44 58.26 35.61 58.15L38.68 56.13C38.95 55.95 39.31 56.03 39.48 56.29C39.66 56.56 39.58 56.92 39.32 57.09L37.04 58.59L41.41 61.08C41.69 61.24 41.79 61.59 41.63 61.87C41.52 62.06 41.33 62.16 41.13 62.16H41.12Z" fill="#EAAD48"/>
<path d="M34.33 61.72C34.22 61.72 34.11 61.69 34.01 61.62L29.93 58.94C29.76 58.83 29.67 58.64 29.67 58.45C29.67 58.25 29.78 58.07 29.95 57.97L32.83 56.23C33.1 56.07 33.46 56.15 33.63 56.43C33.8 56.7 33.71 57.06 33.43 57.23L31.34 58.5L34.65 60.68C34.92 60.86 34.99 61.22 34.82 61.48C34.71 61.65 34.52 61.74 34.34 61.74L34.33 61.72Z" fill="#EAAD48"/>
<path d="M28.57 61.24C28.43 61.24 28.29 61.19 28.18 61.09L24.7 57.86C24.55 57.72 24.49 57.52 24.53 57.32C24.57 57.12 24.71 56.96 24.9 56.89L27.84 55.8C28.14 55.69 28.47 55.84 28.59 56.14C28.71 56.44 28.55 56.77 28.25 56.89L26.19 57.66L28.98 60.25C29.21 60.47 29.23 60.83 29.01 61.07C28.9 61.19 28.74 61.26 28.59 61.26L28.57 61.24Z" fill="#EAAD48"/>
<path d="M23.55 60.33C23.4 60.33 23.25 60.27 23.14 60.16L19.61 56.65C19.46 56.5 19.41 56.29 19.46 56.09C19.51 55.89 19.67 55.73 19.86 55.68L22.38 54.97C22.69 54.88 23.01 55.06 23.09 55.37C23.18 55.68 23 56 22.69 56.08L21.13 56.52L23.95 59.33C24.18 59.56 24.18 59.92 23.95 60.15C23.84 60.26 23.69 60.32 23.54 60.32L23.55 60.33Z" fill="#EAAD48"/>
<path d="M17.87 58.85C17.7 58.85 17.54 58.78 17.42 58.64L14.78 55.44C14.66 55.29 14.62 55.09 14.67 54.91C14.72 54.73 14.86 54.58 15.05 54.52L17.45 53.74C17.76 53.64 18.08 53.81 18.18 54.11C18.28 54.41 18.11 54.74 17.81 54.84L16.22 55.36L18.32 57.9C18.52 58.15 18.49 58.51 18.24 58.72C18.13 58.81 18 58.85 17.87 58.85Z" fill="#EAAD48"/>
<path d="M13.02 57.44C12.82 57.44 12.63 57.34 12.52 57.15L10.47 53.66C10.37 53.49 10.36 53.29 10.45 53.12C10.53 52.95 10.7 52.83 10.89 52.8L13.28 52.45C13.6 52.4 13.89 52.62 13.94 52.94C13.99 53.26 13.77 53.55 13.45 53.6L11.91 53.83L13.52 56.57C13.68 56.85 13.59 57.2 13.31 57.36C13.22 57.41 13.12 57.44 13.02 57.44Z" fill="#EAAD48"/>
<path d="M8.51 54.67C8.32 54.67 8.13 54.58 8.02 54.4L6.18 51.51C6.07 51.34 6.06 51.12 6.15 50.94C6.24 50.76 6.42 50.64 6.62 50.62L8.6 50.46C8.92 50.44 9.2 50.67 9.22 50.99C9.25 51.31 9.01 51.59 8.69 51.61L7.66 51.69L8.98 53.77C9.15 54.04 9.07 54.4 8.8 54.57C8.7 54.63 8.6 54.66 8.49 54.66L8.51 54.67Z" fill="#EAAD48"/>
<path d="M11.92 66.15C11.73 66.15 11.54 66.06 11.43 65.88L9.28001 62.53C9.11001 62.26 9.18001 61.9 9.45001 61.73C9.72001 61.56 10.08 61.63 10.25 61.9L12.4 65.25C12.57 65.52 12.5 65.88 12.23 66.05C12.13 66.11 12.02 66.14 11.92 66.14V66.15Z" fill="#EAAD48"/>
<path d="M15.74 67.73C15.49 67.73 15.26 67.57 15.19 67.32C15.1 67.01 15.27 66.69 15.57 66.6L16.52 66.31L14.26 64.47C14.01 64.27 13.97 63.9 14.18 63.66C14.38 63.41 14.75 63.37 14.99 63.58L18.09 66.1C18.26 66.23 18.33 66.45 18.29 66.66C18.25 66.87 18.1 67.04 17.89 67.1L15.9 67.71C15.84 67.73 15.79 67.74 15.73 67.74L15.74 67.73Z" fill="#EAAD48"/>
<path d="M22.46 70.44C22.26 70.44 22.07 70.34 21.97 70.16C21.8 69.89 21.89 69.53 22.16 69.36L23.78 68.37L20.06 66.01C19.79 65.84 19.71 65.48 19.88 65.21C20.05 64.94 20.41 64.86 20.68 65.03L25.19 67.89C25.36 68 25.46 68.18 25.46 68.38C25.46 68.58 25.35 68.77 25.18 68.87L22.76 70.34C22.67 70.4 22.56 70.42 22.46 70.42V70.44Z" fill="#EAAD48"/>
<path d="M27.87 71.48C27.77 71.48 27.67 71.45 27.58 71.4C27.3 71.24 27.21 70.88 27.37 70.61C27.44 70.49 27.58 70.25 29.71 68.99L26.7 67.03C26.43 66.86 26.36 66.5 26.53 66.23C26.7 65.96 27.06 65.89 27.33 66.06L31.12 68.53C31.29 68.64 31.39 68.83 31.38 69.03C31.38 69.23 31.27 69.42 31.09 69.52C29.93 70.19 28.57 71.03 28.33 71.25C28.22 71.4 28.04 71.48 27.87 71.48Z" fill="#EAAD48"/>
<path d="M33.86 72.11C33.71 72.11 33.56 72.05 33.45 71.94C33.22 71.71 33.22 71.35 33.45 71.12L34.83 69.75L31.9 67.65C31.64 67.46 31.58 67.1 31.77 66.84C31.96 66.58 32.32 66.52 32.58 66.71L36.06 69.21C36.2 69.31 36.29 69.46 36.3 69.63C36.31 69.8 36.25 69.97 36.13 70.09L34.27 71.95C34.16 72.06 34.01 72.12 33.86 72.12V72.11Z" fill="#EAAD48"/>
<path d="M38.62 71.88C38.44 71.88 38.27 71.8 38.15 71.64C37.96 71.38 38.01 71.02 38.27 70.83L39.55 69.88L36.47 67.96C36.2 67.79 36.12 67.43 36.29 67.16C36.46 66.89 36.82 66.81 37.09 66.98L40.89 69.35C41.05 69.45 41.15 69.63 41.16 69.82C41.16 70.01 41.08 70.19 40.93 70.31L38.96 71.76C38.86 71.84 38.74 71.87 38.62 71.87V71.88Z" fill="#EAAD48"/>
<path d="M43.24 72.18C43.09 72.18 42.94 72.12 42.83 72.01C42.61 71.78 42.61 71.42 42.83 71.19L44.62 69.43L41.72 68.04C41.43 67.9 41.31 67.56 41.45 67.27C41.59 66.98 41.93 66.86 42.22 67L45.86 68.74C46.03 68.82 46.15 68.98 46.18 69.17C46.21 69.36 46.15 69.55 46.02 69.68L43.65 72.02C43.54 72.13 43.39 72.19 43.24 72.19V72.18Z" fill="#EAAD48"/>
<path d="M48.76 71.59C48.66 71.59 48.57 71.57 48.48 71.51C48.2 71.35 48.1 71 48.26 70.72L49.55 68.45L46.52 67.78C46.21 67.71 46.01 67.4 46.08 67.09C46.15 66.78 46.46 66.58 46.77 66.65L50.57 67.49C50.75 67.53 50.9 67.65 50.97 67.82C51.04 67.99 51.04 68.18 50.94 68.34L49.27 71.29C49.16 71.48 48.97 71.58 48.77 71.58L48.76 71.59Z" fill="#EAAD48"/>
<path d="M53.95 70.87C53.88 70.87 53.8 70.86 53.73 70.82C53.44 70.7 53.3 70.36 53.42 70.06L54.37 67.8L51.5 67.22C51.19 67.16 50.98 66.85 51.05 66.54C51.11 66.23 51.42 66.02 51.73 66.09L55.29 66.81C55.46 66.84 55.61 66.95 55.69 67.11C55.77 67.26 55.78 67.45 55.71 67.61L54.49 70.52C54.4 70.74 54.18 70.87 53.96 70.87H53.95Z" fill="#EAAD48"/>
<path d="M58.34 69.45C58.25 69.45 58.16 69.43 58.07 69.39C57.79 69.24 57.67 68.89 57.82 68.61L58.91 66.5L56.23 65.65C55.92 65.55 55.76 65.23 55.85 64.92C55.95 64.61 56.27 64.45 56.58 64.54L59.92 65.6C60.08 65.65 60.21 65.77 60.28 65.93C60.35 66.09 60.34 66.27 60.26 66.42L58.85 69.14C58.75 69.34 58.54 69.45 58.33 69.45H58.34Z" fill="#EAAD48"/>
<path d="M63.65 67.52C63.65 67.52 63.62 67.52 63.61 67.52C63.29 67.5 63.05 67.22 63.07 66.9L63.13 65.95L60.64 65.02C60.34 64.91 60.19 64.57 60.3 64.28C60.41 63.98 60.74 63.83 61.04 63.94L63.93 65.02C64.17 65.11 64.32 65.34 64.31 65.6L64.22 66.98C64.2 67.29 63.95 67.52 63.64 67.52H63.65Z" fill="#EAAD48"/>
<path d="M66.97 65.85C66.97 65.85 66.91 65.85 66.88 65.85C66.56 65.8 66.35 65.5 66.4 65.19L66.63 63.78L64.08 63.41C63.76 63.36 63.54 63.07 63.59 62.75C63.64 62.43 63.93 62.21 64.25 62.26L67.38 62.71C67.53 62.73 67.67 62.82 67.76 62.94C67.85 63.07 67.89 63.22 67.86 63.38L67.53 65.38C67.48 65.66 67.24 65.87 66.96 65.87L66.97 65.85Z" fill="#EAAD48"/>
<path d="M69.75 64.01C69.59 64.01 69.43 63.94 69.31 63.81C69.11 63.58 69.12 63.25 69.32 63.03C69.4 62.92 69.67 62.5 69.98 62L67.6 61.44C67.29 61.37 67.1 61.05 67.17 60.74C67.24 60.43 67.56 60.24 67.87 60.31L71.03 61.06C71.21 61.1 71.36 61.23 71.43 61.4C71.5 61.57 71.49 61.77 71.39 61.93C70.29 63.72 70.2 63.8 70.12 63.87C70.01 63.97 69.87 64.01 69.74 64.01H69.75Z" fill="#EAAD48"/>
<path d="M72.97 61.79C72.68 61.79 72.43 61.57 72.4 61.28C72.34 60.79 72.64 59.99 72.93 59.37L71.31 59.27C70.99 59.25 70.75 58.97 70.77 58.65C70.79 58.33 71.07 58.09 71.39 58.11L73.88 58.27C74.08 58.28 74.25 58.4 74.35 58.57C74.45 58.74 74.45 58.95 74.35 59.13C73.9 59.96 73.53 60.9 73.56 61.15C73.59 61.47 73.37 61.75 73.05 61.79C73.03 61.79 73.01 61.79 72.98 61.79H72.97Z" fill="#EAAD48"/>
<path d="M67.42 26.32C74.3898 26.32 80.04 20.6698 80.04 13.7C80.04 6.73015 74.3898 1.07996 67.42 1.07996C60.4502 1.07996 54.8 6.73015 54.8 13.7C54.8 20.6698 60.4502 26.32 67.42 26.32Z" fill="#EAAD48" stroke="white" stroke-width="2" stroke-miterlimit="10"/>
<path d="M59.5 12.5299H67.42V14.89H59.5V12.5299ZM64.69 9.93994V17.4899H62.24V9.93994H64.69Z" fill="white"/>
<path d="M73.29 6.42993V19.95H70.74V9.42993L69.09 10.0499V7.33994L71.11 6.42993H73.28H73.29Z" fill="white"/>
</svg>
