<svg width="48" height="81" viewBox="0 0 48 81" fill="none" xmlns="http://www.w3.org/2000/svg">
<path fill-rule="evenodd" clip-rule="evenodd" d="M36.65 0.77002H31.35V13.08H27.91L34 21.37L40.09 13.08H36.65V0.77002Z" fill="#EAAD48"/>
<path fill-rule="evenodd" clip-rule="evenodd" d="M16.84 0.299988H11.54V12.61H8.10001L14.19 20.9L20.28 12.61H16.84V0.299988Z" fill="#EAAD48"/>
<path fill-rule="evenodd" clip-rule="evenodd" d="M28.86 20.9H19.66V22.55L24.14 26.8L28.86 22.08V20.9ZM15.42 29.16C18.25 30.1 22.42 33.8 24.15 35.53C25.88 33.8 30.28 29.87 33.11 28.93V23.74L31.93 23.27C29.81 24.45 25.09 27.47 24.15 29.17C23.97 28.84 23.65 28.47 23.25 28.08C21.65 26.41 18.16 24.27 16.37 23.27L15.19 23.74V28.93C15.27 28.96 15.35 28.98 15.43 29.01V29.16H15.42ZM16.6 32.46C18.72 33.64 23.2 36.42 24.15 38.12C25.09 36.42 29.58 33.64 31.7 32.46L32.88 32.93V38.12C30.05 39.06 25.88 42.76 24.15 44.49C22.42 42.76 18.25 39.06 15.42 38.12V32.93L16.6 32.46ZM15.42 47.08C18.25 48.02 22.42 51.72 24.15 53.45C25.88 51.72 30.05 48.02 32.88 47.08V41.89L31.7 41.42C29.58 42.6 25.1 45.38 24.15 47.08C23.21 45.38 18.72 42.6 16.6 41.42L15.42 41.89V47.08ZM16.6 50.38C18.72 51.56 23.2 54.34 24.15 56.04C25.09 54.34 29.58 51.56 31.7 50.38L32.88 50.85V56.04C30.05 56.98 25.88 60.68 24.15 62.41C22.42 60.68 18.25 56.98 15.42 56.04V50.85L16.6 50.38ZM15.42 65C18.25 65.94 22.42 69.64 24.15 71.37C25.88 69.64 30.05 65.94 32.88 65V59.81L31.7 59.34C29.58 60.52 25.1 63.3 24.15 65C23.21 63.3 18.72 60.52 16.6 59.34L15.42 59.81V65ZM16.6 68.3C18.72 69.48 23.2 72.26 24.15 73.96C25.09 72.26 29.58 69.48 31.7 68.3L32.88 68.77V73.96C30.05 74.9 25.88 78.6 24.15 80.33C22.42 78.6 18.25 74.9 15.42 73.96V68.77L16.6 68.3ZM13.06 22.54V27.97C10.07 27.66 3.58 27.4 1.5 28.91C-1.09 30.8 2.21 25.37 4.57 23.48C6.93 21.59 11.17 20.89 13.06 22.54ZM0.0900021 31.97V37.4C0.250002 37.87 0.840001 38.63 1.98 37.87C3.4 36.93 10.94 37.16 11.89 37.4C12.64 37.59 12.99 36.69 13.07 36.22V31.27C10.71 30.33 4.81 29.15 0.100002 31.98L0.0900021 31.97ZM0.0900021 46.01V40.58C4.81 37.75 10.7 38.93 13.06 39.87V44.82C12.98 45.29 12.64 46.19 11.88 46C10.94 45.76 3.39 45.53 1.97 46.47C0.840001 47.22 0.240002 46.47 0.0800018 46L0.0900021 46.01ZM0.0900021 50.02V55.44C0.250002 55.91 0.840001 56.67 1.98 55.91C3.4 54.97 10.94 55.2 11.89 55.44C12.64 55.63 12.99 54.73 13.07 54.26V49.31C10.71 48.37 4.81 47.19 0.100002 50.02H0.0900021ZM0.0900021 64.88V59.45C4.81 56.62 10.7 57.8 13.06 58.74V63.69C12.98 64.16 12.64 65.06 11.88 64.87C10.94 64.63 3.39 64.4 1.97 65.34C0.840001 66.09 0.240002 65.34 0.0800018 64.87L0.0900021 64.88ZM0.0900021 68.89V74.32C0.250002 74.79 0.840001 75.55 1.98 74.79C3.4 73.85 10.94 74.08 11.89 74.32C12.64 74.51 12.99 73.61 13.07 73.14V68.19C10.71 67.25 4.81 66.07 0.100002 68.9L0.0900021 68.89ZM35 27.71V22.28C36.89 20.63 41.13 21.34 43.49 23.22C45.85 25.1 49.15 30.53 46.56 28.65C44.48 27.14 37.99 27.39 35 27.71ZM47.97 37.14V31.71C43.25 28.88 37.36 30.06 35 31V35.95C35.08 36.42 35.42 37.32 36.18 37.13C37.12 36.89 44.67 36.66 46.09 37.6C47.22 38.35 47.82 37.6 47.98 37.13L47.97 37.14ZM47.97 40.33V45.76C47.81 46.23 47.22 46.99 46.08 46.23C44.66 45.29 37.12 45.52 36.17 45.76C35.42 45.95 35.07 45.05 34.99 44.58V39.63C37.35 38.69 43.25 37.51 47.96 40.34L47.97 40.33ZM47.97 55.19V49.77C43.25 46.94 37.36 48.12 35 49.06V54.01C35.08 54.48 35.42 55.38 36.18 55.19C37.12 54.95 44.67 54.72 46.09 55.66C47.22 56.41 47.82 55.66 47.98 55.19H47.97ZM47.97 59.2V64.63C47.81 65.1 47.22 65.86 46.08 65.1C44.66 64.16 37.12 64.39 36.17 64.63C35.42 64.82 35.07 63.92 34.99 63.45V58.5C37.35 57.56 43.25 56.38 47.96 59.21L47.97 59.2ZM47.97 74.06V68.63C43.25 65.8 37.36 66.98 35 67.92V72.87C35.08 73.34 35.42 74.24 36.18 74.05C37.12 73.81 44.67 73.58 46.09 74.52C47.22 75.27 47.82 74.52 47.98 74.05L47.97 74.06Z" fill="#EAAD48"/>
</svg>
