<svg width="58" height="75" viewBox="0 0 58 75" fill="none" xmlns="http://www.w3.org/2000/svg">
<path fill-rule="evenodd" clip-rule="evenodd" d="M10.68 0.530014C5.35999 0.850014 1.06002 4.93003 0.400024 10.14C1.42002 9.01003 2.88998 7.82001 4.78998 7.28001L5.16998 8.61002C2.62998 9.33002 0.919998 11.5 0.309998 12.61V17.68C1.33 16.52 2.83998 15.28 4.78998 14.72L5.16998 16.05C2.62998 16.77 0.919998 18.94 0.309998 20.05V25.12C1.33 23.96 2.83998 22.72 4.78998 22.16L5.16998 23.49C2.62998 24.21 0.919998 26.38 0.309998 27.49V32.56C1.33 31.4 2.83998 30.16 4.78998 29.6L5.16998 30.93C2.62998 31.65 0.919998 33.82 0.309998 34.93V40C1.33 38.84 2.83998 37.6 4.78998 37.04L5.16998 38.37C2.62998 39.09 0.919998 41.26 0.309998 42.37V47.44C1.33 46.28 2.83998 45.04 4.78998 44.48L5.16998 45.81C2.62998 46.53 0.919998 48.7 0.309998 49.81V54.88C1.33 53.72 2.83998 52.48 4.78998 51.92L5.16998 53.25C2.62998 53.98 0.919998 56.14 0.309998 57.25V62.32C1.33 61.16 2.83998 59.92 4.78998 59.36L5.16998 60.69C2.62998 61.42 0.919998 63.58 0.309998 64.69V69.76C1.33 68.6 2.83998 67.36 4.78998 66.8L5.16998 68.13C2.62998 68.86 0.919998 71.02 0.309998 72.13V74.9H10.68V0.580017V0.530014ZM11.72 74.85V0.51001H20.36V7.94002C19.48 7.58002 18.51 7.28002 17.46 7.07002L16.91 8.40001C18.22 8.66001 19.38 9.09002 20.37 9.60002V15.37C19.49 15.01 18.52 14.71 17.47 14.5L16.92 15.83C18.23 16.09 19.39 16.52 20.38 17.03V22.8C19.5 22.44 18.53 22.14 17.48 21.93L16.93 23.26C18.24 23.52 19.4 23.95 20.39 24.46V30.23C19.51 29.87 18.54 29.57 17.49 29.36L16.94 30.69C18.25 30.95 19.41 31.38 20.4 31.89V37.66C19.52 37.3 18.55 37 17.5 36.79L16.95 38.12C18.26 38.38 19.42 38.81 20.41 39.32V45.09C19.53 44.73 18.56 44.43 17.51 44.22L16.96 45.55C18.27 45.81 19.43 46.24 20.42 46.75V52.52C19.54 52.16 18.57 51.86 17.52 51.65L16.97 52.98C18.28 53.24 19.44 53.67 20.43 54.18V59.95C19.55 59.59 18.58 59.29 17.53 59.08L16.98 60.41C18.29 60.67 19.45 61.1 20.44 61.61V67.38C19.56 67.02 18.59 66.72 17.54 66.51L16.99 67.84C18.3 68.1 19.46 68.53 20.45 69.04V74.81H11.81L11.72 74.85ZM22.09 74.85H27.28V0.51001H22.09V8.78001C24.05 9.88001 25.34 11.17 25.89 11.93L24.09 12.55C23.75 12.09 23.07 11.38 22.09 10.67V16.22C24.05 17.32 25.34 18.61 25.89 19.37L24.09 19.99C23.75 19.53 23.07 18.82 22.09 18.11V23.66C24.05 24.76 25.34 26.05 25.89 26.81L24.09 27.43C23.75 26.97 23.07 26.26 22.09 25.55V31.1C24.05 32.2 25.34 33.49 25.89 34.25L24.09 34.87C23.75 34.41 23.07 33.7 22.09 32.99V38.54C24.05 39.64 25.34 40.93 25.89 41.69L24.09 42.31C23.75 41.85 23.07 41.14 22.09 40.43V45.98C24.05 47.08 25.34 48.37 25.89 49.13L24.09 49.75C23.75 49.29 23.07 48.58 22.09 47.87V53.42C24.05 54.52 25.34 55.81 25.89 56.57L24.09 57.19C23.75 56.73 23.07 56.02 22.09 55.31V60.86C24.05 61.96 25.34 63.25 25.89 64.01L24.09 64.63C23.75 64.17 23.07 63.46 22.09 62.75V68.3C24.05 69.4 25.34 70.69 25.89 71.45L24.09 72.07C23.75 71.61 23.07 70.9 22.09 70.19V74.9V74.85Z" fill="#EAAD48"/>
<path fill-rule="evenodd" clip-rule="evenodd" d="M49.87 1.20999C48.66 0.749991 47.35 0.509979 45.98 0.509979H37.87L36.1 6.20999L38.12 7.24998L38.28 7.30998L36.31 13.65L38.48 14.76L38.33 15.08L36.36 21.42L38.38 22.46L38.54 22.52L36.57 28.86L38.74 29.97L38.14 31.3L38.05 31.25L36.51 36.22L38.53 37.26L38.69 37.32L36.72 43.66L38.89 44.77L38.74 45.09L36.77 51.43L38.79 52.47L38.95 52.53L36.98 58.86L39.15 59.97L39.03 60.24H39.07L37.1 66.59L39.12 67.63L39.28 67.69L37.31 74.02L38.95 74.86H49.9L49.35 74.58L51.31 68.27L49.13 67.15L51.18 60.53L49 59.41L50.96 53.1L48.78 51.98L50.85 45.3L48.72 44.21L50.68 37.9L48.5 36.78L50.48 30.39L48.56 29.4L50.52 23.09L48.34 21.97L50.41 15.29L48.28 14.19L50.24 7.87999L48.06 6.75998L49.78 1.20999H49.87ZM53.16 74.85L51.1 73.79L53.07 67.45L52.91 67.39L50.89 66.35L52.86 60.02H52.82L52.94 59.74L50.77 58.63L52.74 52.3L52.58 52.24L50.56 51.2L52.53 44.86L52.68 44.54L50.51 43.43L52.48 37.09L52.32 37.03L50.3 35.99L51.84 31.02L51.93 31.07L52.53 29.74L50.36 28.63L52.33 22.29L52.17 22.23L50.15 21.19L52.12 14.85L52.27 14.53L50.1 13.42L52.07 7.07999L51.91 7.01999L49.89 5.97998L51.19 1.77998C54.68 3.62998 57.07 7.30999 57.07 11.54V74.84H53.21L53.16 74.85ZM35.8 74.85L35.67 74.78L37.63 68.47L35.45 67.35L37.5 60.73L35.32 59.61L37.28 53.3L35.1 52.18L37.17 45.5L35.04 44.4L37 38.09L34.82 36.97L36.8 30.58L34.88 29.59L36.84 23.28L34.66 22.16L36.73 15.48L34.6 14.38L36.56 8.06999L34.38 6.94998L36.39 0.47998H30.03V74.82H35.78L35.8 74.85Z" fill="#EAAD48"/>
</svg>
