<svg width="85" height="67" viewBox="0 0 85 67" fill="none" xmlns="http://www.w3.org/2000/svg">
<path d="M41.86 39.06C41.86 39.26 41.89 39.46 41.89 39.67C41.89 47.92 35.18 54.63 26.93 54.63C18.68 54.63 11.98 47.92 11.98 39.67C11.98 31.42 18.69 24.71 26.93 24.71C27.1 24.71 27.27 24.73 27.44 24.74C27.32 24.2 27.22 23.65 27.14 23.1C27.07 23.1 27 23.09 26.93 23.09C17.79 23.09 10.35 30.53 10.35 39.67C10.35 48.81 17.79 56.25 26.93 56.25C36.07 56.25 43.51 48.81 43.51 39.67C43.51 39.56 43.5 39.46 43.49 39.35C42.94 39.28 42.39 39.18 41.85 39.06H41.86Z" fill="#EAAD48"/>
<path d="M45.55 42.11C33.94 42.11 24.5 32.67 24.5 21.06C24.5 9.45 33.95 0 45.55 0C57.15 0 66.6 9.44 66.6 21.05C66.6 32.66 57.16 42.1 45.55 42.1V42.11ZM45.55 4.88C36.63 4.88 29.37 12.14 29.37 21.06C29.37 29.98 36.63 37.24 45.55 37.24C54.47 37.24 61.73 29.98 61.73 21.06C61.73 12.14 54.47 4.88 45.55 4.88Z" fill="#EAAD48"/>
<path d="M50.59 38.98C50.59 39.21 50.62 39.43 50.62 39.67C50.62 52.73 39.99 63.36 26.93 63.36C13.87 63.36 3.25 52.73 3.25 39.67C3.25 26.61 13.88 15.98 26.94 15.98C27.12 15.98 27.29 16 27.47 16.01C27.73 14.91 28.07 13.83 28.52 12.81C28 12.78 27.48 12.73 26.94 12.73C12.09 12.73 0 24.81 0 39.67C0 54.53 12.09 66.61 26.94 66.61C41.79 66.61 53.88 54.52 53.88 39.67C53.88 39.08 53.83 38.5 53.79 37.91C52.77 38.36 51.7 38.71 50.59 38.98Z" fill="#EAAD48"/>
<path d="M19.9261 15.4501L19.6671 20.6337L21.2851 20.7145L21.5441 15.531L19.9261 15.4501Z" fill="#EAAD48"/>
<path d="M14.0689 18.9569L12.4652 19.2487L13.2956 23.8137L14.8993 23.522L14.0689 18.9569Z" fill="#EAAD48"/>
<path d="M8.79993 23.2911L7.37073 24.0748L9.64508 28.2221L11.0743 27.4384L8.79993 23.2911Z" fill="#EAAD48"/>
<path d="M4.54178 29.246L3.33008 30.3363L6.44033 33.793L7.65203 32.7028L4.54178 29.246Z" fill="#EAAD48"/>
<path d="M3.1005 35.3931L2.07465 36.6469L5.41037 39.3761L6.43623 38.1223L3.1005 35.3931Z" fill="#EAAD48"/>
<path d="M2.94089 42.759L2.23376 44.2277L6.23421 46.1538L6.94133 44.6852L2.94089 42.759Z" fill="#EAAD48"/>
<path d="M4.09661 49.1252L3.77972 50.7241L8.49795 51.6592L8.81483 50.0603L4.09661 49.1252Z" fill="#EAAD48"/>
<path d="M11.92 54.6801H7.03998V56.3101H11.92V54.6801Z" fill="#EAAD48"/>
<path d="M17.0489 58.2164L11.754 59.3264L12.0864 60.912L17.3813 59.8019L17.0489 58.2164Z" fill="#EAAD48"/>
<path d="M22.7463 60.0632L18.6665 63.0732L19.6342 64.3849L23.714 61.3748L22.7463 60.0632Z" fill="#EAAD48"/>
<path d="M28.8 60.641L25.3773 63.8619L26.4943 65.049L29.9171 61.828L28.8 60.641Z" fill="#EAAD48"/>
<path d="M34.5832 58.7945L33.234 63.7128L34.8059 64.144L36.1551 59.2257L34.5832 58.7945Z" fill="#EAAD48"/>
<path d="M40.1547 55.4215L39.6097 61.1556L41.2324 61.3099L41.7774 55.5757L40.1547 55.4215Z" fill="#EAAD48"/>
<path d="M45.767 50.6888L44.181 51.0187L45.1971 55.9041L46.7832 55.5742L45.767 50.6888Z" fill="#EAAD48"/>
<path d="M48.0283 45.323L46.5338 45.9481L48.5598 50.7914L50.0543 50.1663L48.0283 45.323Z" fill="#EAAD48"/>
<path d="M50.0277 40.0791L48.6083 40.8805L50.8503 44.8513L52.2697 44.0499L50.0277 40.0791Z" fill="#EAAD48"/>
<path d="M25.8 38.18L17.33 34.77L17.93 33.26L24 35.7L23.53 28.82L25.15 28.71L25.8 38.18Z" fill="#EAAD48"/>
<path d="M19.92 47.6701L18.57 46.7801L22.15 41.3101L15.31 40.4201L15.52 38.8101L24.94 40.0301L19.92 47.6701Z" fill="#EAAD48"/>
<path d="M30.32 50.62L27.13 44.91L23.18 50.57L21.85 49.64L27.28 41.86L31.74 49.83L30.32 50.62Z" fill="#EAAD48"/>
<path d="M35.04 48.02L29.29 40.47L38.24 38.66L38.57 40.25L32.15 41.55L36.34 47.04L35.04 48.02Z" fill="#EAAD48"/>
<path d="M79.74 51.2299C78.68 51.2299 77.62 50.8899 76.72 50.1799L60.11 37.0799C58 35.4099 57.63 32.3499 59.3 30.2299C60.97 28.1199 64.03 27.7499 66.15 29.4199L82.76 42.5199C84.87 44.1899 85.24 47.2499 83.57 49.3699C82.61 50.5899 81.18 51.2299 79.74 51.2299Z" fill="#EAAD48"/>
</svg>
