<svg width="67" height="66" viewBox="0 0 67 66" fill="none" xmlns="http://www.w3.org/2000/svg">
<path d="M42.57 38.53C42.57 38.73 42.6 38.93 42.6 39.13C42.6 47.32 35.93 53.99 27.74 53.99C19.55 53.99 12.88 47.32 12.88 39.13C12.88 30.94 19.55 24.27 27.74 24.27C27.91 24.27 28.08 24.29 28.25 24.3C28.13 23.77 28.03 23.22 27.95 22.67C27.88 22.67 27.81 22.66 27.74 22.66C18.66 22.66 11.27 30.05 11.27 39.13C11.27 48.21 18.66 55.6 27.74 55.6C36.82 55.6 44.21 48.21 44.21 39.13C44.21 39.02 44.2 38.92 44.19 38.81C43.64 38.74 43.1 38.64 42.56 38.52L42.57 38.53Z" fill="#EAAD48"/>
<path d="M46.23 40.75C35.14 40.75 26.12 31.73 26.12 20.64C26.12 9.55003 35.15 0.530029 46.23 0.530029C57.31 0.530029 66.34 9.55003 66.34 20.64C66.34 31.73 57.32 40.75 46.23 40.75ZM46.23 3.76003C36.92 3.76003 29.35 11.33 29.35 20.64C29.35 29.95 36.92 37.52 46.23 37.52C55.54 37.52 63.11 29.95 63.11 20.64C63.11 11.33 55.54 3.76003 46.23 3.76003Z" fill="#EAAD48"/>
<path d="M51.24 38.45C51.24 38.68 51.27 38.9 51.27 39.13C51.27 52.11 40.71 62.67 27.73 62.67C14.75 62.67 4.19998 52.11 4.19998 39.13C4.19998 26.15 14.76 15.6 27.73 15.6C27.91 15.6 28.08 15.62 28.26 15.63C28.52 14.53 28.86 13.47 29.3 12.45C28.78 12.42 28.26 12.37 27.73 12.37C12.97 12.37 0.969971 24.38 0.969971 39.13C0.969971 53.88 12.98 65.9 27.73 65.9C42.48 65.9 54.5 53.89 54.5 39.13C54.5 38.54 54.45 37.96 54.41 37.38C53.4 37.83 52.33 38.18 51.23 38.45H51.24Z" fill="#EAAD48"/>
<path d="M20.7949 15.0649L20.5375 20.2185L22.1455 20.2988L22.4029 15.1453L20.7949 15.0649Z" fill="#EAAD48"/>
<path d="M14.9509 18.5387L13.3571 18.8286L14.1821 23.3642L15.776 23.0742L14.9509 18.5387Z" fill="#EAAD48"/>
<path d="M9.70027 22.8435L8.28845 23.6174L10.5477 27.7388L11.9595 26.9649L9.70027 22.8435Z" fill="#EAAD48"/>
<path d="M5.46531 28.752L4.26123 29.8358L7.35201 33.2697L8.55609 32.1859L5.46531 28.752Z" fill="#EAAD48"/>
<path d="M4.07604 34.9113L3.05652 36.1573L6.36903 38.8676L7.38854 37.6216L4.07604 34.9113Z" fill="#EAAD48"/>
<path d="M3.86648 42.1866L3.1637 43.6462L7.13711 45.5594L7.83989 44.0998L3.86648 42.1866Z" fill="#EAAD48"/>
<path d="M5.06316 48.534L4.74878 50.1232L9.43791 51.0508L9.75229 49.4616L5.06316 48.534Z" fill="#EAAD48"/>
<path d="M12.81 54.05H7.96997V55.66H12.81V54.05Z" fill="#EAAD48"/>
<path d="M17.9096 57.5402L12.6539 58.642L12.9842 60.2177L18.24 59.1159L17.9096 57.5402Z" fill="#EAAD48"/>
<path d="M23.5813 59.409L19.5257 62.4012L20.4816 63.6968L24.5372 60.7046L23.5813 59.409Z" fill="#EAAD48"/>
<path d="M29.5816 59.9636L26.1807 63.1639L27.2909 64.3437L30.6918 61.1433L29.5816 59.9636Z" fill="#EAAD48"/>
<path d="M35.3407 58.1513L34.0021 63.031L35.5644 63.4596L36.903 58.5798L35.3407 58.1513Z" fill="#EAAD48"/>
<path d="M40.8513 54.7719L40.3091 60.4762L41.9218 60.6295L42.464 54.9252L40.8513 54.7719Z" fill="#EAAD48"/>
<path d="M46.4378 50.1245L44.8616 50.4526L45.8725 55.3085L47.4487 54.9804L46.4378 50.1245Z" fill="#EAAD48"/>
<path d="M48.6929 44.7392L47.2076 45.3605L49.2221 50.1761L50.7074 49.5548L48.6929 44.7392Z" fill="#EAAD48"/>
<path d="M50.658 39.5375L49.2559 40.3289L51.4824 44.2739L52.8845 43.4826L50.658 39.5375Z" fill="#EAAD48"/>
<path d="M26.6099 37.66L18.1899 34.27L18.7899 32.77L24.8199 35.2L24.3499 28.36L25.9599 28.25L26.6099 37.66Z" fill="#EAAD48"/>
<path d="M20.7699 47.09L19.42 46.2L22.9899 40.77L16.1899 39.89L16.3999 38.28L25.7499 39.5L20.7699 47.09Z" fill="#EAAD48"/>
<path d="M31.0999 50.0201L27.9299 44.3501L24.0099 49.9701L22.6799 49.0401L28.0799 41.3101L32.5099 49.2301L31.0999 50.0201Z" fill="#EAAD48"/>
<path d="M35.7899 47.43L30.0699 39.93L38.9699 38.13L39.2899 39.71L32.92 41.01L37.0799 46.45L35.7899 47.43Z" fill="#EAAD48"/>
<path d="M44.19 31.49L35.95 22.34C34.92 21.2 35.01 19.44 36.16 18.41C37.3 17.38 39.06 17.47 40.09 18.62L43.78 22.72L52.06 11.59C52.98 10.36 54.72 10.1 55.95 11.02C57.18 11.94 57.44 13.68 56.52 14.91L44.18 31.48L44.19 31.49Z" fill="#EAAD48"/>
</svg>
